<?xml version="1.0" encoding="utf-8"?>
<!-- Generator: Adobe Illustrator 16.0.0, SVG Export Plug-In . SVG Version: 6.00 Build 0)  -->
<!DOCTYPE svg PUBLIC "-//W3C//DTD SVG 1.1//EN" "http://www.w3.org/Graphics/SVG/1.1/DTD/svg11.dtd" [
	<!ENTITY ns_flows "http://ns.adobe.com/Flows/1.0/">
	<!ENTITY ns_extend "http://ns.adobe.com/Extensibility/1.0/">
	<!ENTITY ns_ai "http://ns.adobe.com/AdobeIllustrator/10.0/">
	<!ENTITY ns_graphs "http://ns.adobe.com/Graphs/1.0/">
]>
<svg version="1.1" id="Layer_1" xmlns:x="&ns_extend;" xmlns:i="&ns_ai;" xmlns:graph="&ns_graphs;"
	 xmlns="http://www.w3.org/2000/svg" xmlns:xlink="http://www.w3.org/1999/xlink" xmlns:a="http://ns.adobe.com/AdobeSVGViewerExtensions/3.0/"
	 x="0px" y="0px" width="668px" height="115.667px" viewBox="0 0 668 115.667" enable-background="new 0 0 668 115.667"
	 xml:space="preserve">
<rect x="277.023" y="4.299" fill="#E6E7E8" width="5.144" height="106.584"/>
<g>
	<g>
		<g>
			<g>
				<g>
					<path fill="#2E3E3D" d="M573.043,51.084c0,2.675-1.391,5.042-4.167,7.111c-2.779,2.065-5.946,3.099-9.505,3.099
						c-2.987,0-5.312-0.747-6.979-2.242c-1.666-1.494-2.5-3.593-2.5-6.301c0-2.482,0.321-4.678,0.963-6.588
						c0.73-2.169,2.109-4.765,4.141-7.786l1.616,1.093c-2.503,3.751-3.75,6.997-3.75,9.739c0,3.3,2.238,4.949,6.717,4.949
						c3.056,0,5.538-0.594,7.448-1.784c1.909-1.189,2.864-2.731,2.864-4.622c0-1.632-0.096-3.023-0.285-4.168
						c-0.991-5.574-1.988-11.147-2.996-16.718l-1.302-0.938c-0.017-1.666,0.782-4.27,2.396-7.811l1.199,0.572
						c-0.071,0.242-0.105,0.52-0.105,0.832c0,0.591,0.2,1.043,0.597,1.356c0.158,0.121,1.312,0.799,3.466,2.029
						c-0.278,2.153-0.869,4.185-1.771,6.097l-0.78-0.314l1.403,7.76c0.888,4.929,1.331,7.865,1.331,8.801V51.084z"/>
					<path fill="#2E3E3D" d="M587.522,51.734h-16.304v-7.08h13.699c-0.278-1.633-1.234-3.413-2.866-5.341l2.084-6.197
						c1.302,1.494,2.178,3.014,2.63,4.556c0.504,1.668,0.757,4.088,0.757,7.267V51.734z M587.105,56.319l-2.864,5.313l-3.698-2.083
						l-2.084,4.112l-4.843-2.656l2.708-5.05l3.854,1.927l2.188-4.218L587.105,56.319z"/>
					<path fill="#2E3E3D" d="M615.438,51.734h-29.739v-7.08h18.515c-3.854-3.976-7.344-5.965-10.468-5.965
						c-0.816,0-1.771,0.121-2.864,0.363c1.873-4.27,4.27-6.405,7.186-6.405c1.65,0,3.342,0.65,5.08,1.954
						c1.388,1.058,3.463,3.099,6.223,6.118c1.319,1.46,2.335,2.415,3.047,2.866c0.66,0.417,1.666,0.774,3.021,1.07V51.734z
						 M605.803,57.437l-3.282,5.889l-5.989-3.231l3.021-5.885L605.803,57.437z"/>
					<path fill="#2E3E3D" d="M647.884,51.734c-3.906-0.258-6.787-0.84-8.646-1.743c-1.043,0.746-2.023,1.231-2.944,1.459
						c-0.745,0.191-1.848,0.284-3.307,0.284h-4.244c-2.064,0-3.593-1.31-4.582-3.93c-1.719,2.621-3.994,3.93-6.823,3.93h-3.725
						v-7.08h3.725c1.788,0,3.28-0.522,4.479-1.565c1.51-1.319,2.326-3.342,2.447-6.066l1.718,0.26
						c-0.103,1.562-0.154,2.983-0.154,4.27c0,0.904,0.304,1.645,0.912,2.227c0.605,0.583,1.303,0.875,2.083,0.875h3.204
						c2.099,0,3.609-0.305,4.529-0.915c1.095-0.728,1.64-2.047,1.64-3.956c0-0.607,0.452-1.27,1.356-1.98l0.988-0.78
						c0.069,0.695,0.104,1.51,0.104,2.447c0,0.954-0.137,2.223-0.417,3.803c1.232,0.625,2.795,1.068,4.689,1.328
						c0-0.589-0.218-1.351-0.653-2.279c-0.433-0.928-0.65-1.565-0.65-1.913c0-0.556,0.25-1.175,0.755-1.851l2.215-2.995
						c0.867,1.979,1.301,4.088,1.301,6.33V51.734z"/>
					<path fill="#2E3E3D" d="M662.363,51.734h-16.302v-7.08h13.697c-0.278-1.633-1.231-3.413-2.864-5.341l2.084-6.197
						c1.303,1.494,2.179,3.014,2.631,4.556c0.502,1.668,0.754,4.088,0.754,7.267V51.734z M661.947,23.897l-2.865,5.312l-3.697-2.081
						l-2.082,4.113l-4.846-2.654l2.71-5.052l3.852,1.925l2.188-4.218L661.947,23.897z"/>
				</g>
				<g>
					<path fill="#2E3E3D" d="M451.207,51.734h-3.412c-3.454,0-5.485-3.567-6.093-10.703c-2.396,2.953-4.114,4.431-5.156,4.431
						c-0.294,0-0.711-0.055-1.249-0.159l-3.178-0.625l-1.719-0.313c-0.834-0.225-1.25-0.538-1.25-0.937
						c0-0.453,0.608-1.936,1.823-4.454c1.215-2.516,2.082-4.052,2.605-4.608c0.9-0.972,3.071-2.431,6.508-4.376
						c-0.104-0.416-0.156-0.903-0.156-1.458c0-1.493,0.694-3.558,2.084-6.197l2.5,16.249c0.624,4.047,1.718,6.07,3.28,6.07h3.412
						V51.734z M445.191,14.757l-2.865,5.313l-3.697-2.084l-2.083,4.117l-4.843-2.656l2.709-5.054l3.853,1.927l2.188-4.217
						L445.191,14.757z M441.078,37.023l-0.521-3.126c-0.781,0.348-1.979,1.026-3.593,2.032c-1.043,0.833-1.563,1.441-1.563,1.821
						c0,0.521,0.902,0.784,2.707,0.784C438.75,38.533,439.74,38.029,441.078,37.023z"/>
					<path fill="#2E3E3D" d="M473.577,51.708c-4.046-0.105-8.1-1.195-12.162-3.281c-1.458,2.205-3.672,3.306-6.639,3.306h-5.158
						v-7.08h5.158c3.227,0,5.285-1.035,6.171-3.102c0.937-2.205,2.195-4.028,3.775-5.467c1.388-1.251,2.561-1.876,3.517-1.876
						c0.9,0,2.005,1.337,3.307,4.01c1.354,2.811,2.031,5.416,2.031,7.814V51.708z M468.707,43.845c0-0.382-0.374-1.051-1.121-2.005
						c-0.833-1.023-1.554-1.537-2.16-1.537c-0.676,0-1.251,0.781-1.72,2.343c2.692,1.042,4.168,1.561,4.428,1.561
						C468.515,44.207,468.707,44.087,468.707,43.845z"/>
					<path fill="#2E3E3D" d="M491.856,51.734h-11.795c-2.5,0-3.75-1.203-3.75-3.619c0-1.528,0.154-3.246,0.468-5.155l0.991-0.051
						c0.276,1.164,1.161,1.746,2.655,1.746h8.958c-0.695-4.394-2.526-7.527-5.495-9.404l1.875-8.123
						c2.257,1.701,3.862,3.88,4.818,6.535c0.85,2.413,1.274,5.65,1.274,9.712V51.734z"/>
					<path fill="#2E3E3D" d="M519.774,51.734h-29.74v-7.08h18.516c-3.855-3.976-7.343-5.965-10.469-5.965
						c-0.815,0-1.771,0.121-2.863,0.363c1.873-4.27,4.27-6.405,7.187-6.405c1.65,0,3.343,0.65,5.078,1.954
						c1.389,1.058,3.464,3.099,6.224,6.118c1.319,1.46,2.335,2.415,3.046,2.866c0.661,0.417,1.667,0.774,3.022,1.07V51.734z
						 M509.305,24.002l-3.125,5.834l-6.094-3.179l3.021-5.886L509.305,24.002z"/>
					<path fill="#2E3E3D" d="M532.273,51.734H517.95v-7.08h11.199l-3.151-17.684l-1.667-1.094c-0.122-1.805,0.711-4.407,2.5-7.812
						l1.198,0.625c0,0.104-0.035,0.381-0.104,0.832c0,1.009,1.387,2.102,4.165,3.281c-0.329,2.31-0.902,4.341-1.719,6.096
						l-0.936-0.366l2.838,16.122V51.734z"/>
					<path fill="#2E3E3D" d="M541.699,44.159c0,2.622-0.885,5.744-2.656,9.373l-1.561-0.624c0.417-2.222,0.625-4.028,0.625-5.417
						c0-2.24-0.298-5.677-0.887-10.313c-0.277-2.187-0.695-4.677-1.25-7.474c-0.452-2.29-0.678-3.603-0.678-3.933
						c0-1.093,1.024-3.578,3.074-7.447l1.563,9.22C541.109,34.872,541.699,40.408,541.699,44.159z"/>
				</g>
				<g>
					<path fill="#2E3E3D" d="M319.234,51.734h-3.409c-3.457,0-5.487-3.567-6.094-10.703c-2.396,2.953-4.115,4.431-5.157,4.431
						c-0.295,0-0.712-0.055-1.25-0.159l-3.177-0.625l-1.719-0.313c-0.833-0.225-1.25-0.538-1.25-0.937
						c0-0.453,0.607-1.936,1.823-4.454c1.216-2.516,2.084-4.052,2.606-4.608c0.901-0.972,3.072-2.431,6.509-4.376
						c-0.104-0.416-0.156-0.903-0.156-1.458c0-1.493,0.693-3.558,2.083-6.197l2.5,16.249c0.625,4.047,1.72,6.07,3.283,6.07h3.409
						V51.734z M313.22,14.757l-2.864,5.313l-3.7-2.084l-2.083,4.117l-4.845-2.656l2.709-5.054l3.854,1.927l2.187-4.217
						L313.22,14.757z M309.106,37.023l-0.523-3.126c-0.78,0.348-1.978,1.026-3.593,2.032c-1.042,0.833-1.562,1.441-1.562,1.821
						c0,0.521,0.903,0.784,2.709,0.784C306.779,38.533,307.768,38.029,309.106,37.023z"/>
					<path fill="#2E3E3D" d="M333.949,51.734h-16.302v-7.08h13.698c-0.278-1.633-1.233-3.413-2.865-5.341l2.084-6.197
						c1.302,1.494,2.177,3.014,2.629,4.556c0.502,1.668,0.756,4.088,0.756,7.267V51.734z M333.532,56.319l-2.864,5.313l-3.698-2.083
						l-2.084,4.112l-4.843-2.656l2.708-5.05l3.856,1.927l2.188-4.218L333.532,56.319z"/>
					<path fill="#2E3E3D" d="M348.427,51.734h-16.301v-7.08h13.697c-0.277-1.633-1.233-3.413-2.863-5.341l2.083-6.197
						c1.302,1.494,2.179,3.014,2.629,4.556c0.505,1.668,0.756,4.088,0.756,7.267V51.734z M348.583,23.377l-3.126,5.831l-6.093-3.177
						l3.022-5.882L348.583,23.377z"/>
					<path fill="#2E3E3D" d="M376.343,51.734h-29.739v-7.08h3.464c0.591,0,2.69-1.452,6.302-4.351
						c-0.069-4.394-0.868-9.618-2.396-15.677l-1.51-0.939c0.572-2.603,1.405-5.155,2.499-7.655l1.198,0.47
						c0,0.122-0.035,0.345-0.105,0.678c0,0.918,1.719,1.993,5.158,3.228c-0.261,1.944-0.887,4.131-1.877,6.562l-0.938-0.314
						c0.903,4.204,1.355,7.068,1.355,8.594c0,1.007-0.088,1.945-0.26,2.814l4.582-3.23c2.414-1.564,4.168-2.343,5.261-2.343
						c2.049,0,3.688,0.538,4.921,1.615c1.391,1.198,2.084,2.917,2.084,5.155V51.734z M372.723,41.994
						c0-0.588-0.675-1.171-2.031-1.742c-1.233-0.505-2.326-0.755-3.28-0.755c-1.979,0-5.348,1.717-10.104,5.157h6.823
						C369.859,44.654,372.723,43.766,372.723,41.994z"/>
					<path fill="#2E3E3D" d="M400.405,49.938c0,2.988-1.271,5.937-3.814,8.855c-2.544,2.916-5.039,4.375-7.487,4.375
						c-1.441,0-3.017-0.461-4.725-1.38c-1.711-0.922-4.338-2.737-7.878-5.444l1.092-1.51c1.615,1.077,2.873,1.806,3.776,2.186
						c1.304,0.556,2.701,0.833,4.192,0.833c3.559,0,7.239-2.255,11.042-6.77c-0.729,0.105-1.337,0.156-1.822,0.156
						c-1.721,0-3.086-0.56-4.103-1.679c-1.015-1.118-1.522-2.641-1.522-4.568c0-2.605,0.606-5.122,1.822-7.554
						c1.301-2.604,2.777-3.907,4.428-3.907c1.371,0,2.548,0.951,3.527,2.853c0.981,1.9,1.472,4.18,1.472,6.836V49.938z
						 M397.28,44.654c-0.485-2.797-1.476-4.194-2.969-4.194c-0.538,0-0.98,0.232-1.328,0.704c-0.295,0.397-0.442,0.839-0.442,1.328
						c0,1.441,1.25,2.162,3.75,2.162H397.28z"/>
					<path fill="#2E3E3D" d="M412.904,51.734h-14.322v-7.08h11.199l-3.15-17.684l-1.668-1.094c-0.121-1.805,0.712-4.407,2.499-7.812
						l1.198,0.625c0,0.104-0.035,0.381-0.104,0.832c0,1.009,1.389,2.102,4.166,3.281c-0.33,2.31-0.901,4.341-1.717,6.096
						l-0.938-0.366l2.837,16.122V51.734z"/>
					<path fill="#2E3E3D" d="M422.333,44.159c0,2.622-0.886,5.744-2.658,9.373l-1.562-0.624c0.417-2.222,0.626-4.028,0.626-5.417
						c0-2.24-0.296-5.677-0.886-10.313c-0.278-2.187-0.694-4.677-1.249-7.474c-0.452-2.29-0.679-3.603-0.679-3.933
						c0-1.093,1.023-3.578,3.073-7.447l1.563,9.22C421.742,34.872,422.333,40.408,422.333,44.159z"/>
				</g>
				<g>
					<path fill="#2E3E3D" d="M573.043,51.084c0,2.675-1.391,5.042-4.167,7.111c-2.779,2.065-5.946,3.099-9.505,3.099
						c-2.987,0-5.312-0.747-6.979-2.242c-1.666-1.494-2.5-3.593-2.5-6.301c0-2.482,0.321-4.678,0.963-6.588
						c0.73-2.169,2.109-4.765,4.141-7.786l1.616,1.093c-2.503,3.751-3.75,6.997-3.75,9.739c0,3.3,2.238,4.949,6.717,4.949
						c3.056,0,5.538-0.594,7.448-1.784c1.909-1.189,2.864-2.731,2.864-4.622c0-1.632-0.096-3.023-0.285-4.168
						c-0.991-5.574-1.988-11.147-2.996-16.718l-1.302-0.938c-0.017-1.666,0.782-4.27,2.396-7.811l1.199,0.572
						c-0.071,0.242-0.105,0.52-0.105,0.832c0,0.591,0.2,1.043,0.597,1.356c0.158,0.121,1.312,0.799,3.466,2.029
						c-0.278,2.153-0.869,4.185-1.771,6.097l-0.78-0.314l1.403,7.76c0.888,4.929,1.331,7.865,1.331,8.801V51.084z"/>
					<path fill="#2E3E3D" d="M587.522,51.734h-16.304v-7.08h13.699c-0.278-1.633-1.234-3.413-2.866-5.341l2.084-6.197
						c1.302,1.494,2.178,3.014,2.63,4.556c0.504,1.668,0.757,4.088,0.757,7.267V51.734z M587.105,56.319l-2.864,5.313l-3.698-2.083
						l-2.084,4.112l-4.843-2.656l2.708-5.05l3.854,1.927l2.188-4.218L587.105,56.319z"/>
					<path fill="#2E3E3D" d="M615.438,51.734h-29.739v-7.08h18.515c-3.854-3.976-7.344-5.965-10.468-5.965
						c-0.816,0-1.771,0.121-2.864,0.363c1.873-4.27,4.27-6.405,7.186-6.405c1.65,0,3.342,0.65,5.08,1.954
						c1.388,1.058,3.463,3.099,6.223,6.118c1.319,1.46,2.335,2.415,3.047,2.866c0.66,0.417,1.666,0.774,3.021,1.07V51.734z
						 M605.803,57.437l-3.282,5.889l-5.989-3.231l3.021-5.885L605.803,57.437z"/>
					<path fill="#2E3E3D" d="M647.884,51.734c-3.906-0.258-6.787-0.84-8.646-1.743c-1.043,0.746-2.023,1.231-2.944,1.459
						c-0.745,0.191-1.848,0.284-3.307,0.284h-4.244c-2.064,0-3.593-1.31-4.582-3.93c-1.719,2.621-3.994,3.93-6.823,3.93h-3.725
						v-7.08h3.725c1.788,0,3.28-0.522,4.479-1.565c1.51-1.319,2.326-3.342,2.447-6.066l1.718,0.26
						c-0.103,1.562-0.154,2.983-0.154,4.27c0,0.904,0.304,1.645,0.912,2.227c0.605,0.583,1.303,0.875,2.083,0.875h3.204
						c2.099,0,3.609-0.305,4.529-0.915c1.095-0.728,1.64-2.047,1.64-3.956c0-0.607,0.452-1.27,1.356-1.98l0.988-0.78
						c0.069,0.695,0.104,1.51,0.104,2.447c0,0.954-0.137,2.223-0.417,3.803c1.232,0.625,2.795,1.068,4.689,1.328
						c0-0.589-0.218-1.351-0.653-2.279c-0.433-0.928-0.65-1.565-0.65-1.913c0-0.556,0.25-1.175,0.755-1.851l2.215-2.995
						c0.867,1.979,1.301,4.088,1.301,6.33V51.734z"/>
					<path fill="#2E3E3D" d="M662.363,51.734h-16.302v-7.08h13.697c-0.278-1.633-1.231-3.413-2.864-5.341l2.084-6.197
						c1.303,1.494,2.179,3.014,2.631,4.556c0.502,1.668,0.754,4.088,0.754,7.267V51.734z M661.947,23.897l-2.865,5.312l-3.697-2.081
						l-2.082,4.113l-4.846-2.654l2.71-5.052l3.852,1.925l2.188-4.218L661.947,23.897z"/>
				</g>
				<g>
					<path fill="#2E3E3D" d="M451.207,51.734h-3.412c-3.454,0-5.485-3.567-6.093-10.703c-2.396,2.953-4.114,4.431-5.156,4.431
						c-0.294,0-0.711-0.055-1.249-0.159l-3.178-0.625l-1.719-0.313c-0.834-0.225-1.25-0.538-1.25-0.937
						c0-0.453,0.608-1.936,1.823-4.454c1.215-2.516,2.082-4.052,2.605-4.608c0.9-0.972,3.071-2.431,6.508-4.376
						c-0.104-0.416-0.156-0.903-0.156-1.458c0-1.493,0.694-3.558,2.084-6.197l2.5,16.249c0.624,4.047,1.718,6.07,3.28,6.07h3.412
						V51.734z M445.191,14.757l-2.865,5.313l-3.697-2.084l-2.083,4.117l-4.843-2.656l2.709-5.054l3.853,1.927l2.188-4.217
						L445.191,14.757z M441.078,37.023l-0.521-3.126c-0.781,0.348-1.979,1.026-3.593,2.032c-1.043,0.833-1.563,1.441-1.563,1.821
						c0,0.521,0.902,0.784,2.707,0.784C438.75,38.533,439.74,38.029,441.078,37.023z"/>
					<path fill="#2E3E3D" d="M473.577,51.708c-4.046-0.105-8.1-1.195-12.162-3.281c-1.458,2.205-3.672,3.306-6.639,3.306h-5.158
						v-7.08h5.158c3.227,0,5.285-1.035,6.171-3.102c0.937-2.205,2.195-4.028,3.775-5.467c1.388-1.251,2.561-1.876,3.517-1.876
						c0.9,0,2.005,1.337,3.307,4.01c1.354,2.811,2.031,5.416,2.031,7.814V51.708z M468.707,43.845c0-0.382-0.374-1.051-1.121-2.005
						c-0.833-1.023-1.554-1.537-2.16-1.537c-0.676,0-1.251,0.781-1.72,2.343c2.692,1.042,4.168,1.561,4.428,1.561
						C468.515,44.207,468.707,44.087,468.707,43.845z"/>
					<path fill="#2E3E3D" d="M491.856,51.734h-11.795c-2.5,0-3.75-1.203-3.75-3.619c0-1.528,0.154-3.246,0.468-5.155l0.991-0.051
						c0.276,1.164,1.161,1.746,2.655,1.746h8.958c-0.695-4.394-2.526-7.527-5.495-9.404l1.875-8.123
						c2.257,1.701,3.862,3.88,4.818,6.535c0.85,2.413,1.274,5.65,1.274,9.712V51.734z"/>
					<path fill="#2E3E3D" d="M519.774,51.734h-29.74v-7.08h18.516c-3.855-3.976-7.343-5.965-10.469-5.965
						c-0.815,0-1.771,0.121-2.863,0.363c1.873-4.27,4.27-6.405,7.187-6.405c1.65,0,3.343,0.65,5.078,1.954
						c1.389,1.058,3.464,3.099,6.224,6.118c1.319,1.46,2.335,2.415,3.046,2.866c0.661,0.417,1.667,0.774,3.022,1.07V51.734z
						 M509.305,24.002l-3.125,5.834l-6.094-3.179l3.021-5.886L509.305,24.002z"/>
					<path fill="#2E3E3D" d="M532.273,51.734H517.95v-7.08h11.199l-3.151-17.684l-1.667-1.094c-0.122-1.805,0.711-4.407,2.5-7.812
						l1.198,0.625c0,0.104-0.035,0.381-0.104,0.832c0,1.009,1.387,2.102,4.165,3.281c-0.329,2.31-0.902,4.341-1.719,6.096
						l-0.936-0.366l2.838,16.122V51.734z"/>
					<path fill="#2E3E3D" d="M541.699,44.159c0,2.622-0.885,5.744-2.656,9.373l-1.561-0.624c0.417-2.222,0.625-4.028,0.625-5.417
						c0-2.24-0.298-5.677-0.887-10.313c-0.277-2.187-0.695-4.677-1.25-7.474c-0.452-2.29-0.678-3.603-0.678-3.933
						c0-1.093,1.024-3.578,3.074-7.447l1.563,9.22C541.109,34.872,541.699,40.408,541.699,44.159z"/>
				</g>
				<g>
					<path fill="#2E3E3D" d="M319.234,51.734h-3.409c-3.457,0-5.487-3.567-6.094-10.703c-2.396,2.953-4.115,4.431-5.157,4.431
						c-0.295,0-0.712-0.055-1.25-0.159l-3.177-0.625l-1.719-0.313c-0.833-0.225-1.25-0.538-1.25-0.937
						c0-0.453,0.607-1.936,1.823-4.454c1.216-2.516,2.084-4.052,2.606-4.608c0.901-0.972,3.072-2.431,6.509-4.376
						c-0.104-0.416-0.156-0.903-0.156-1.458c0-1.493,0.693-3.558,2.083-6.197l2.5,16.249c0.625,4.047,1.72,6.07,3.283,6.07h3.409
						V51.734z M313.22,14.757l-2.864,5.313l-3.7-2.084l-2.083,4.117l-4.845-2.656l2.709-5.054l3.854,1.927l2.187-4.217
						L313.22,14.757z M309.106,37.023l-0.523-3.126c-0.78,0.348-1.978,1.026-3.593,2.032c-1.042,0.833-1.562,1.441-1.562,1.821
						c0,0.521,0.903,0.784,2.709,0.784C306.779,38.533,307.768,38.029,309.106,37.023z"/>
					<path fill="#2E3E3D" d="M333.949,51.734h-16.302v-7.08h13.698c-0.278-1.633-1.233-3.413-2.865-5.341l2.084-6.197
						c1.302,1.494,2.177,3.014,2.629,4.556c0.502,1.668,0.756,4.088,0.756,7.267V51.734z M333.532,56.319l-2.864,5.313l-3.698-2.083
						l-2.084,4.112l-4.843-2.656l2.708-5.05l3.856,1.927l2.188-4.218L333.532,56.319z"/>
					<path fill="#2E3E3D" d="M348.427,51.734h-16.301v-7.08h13.697c-0.277-1.633-1.233-3.413-2.863-5.341l2.083-6.197
						c1.302,1.494,2.179,3.014,2.629,4.556c0.505,1.668,0.756,4.088,0.756,7.267V51.734z M348.583,23.377l-3.126,5.831l-6.093-3.177
						l3.022-5.882L348.583,23.377z"/>
					<path fill="#2E3E3D" d="M376.343,51.734h-29.739v-7.08h3.464c0.591,0,2.69-1.452,6.302-4.351
						c-0.069-4.394-0.868-9.618-2.396-15.677l-1.51-0.939c0.572-2.603,1.405-5.155,2.499-7.655l1.198,0.47
						c0,0.122-0.035,0.345-0.105,0.678c0,0.918,1.719,1.993,5.158,3.228c-0.261,1.944-0.887,4.131-1.877,6.562l-0.938-0.314
						c0.903,4.204,1.355,7.068,1.355,8.594c0,1.007-0.088,1.945-0.26,2.814l4.582-3.23c2.414-1.564,4.168-2.343,5.261-2.343
						c2.049,0,3.688,0.538,4.921,1.615c1.391,1.198,2.084,2.917,2.084,5.155V51.734z M372.723,41.994
						c0-0.588-0.675-1.171-2.031-1.742c-1.233-0.505-2.326-0.755-3.28-0.755c-1.979,0-5.348,1.717-10.104,5.157h6.823
						C369.859,44.654,372.723,43.766,372.723,41.994z"/>
					<path fill="#2E3E3D" d="M400.405,49.938c0,2.988-1.271,5.937-3.814,8.855c-2.544,2.916-5.039,4.375-7.487,4.375
						c-1.441,0-3.017-0.461-4.725-1.38c-1.711-0.922-4.338-2.737-7.878-5.444l1.092-1.51c1.615,1.077,2.873,1.806,3.776,2.186
						c1.304,0.556,2.701,0.833,4.192,0.833c3.559,0,7.239-2.255,11.042-6.77c-0.729,0.105-1.337,0.156-1.822,0.156
						c-1.721,0-3.086-0.56-4.103-1.679c-1.015-1.118-1.522-2.641-1.522-4.568c0-2.605,0.606-5.122,1.822-7.554
						c1.301-2.604,2.777-3.907,4.428-3.907c1.371,0,2.548,0.951,3.527,2.853c0.981,1.9,1.472,4.18,1.472,6.836V49.938z
						 M397.28,44.654c-0.485-2.797-1.476-4.194-2.969-4.194c-0.538,0-0.98,0.232-1.328,0.704c-0.295,0.397-0.442,0.839-0.442,1.328
						c0,1.441,1.25,2.162,3.75,2.162H397.28z"/>
					<path fill="#2E3E3D" d="M412.904,51.734h-14.322v-7.08h11.199l-3.15-17.684l-1.668-1.094c-0.121-1.805,0.712-4.407,2.499-7.812
						l1.198,0.625c0,0.104-0.035,0.381-0.104,0.832c0,1.009,1.389,2.102,4.166,3.281c-0.33,2.31-0.901,4.341-1.717,6.096
						l-0.938-0.366l2.837,16.122V51.734z"/>
					<path fill="#2E3E3D" d="M422.333,44.159c0,2.622-0.886,5.744-2.658,9.373l-1.562-0.624c0.417-2.222,0.626-4.028,0.626-5.417
						c0-2.24-0.296-5.677-0.886-10.313c-0.278-2.187-0.694-4.677-1.249-7.474c-0.452-2.29-0.679-3.603-0.679-3.933
						c0-1.093,1.023-3.578,3.073-7.447l1.563,9.22C421.742,34.872,422.333,40.408,422.333,44.159z"/>
				</g>
			</g>
		</g>
		<g>
			<g>
				<path fill="#2E3E3D" d="M62.64,45.756c1.96-3.269,2.728-7.254,1.848-11.261c-1.836-8.361-10.138-13.643-18.542-11.798
					c-5.167,1.135-9.167,4.704-11.057,9.226C34.503,32.566,6.817,87.349,6.527,88.042C4.568,91.31,3.8,95.295,4.681,99.301
					c1.836,8.361,10.138,13.644,18.542,11.798c5.167-1.134,9.167-4.702,11.056-9.225C34.665,101.232,62.351,46.449,62.64,45.756z"/>
				<g>
					<path fill="#374745" d="M69.675,82.45c-0.895-4.101-0.121-8.179,1.859-11.522c0.112-0.271,4.312-8.71,9.463-19.037
						c-8.899-10.93-18.709-22.952-18.985-23.245c-1.811-2.585-4.443-4.625-7.676-5.676c-7.909-2.567-16.401,1.762-18.969,9.671
						c-1.762,5.424-0.278,11.123,3.38,14.997c0.343,0.49,21.136,26.031,28.968,35.6h2.152C69.798,82.979,69.734,82.716,69.675,82.45
						z"/>
					<path fill="#374745" d="M70.604,85.345h-1.162c0.722,0.877,1.153,1.399,1.208,1.459c0.161,0.228,0.33,0.451,0.504,0.674h0.562
						C71.296,86.803,70.924,86.089,70.604,85.345z"/>
					<path fill="#374745" d="M72.844,89.057h-0.399c0.502,0.653,1.062,1.267,1.671,1.834h0.473
						C73.962,90.331,73.378,89.717,72.844,89.057z"/>
					<path fill="#374745" d="M75.4,91.96c1.275,0.945,2.722,1.704,4.314,2.221c1.681,0.545,3.389,0.777,5.06,0.731
						c-3.233-0.061-6.31-1.124-8.857-2.952H75.4z"/>
					<path fill="#2E3E3D" d="M70.604,85.345c0.32,0.744,0.692,1.458,1.112,2.133h26.732c0.425-0.681,0.798-1.395,1.116-2.133H70.604
						z"/>
					<path fill="#2E3E3D" d="M75.917,91.96c2.547,1.828,5.624,2.892,8.857,2.952c1.217,0.023,2.456-0.091,3.697-0.365
						c2.154-0.475,4.105-1.372,5.791-2.587H75.917z"/>
					<path fill="#2E3E3D" d="M69.442,82.45c0.058,0.267,0.122,0.529,0.192,0.788h30.75c1.901-3.773,6.384-12.729,11.203-22.375
						c-0.366-1.055-0.657-2.274-0.87-3.656c-0.252-1.629-0.377-3.516-0.377-5.659c0-4.051,0.598-7.367,1.795-9.951
						c1.196-2.583,2.741-4.594,4.633-6.032c1.274-0.969,2.934-1.724,4.981-2.268c1.13-0.299,2.438-0.514,3.909-0.649
						c1.474-2.964,2.391-4.817,2.441-4.94c1.981-3.344,2.755-7.423,1.859-11.525c-1.869-8.561-10.285-13.976-18.796-12.096
						c-5.235,1.157-9.282,4.804-11.192,9.431c-0.239,0.405-10.947,21.818-19.207,38.374c-5.152,10.327-9.352,18.765-9.463,19.037
						C69.32,74.271,68.546,78.349,69.442,82.45z"/>
					<path fill="#2E3E3D" d="M72.844,89.057c0.534,0.66,1.118,1.273,1.745,1.834h20.999c0.628-0.566,1.21-1.18,1.738-1.834H72.844z"
						/>
				</g>
			</g>
			<g>
				<path fill="none" d="M233.177,90.891c-0.08-0.605-0.148-1.217-0.212-1.834h-21.203v1.834H233.177z"/>
				<path fill="none" d="M228.932,61.322c0.825-0.081,1.417-0.258,1.776-0.529c0.573-0.461,1.013-1.091,1.319-1.892
					c0.305-0.8,0.458-2.055,0.458-3.764c0-1.736-0.153-2.991-0.458-3.764c-0.306-0.773-0.746-1.364-1.319-1.77
					c-0.359-0.271-0.951-0.448-1.776-0.528c-0.825-0.082-2.297-0.124-4.414-0.124h-12.756v12.492h12.756
					C226.635,61.444,228.107,61.404,228.932,61.322z"/>
				<path fill="none" d="M211.762,87.478h21.055c-0.057-0.689-0.113-1.4-0.167-2.133h-20.888V87.478z"/>
				<path fill="none" d="M188.026,90.891v-1.834h-7.018c-0.435,0.67-0.904,1.281-1.405,1.834H188.026z"/>
				<path fill="none" d="M182.838,85.345c-0.15,0.431-0.311,0.843-0.488,1.236c-0.139,0.307-0.282,0.604-0.431,0.896h6.106v-2.133
					H182.838z"/>
				<path fill="none" d="M232.054,78.492c-0.108-0.706-0.233-1.261-0.377-1.667c-0.144-0.407-0.341-0.74-0.592-0.997
					c-0.252-0.258-0.521-0.495-0.808-0.713c-0.323-0.163-0.628-0.312-0.915-0.447c-0.287-0.136-0.691-0.244-1.211-0.325
					c-0.521-0.082-1.167-0.155-1.938-0.224c-0.772-0.067-1.732-0.103-2.88-0.103h-11.572v9.222h20.743
					c-0.044-0.684-0.087-1.384-0.128-2.101C232.27,80.08,232.162,79.199,232.054,78.492z"/>
				<path fill="#095D80" d="M184.063,76.598c0-3.981-0.451-7.04-1.354-9.169c-0.903-2.132-2.109-3.767-3.62-4.908
					c-1.216-0.92-2.617-1.623-4.2-2.11c-1.584-0.487-3.74-0.87-6.465-1.148l-23.651-2.046c-1.953-0.195-3.343-0.349-4.172-0.461
					c-0.829-0.11-1.391-0.277-1.686-0.5c-0.701-0.502-1.05-1.644-1.05-3.426c0-1.866,0.313-3.036,0.939-3.51
					c0.368-0.277,1.878-0.417,4.531-0.417h11.273c1.51,0,2.588,0.042,3.233,0.126c0.644,0.083,1.15,0.264,1.52,0.542
					c0.405,0.307,0.682,0.802,0.829,1.484c0.146,0.682,0.293,1.956,0.441,3.822l22.27,4.177c0-5.346-0.129-8.932-0.387-10.757
					c-0.258-1.823-0.617-3.376-1.078-4.657c-0.461-1.281-1.004-2.354-1.631-3.216c-0.626-0.864-1.363-1.603-2.21-2.214
					c-1.29-0.974-3.021-1.678-5.195-2.11c-2.174-0.432-5.12-0.647-8.841-0.647h-30.447c-3.021,0-5.508,0.257-7.46,0.771
					c-1.954,0.516-3.537,1.233-4.753,2.152c-1.805,1.366-3.28,3.273-4.42,5.724c-1.142,2.451-1.713,5.597-1.713,9.441
					c0,2.032,0.119,3.821,0.359,5.367c0.239,1.546,0.581,2.876,1.023,3.988c0.441,1.114,0.985,2.055,1.63,2.821
					c0.644,0.766,1.354,1.427,2.127,1.983c2.321,1.783,5.894,2.869,10.721,3.259l23.43,2.047c1.583,0.139,2.882,0.292,3.896,0.458
					c1.013,0.169,1.686,0.363,2.017,0.587c0.663,0.5,0.995,1.643,0.995,3.425c0,2.063-0.332,3.343-0.995,3.844
					c-0.552,0.39-2.487,0.585-5.803,0.585h-11.438c-1.658,0-2.865-0.042-3.62-0.127c-0.756-0.083-1.317-0.264-1.686-0.541
					c-0.295-0.224-0.534-0.731-0.718-1.526c-0.185-0.793-0.351-2.304-0.498-4.531l-22.325-3.301c0,4.818,0.091,8.18,0.276,10.088
					c0.042,0.44,0.092,0.862,0.146,1.272h69.122C183.85,81.319,184.063,79.106,184.063,76.598z"/>
				<path fill="#095D80" d="M118.746,92.513c1.437,1.087,3.232,1.831,5.388,2.234c2.155,0.405,5.037,0.606,8.648,0.606h32.714
					c3.168,0,5.737-0.257,7.708-0.771c1.971-0.516,3.546-1.234,4.725-2.151c0.197-0.15,0.39-0.308,0.578-0.471h-60.42
					C118.299,92.156,118.518,92.34,118.746,92.513z"/>
				<path fill="#095D80" d="M182.35,86.582c0.177-0.394,0.338-0.806,0.488-1.236h-68.167c0.119,0.541,0.251,1.053,0.399,1.529
					c0.064,0.207,0.131,0.407,0.2,0.604h66.649C182.068,87.186,182.211,86.888,182.35,86.582z"/>
				<path fill="#095D80" d="M181.008,89.057h-65.082c0.216,0.438,0.446,0.841,0.692,1.201c0.15,0.22,0.307,0.431,0.469,0.633h62.516
					C180.104,90.338,180.573,89.727,181.008,89.057z"/>
				<rect x="188.026" y="85.345" fill="#095D80" width="23.736" height="2.133"/>
				<path fill="#095D80" d="M233.177,90.891h24.257c-0.062-0.576-0.122-1.187-0.181-1.834h-24.288
					C233.029,89.674,233.098,90.286,233.177,90.891z"/>
				<path fill="#095D80" d="M232.65,85.345c0.054,0.732,0.11,1.443,0.167,2.133h24.3c-0.057-0.704-0.111-1.415-0.163-2.133H232.65z"
					/>
				<rect x="188.026" y="91.96" fill="#095D80" width="23.736" height="2.073"/>
				<path fill="#095D80" d="M233.669,94.034h24.167c-0.097-0.614-0.191-1.308-0.282-2.073h-24.226
					C233.433,92.658,233.543,93.352,233.669,94.034z"/>
				<path fill="#095D80" d="M211.762,74.016h11.572c1.148,0,2.108,0.035,2.88,0.103c0.771,0.068,1.417,0.142,1.938,0.224
					c0.52,0.081,0.924,0.189,1.211,0.325c0.287,0.136,0.592,0.284,0.915,0.447c0.287,0.218,0.556,0.455,0.808,0.713
					c0.251,0.257,0.448,0.59,0.592,0.997c0.144,0.406,0.269,0.961,0.377,1.667c0.107,0.707,0.215,1.588,0.323,2.646
					c0.041,0.717,0.084,1.417,0.128,2.101h24.306c-0.078-1.21-0.149-2.438-0.213-3.688c-0.072-2.115-0.403-3.857-0.996-5.228
					c-0.591-1.369-1.418-2.468-2.476-3.295c-1.059-0.829-2.341-1.479-3.848-1.953c-1.508-0.476-3.212-0.875-5.113-1.202v-0.162
					c2.188-0.325,4.107-0.814,5.759-1.464c1.65-0.652,3.032-1.562,4.144-2.728c1.112-1.165,1.938-2.65,2.476-4.455
					c0.539-1.803,0.807-4.061,0.807-6.773c0-2.008-0.107-3.73-0.323-5.168c-0.215-1.438-0.521-2.671-0.915-3.703
					c-0.395-1.031-0.906-1.904-1.534-2.625c-0.628-0.717-1.391-1.416-2.288-2.094c-1.472-1.112-3.364-1.892-5.679-2.341
					c-2.314-0.447-5.409-0.67-9.285-0.67h-49.303v47.549h23.736V74.016z M211.762,48.952h12.756c2.117,0,3.588,0.042,4.414,0.124
					c0.825,0.08,1.417,0.257,1.776,0.528c0.573,0.406,1.013,0.997,1.319,1.77c0.305,0.773,0.458,2.028,0.458,3.764
					c0,1.708-0.153,2.964-0.458,3.764c-0.306,0.801-0.746,1.431-1.319,1.892c-0.359,0.271-0.951,0.448-1.776,0.529
					c-0.825,0.082-2.297,0.122-4.414,0.122h-12.756V48.952z"/>
				<rect x="188.026" y="89.057" fill="#095D80" width="23.736" height="1.834"/>
			</g>
		</g>
	</g>
	<g>
		<path fill="#2E3E3D" d="M307.669,84.844c2.073,1.476,3.11,3.54,3.11,6.189v7.45h-3.11v-7.45c0-1.202-0.379-2.229-1.139-3.079
			c-0.769-0.851-1.694-1.276-2.776-1.276c-1.072,0-1.993,0.426-2.762,1.276c-0.769,0.85-1.153,1.877-1.153,3.079v7.45h-3.095V84.479
			c0.465-0.354,1.097-0.612,1.896-0.772c0.445-0.092,0.779-0.138,1.001-0.138c0.081,0,0.146,0.005,0.197,0.016v1.26
			c1.184-0.851,2.489-1.275,3.915-1.275C305.19,83.569,306.496,83.994,307.669,84.844z"/>
		<path fill="#2E3E3D" d="M325.119,83.584c0.061-0.011,0.127-0.016,0.197-0.016c0.233,0,0.567,0.046,1.002,0.138
			c0.799,0.16,1.431,0.419,1.896,0.772v14.005h-3.096v-1.274c-1.183,0.85-2.488,1.274-3.915,1.274c-1.942,0-3.601-0.727-4.977-2.185
			c-1.366-1.457-2.049-3.212-2.049-5.266c0-2.063,0.683-3.823,2.049-5.279c1.375-1.446,3.034-2.17,4.977-2.17
			c1.426,0,2.731,0.419,3.915,1.26V83.584z M321.204,95.375c1.073,0,1.993-0.426,2.761-1.274c0.769-0.851,1.153-1.872,1.153-3.066
			c0-1.202-0.385-2.229-1.153-3.079c-0.769-0.851-1.688-1.276-2.761-1.276c-1.083,0-2.008,0.426-2.777,1.276
			c-0.759,0.85-1.138,1.877-1.138,3.079c0,1.194,0.379,2.216,1.138,3.066C319.196,94.949,320.122,95.375,321.204,95.375z"/>
		<path fill="#2E3E3D" d="M338.851,97.271c0.091,0.436,0.137,0.772,0.137,1.017c0,0.07-0.005,0.135-0.016,0.196l-0.94-0.016
			c-1.153-0.06-2.083-0.287-2.792-0.682c-0.334-0.191-0.597-0.364-0.789-0.516c-1.548-1.183-2.321-2.742-2.321-4.674V80.732
			c0.789-0.598,1.795-0.896,3.019-0.896h0.091v4.204h3.095v0.075c0,0.981-0.297,1.791-0.895,2.429h-2.2v6.054
			c0,0.719,0.243,1.346,0.729,1.881c0.101,0.081,0.202,0.157,0.304,0.228c0.07,0.051,0.141,0.103,0.212,0.153
			c0.081,0.04,0.146,0.075,0.197,0.105c0.051,0.021,0.101,0.046,0.152,0.075c0.202,0.092,0.4,0.162,0.591,0.213
			c0.062,0.021,0.157,0.041,0.289,0.061c0.08,0.021,0.162,0.036,0.242,0.046h0.031c0.019,0,0.051,0.005,0.091,0.016
			C338.44,95.859,338.699,96.491,338.851,97.271z"/>
		<path fill="#2E3E3D" d="M341.204,80.747c0.465-0.354,1.097-0.612,1.896-0.774c0.465-0.091,0.81-0.137,1.031-0.137
			c0.071,0,0.127,0.006,0.166,0.017v2.958c-0.039-0.01-0.095-0.016-0.166-0.016c-0.222,0-0.566,0.046-1.031,0.137
			c-0.8,0.162-1.432,0.419-1.896,0.775V80.747z M341.204,84.479c0.465-0.354,1.097-0.612,1.896-0.772
			c0.445-0.092,0.778-0.138,1.002-0.138c0.08,0,0.146,0.005,0.195,0.016v14.899h-3.094V84.479z"/>
		<path fill="#2E3E3D" d="M354.268,83.584c1.932,0,3.585,0.724,4.961,2.17c1.366,1.456,2.049,3.216,2.049,5.279
			c0,2.054-0.683,3.809-2.049,5.266c-1.376,1.458-3.029,2.185-4.961,2.185c-1.942,0-3.602-0.727-4.977-2.185
			c-1.367-1.457-2.05-3.212-2.05-5.266c0-2.063,0.683-3.823,2.05-5.279C350.667,84.308,352.326,83.584,354.268,83.584z
			 M354.268,95.375c1.07,0,1.992-0.426,2.762-1.274c0.769-0.851,1.152-1.872,1.152-3.066c0-1.202-0.384-2.229-1.152-3.079
			c-0.77-0.851-1.691-1.276-2.762-1.276c-1.084,0-2.009,0.426-2.777,1.276c-0.759,0.85-1.138,1.877-1.138,3.079
			c0,1.194,0.379,2.216,1.138,3.066C352.259,94.949,353.184,95.375,354.268,95.375z"/>
		<path fill="#2E3E3D" d="M375.602,84.844c2.073,1.476,3.11,3.54,3.11,6.189v7.45h-3.11v-7.45c0-1.202-0.38-2.229-1.14-3.079
			c-0.768-0.851-1.693-1.276-2.775-1.276c-1.072,0-1.993,0.426-2.762,1.276c-0.769,0.85-1.152,1.877-1.152,3.079v7.45h-3.096V84.479
			c0.464-0.354,1.098-0.612,1.896-0.772c0.444-0.092,0.778-0.138,1.002-0.138c0.079,0,0.146,0.005,0.197,0.016v1.26
			c1.183-0.851,2.488-1.275,3.914-1.275C373.123,83.569,374.427,83.994,375.602,84.844z"/>
		<path fill="#2E3E3D" d="M393.052,83.584c0.06-0.011,0.126-0.016,0.196-0.016c0.232,0,0.567,0.046,1.002,0.138
			c0.798,0.16,1.431,0.419,1.896,0.772v14.005h-3.095v-1.274c-1.184,0.85-2.489,1.274-3.915,1.274c-1.942,0-3.602-0.727-4.977-2.185
			c-1.366-1.457-2.05-3.212-2.05-5.266c0-2.063,0.684-3.823,2.05-5.279c1.375-1.446,3.034-2.17,4.977-2.17
			c1.426,0,2.731,0.419,3.915,1.26V83.584z M389.137,95.375c1.072,0,1.993-0.426,2.761-1.274c0.77-0.851,1.154-1.872,1.154-3.066
			c0-1.202-0.385-2.229-1.154-3.079c-0.768-0.851-1.688-1.276-2.761-1.276c-1.083,0-2.01,0.426-2.777,1.276
			c-0.759,0.85-1.138,1.877-1.138,3.079c0,1.194,0.379,2.216,1.138,3.066C387.127,94.949,388.054,95.375,389.137,95.375z"/>
		<path fill="#2E3E3D" d="M403.234,98.484h-3.111V77.651c0.466-0.363,1.098-0.622,1.896-0.773c0.466-0.101,0.819-0.151,1.062-0.151
			c0.062,0,0.112,0.005,0.153,0.015V98.484z"/>
		<path fill="#2E3E3D" d="M423.111,90.534c1.133,0.638,1.906,1.422,2.321,2.353c0.191,0.425,0.288,0.799,0.288,1.123v0.272
			c0,1.193-0.561,2.189-1.685,2.989c-0.586,0.425-1.178,0.724-1.774,0.895c-0.738,0.213-1.446,0.318-2.124,0.318h-0.016
			c-0.082,0-0.202-0.005-0.364-0.016c-2.165-0.079-3.778-0.873-4.84-2.38c-0.284-0.406-0.426-0.664-0.426-0.775
			c0.131-0.101,0.289-0.208,0.47-0.319c0.8-0.494,1.58-0.763,2.338-0.803c0.021,0.071,0.056,0.157,0.107,0.257
			c0,0.011,0.004,0.021,0.014,0.03c0.01,0.021,0.021,0.035,0.031,0.046c0.434,0.708,1.295,1.063,2.579,1.063h0.196
			c0.699-0.01,1.255-0.207,1.67-0.593c0.253-0.303,0.38-0.592,0.38-0.864c0-0.545-0.486-1.011-1.458-1.396
			c-0.484-0.202-0.965-0.343-1.44-0.425c-0.951-0.201-1.695-0.464-2.231-0.788c-1.132-0.638-1.905-1.421-2.32-2.353
			c-0.193-0.425-0.29-0.793-0.29-1.107v-0.272c0-1.193,0.558-2.195,1.67-3.005c0.587-0.424,1.184-0.719,1.791-0.881
			c0.738-0.222,1.446-0.333,2.124-0.333c0.091,0,0.213,0.005,0.364,0.016c2.175,0.08,3.783,0.87,4.825,2.367
			c0.142,0.191,0.257,0.379,0.349,0.562c0.081,0.172,0.115,0.248,0.107,0.227c-0.194,0.142-0.351,0.248-0.472,0.319
			c-0.799,0.495-1.584,0.763-2.352,0.805c-0.011-0.071-0.04-0.152-0.091-0.243c-0.011-0.021-0.025-0.045-0.046-0.077
			c-0.444-0.706-1.306-1.062-2.58-1.062h-0.166c-0.709,0-1.274,0.196-1.7,0.592c-0.253,0.304-0.379,0.588-0.379,0.851
			c0,0.546,0.48,1.016,1.442,1.41c0.484,0.192,0.97,0.335,1.456,0.425C421.831,89.961,422.575,90.22,423.111,90.534z"/>
		<path fill="#2E3E3D" d="M441.971,91.034c0,0.405-0.029,0.82-0.091,1.245h-10.683c0.243,0.899,0.704,1.634,1.382,2.199
			c0.688,0.577,1.477,0.876,2.365,0.896c0.213,0.02,0.417,0.03,0.608,0.03c0.456,0,0.855-0.051,1.199-0.152
			c0.273-0.08,0.586-0.207,0.939-0.379c1.073,0.394,1.883,1.104,2.429,2.124l-0.167,0.122l-0.046,0.03l-0.484,0.303
			c-0.031,0.021-0.067,0.041-0.106,0.062c-0.092,0.06-0.208,0.127-0.35,0.197c-0.06,0.03-0.106,0.056-0.136,0.075
			c-0.021,0.01-0.092,0.041-0.213,0.093c-0.092,0.039-0.233,0.095-0.426,0.164c-0.09,0.042-0.192,0.076-0.303,0.107
			c-0.091,0.03-0.217,0.066-0.379,0.105c-0.072,0.022-0.127,0.037-0.167,0.047l-0.061,0.014c-0.051,0.011-0.097,0.021-0.138,0.03
			c-0.04,0.011-0.064,0.016-0.075,0.016c-0.04,0.01-0.091,0.021-0.151,0.03c-0.072,0.011-0.127,0.016-0.167,0.016
			c-0.111,0.02-0.238,0.035-0.379,0.046c-0.133,0.011-0.238,0.02-0.319,0.029h-1.109c-2.396,0-4.293-1.036-5.689-3.109
			c-0.638-0.932-1.046-1.963-1.228-3.096c-0.061-0.425-0.092-0.84-0.092-1.245c0-0.402,0.031-0.818,0.092-1.243
			c0.282-1.771,1.07-3.247,2.366-4.431c1.314-1.184,2.832-1.775,4.551-1.775c0.426,0,0.855,0.039,1.291,0.122
			c1.446,0.282,2.686,0.981,3.718,2.094c1.043,1.122,1.686,2.453,1.927,3.99C441.942,90.215,441.971,90.631,441.971,91.034z
			 M438.708,89.791c-0.414-1.559-1.329-2.545-2.746-2.96c-0.324-0.101-0.661-0.152-1.018-0.152c-0.868,0-1.653,0.295-2.351,0.882
			c-0.688,0.577-1.153,1.319-1.396,2.23H438.708z"/>
		<path fill="#2E3E3D" d="M453.002,83.569c0.01,0.061,0.016,0.132,0.016,0.213c0,0.232-0.046,0.571-0.136,1.016
			c-0.152,0.779-0.41,1.406-0.775,1.881c-0.04,0.012-0.069,0.016-0.091,0.016c-0.011,0.012-0.02,0.017-0.029,0.017
			c-0.082,0-0.162,0.01-0.244,0.029c-0.13,0.03-0.228,0.052-0.288,0.061c-0.192,0.062-0.389,0.138-0.59,0.228
			c-0.052,0.021-0.104,0.046-0.154,0.076c-0.061,0.031-0.126,0.065-0.196,0.106c-0.071,0.041-0.142,0.086-0.212,0.138
			c-0.102,0.07-0.202,0.146-0.304,0.228c-0.071,0.061-0.142,0.126-0.212,0.196c-0.072,0.081-0.143,0.162-0.213,0.243
			c-0.082,0.081-0.152,0.162-0.213,0.242c-0.051,0.082-0.085,0.137-0.105,0.168c-0.041,0.051-0.076,0.104-0.105,0.166
			c-0.104,0.151-0.198,0.334-0.29,0.546c-0.04,0.092-0.076,0.183-0.105,0.272c-0.04,0.111-0.081,0.238-0.122,0.381
			c-0.02,0.092-0.04,0.182-0.061,0.272v0.031c-0.041,0.151-0.066,0.313-0.075,0.485v0.014c-0.011,0.062-0.015,0.116-0.015,0.167
			c-0.012,0.111-0.017,0.198-0.017,0.259v7.465h-3.095V84.479c0.464-0.364,1.098-0.621,1.896-0.772
			c0.465-0.102,0.814-0.152,1.047-0.152c0.061,0,0.111,0.005,0.151,0.015v1.275c0.233-0.161,0.455-0.305,0.668-0.424
			c0.151-0.082,0.303-0.159,0.455-0.229c0.244-0.111,0.479-0.207,0.714-0.289c0.111-0.029,0.278-0.075,0.501-0.136
			c0.029-0.01,0.075-0.021,0.137-0.03c0.05-0.011,0.09-0.021,0.12-0.029c0.152-0.032,0.329-0.057,0.531-0.077
			c0.273-0.041,0.537-0.061,0.789-0.061H453.002z"/>
		<path fill="#2E3E3D" d="M467.252,83.584l-0.122,0.35l-5.084,14.186l-0.045,0.122l-0.046,0.091
			c-0.061,0.021-0.147,0.04-0.258,0.061c-0.232,0.04-0.511,0.072-0.835,0.091h-0.939c-0.324-0.019-0.603-0.051-0.836-0.091
			c-0.07-0.01-0.161-0.03-0.272-0.061l-0.031-0.076l-0.044-0.137l-5.084-14.186l-0.121-0.365h3.292l3.566,9.954l3.565-9.954
			L467.252,83.584z"/>
		<path fill="#2E3E3D" d="M468.951,80.747c0.465-0.354,1.098-0.612,1.896-0.774c0.467-0.091,0.811-0.137,1.032-0.137
			c0.071,0,0.127,0.006,0.167,0.017v2.958c-0.04-0.01-0.096-0.016-0.167-0.016c-0.222,0-0.565,0.046-1.032,0.137
			c-0.798,0.162-1.431,0.419-1.896,0.775V80.747z M468.951,84.479c0.465-0.354,1.098-0.612,1.896-0.772
			c0.446-0.092,0.779-0.138,1.002-0.138c0.081,0,0.147,0.005,0.197,0.016v14.899h-3.095V84.479z"/>
		<path fill="#2E3E3D" d="M477.948,97.12c0-0.011-0.075-0.077-0.227-0.199c-0.03-0.019-0.051-0.033-0.062-0.044
			c-0.071-0.051-0.142-0.111-0.212-0.183c-0.243-0.223-0.462-0.443-0.652-0.667c-0.052-0.061-0.117-0.146-0.197-0.258
			c-0.061-0.07-0.116-0.142-0.168-0.213c-0.151-0.213-0.293-0.435-0.424-0.668c-0.042-0.062-0.082-0.132-0.122-0.213
			c-0.131-0.242-0.247-0.489-0.349-0.742c-0.02-0.071-0.046-0.142-0.076-0.212c-0.142-0.375-0.248-0.771-0.318-1.186
			c-0.021-0.11-0.036-0.176-0.046-0.197c-0.03-0.2-0.055-0.383-0.075-0.545c-0.021-0.263-0.03-0.517-0.03-0.76
			c0-0.242,0.01-0.495,0.03-0.759c0.021-0.161,0.045-0.343,0.075-0.546c0.01-0.03,0.024-0.096,0.046-0.197
			c0.07-0.385,0.177-0.778,0.318-1.184c0.03-0.08,0.057-0.151,0.076-0.211c0.11-0.273,0.228-0.521,0.349-0.745
			c0.04-0.08,0.08-0.156,0.122-0.228c0.12-0.213,0.264-0.435,0.424-0.666c0.052-0.071,0.107-0.143,0.168-0.213
			c0.08-0.111,0.146-0.193,0.197-0.244c0.08-0.101,0.187-0.217,0.318-0.349c0.051-0.051,0.102-0.101,0.151-0.151
			c0.081-0.092,0.142-0.152,0.183-0.182c0.07-0.062,0.141-0.118,0.212-0.168c0.021-0.029,0.04-0.051,0.062-0.061
			c0.121-0.102,0.197-0.16,0.227-0.182c0.092-0.07,0.182-0.138,0.273-0.198c0.021-0.009,0.112-0.068,0.272-0.18h0.017
			c0.06-0.042,0.156-0.097,0.288-0.168c0.06-0.04,0.162-0.091,0.303-0.151c0.051-0.031,0.151-0.076,0.304-0.138
			c0.132-0.061,0.237-0.105,0.318-0.137c0.313-0.111,0.637-0.202,0.972-0.271c0.081-0.011,0.197-0.032,0.349-0.062
			c0.102-0.011,0.208-0.021,0.319-0.03l0.075-0.016h0.138c0.069-0.011,0.121-0.015,0.151-0.015c0.06-0.011,0.151-0.016,0.272-0.016
			c0.142,0,0.279,0.005,0.409,0.016c0.083,0.01,0.193,0.021,0.334,0.03c0.061,0.009,0.146,0.02,0.259,0.03
			c0.101,0.02,0.182,0.035,0.242,0.045c0.102,0.021,0.219,0.046,0.35,0.076c0.061,0.01,0.166,0.041,0.317,0.092
			c0.112,0.029,0.259,0.08,0.44,0.151c0.112,0.03,0.229,0.076,0.35,0.137c0.152,0.07,0.268,0.126,0.349,0.167
			c0.122,0.061,0.233,0.121,0.334,0.183c0.091,0.05,0.202,0.12,0.333,0.211c0.103,0.071,0.209,0.144,0.32,0.213
			c0.11,0.081,0.213,0.162,0.303,0.243c0.111,0.09,0.191,0.162,0.242,0.212c0.092,0.091,0.203,0.197,0.335,0.318
			c0.09,0.102,0.177,0.197,0.257,0.288c0.092,0.102,0.172,0.204,0.244,0.305l0.06,0.061l0.015,0.046l0.335,0.47l0.03,0.044
			l0.121,0.168l-0.015,0.016c-0.841,0.688-1.791,1.031-2.854,1.031h-0.196l-0.061-0.075l-0.016-0.016
			c-0.031-0.029-0.076-0.08-0.137-0.151c-0.04-0.051-0.086-0.097-0.137-0.137c-0.051-0.05-0.101-0.097-0.151-0.137
			c-0.051-0.051-0.102-0.097-0.151-0.137c-0.426-0.333-0.906-0.566-1.442-0.698c-0.041-0.009-0.106-0.024-0.197-0.045l-0.197-0.015
			c-0.04-0.01-0.095-0.017-0.167-0.017c-0.111-0.009-0.197-0.016-0.258-0.016c-0.667,0-1.285,0.178-1.851,0.532
			c-0.172,0.102-0.334,0.213-0.486,0.333c-0.081,0.072-0.177,0.162-0.288,0.274c-0.849,0.859-1.274,1.932-1.274,3.216
			c0,1.194,0.379,2.216,1.138,3.066c0.769,0.849,1.689,1.274,2.762,1.274c0.403,0,0.794-0.067,1.168-0.197
			c0.04-0.011,0.102-0.03,0.184-0.062c0.252-0.101,0.48-0.223,0.682-0.364c0.051-0.03,0.102-0.065,0.152-0.105
			c0.242-0.183,0.459-0.384,0.652-0.607c0-0.01,0.025-0.045,0.076-0.105h0.196c1.063,0,2.013,0.349,2.854,1.047h0.015l-0.121,0.167
			c0,0.009-0.011,0.025-0.03,0.045l-0.335,0.486c-0.019,0.029-0.045,0.061-0.074,0.091c-0.072,0.101-0.152,0.202-0.244,0.303
			c-0.051,0.06-0.136,0.157-0.257,0.289c-0.102,0.101-0.213,0.206-0.335,0.318c-0.051,0.05-0.131,0.122-0.242,0.212
			c-0.09,0.08-0.192,0.162-0.303,0.242c-0.103,0.082-0.209,0.157-0.32,0.229c-0.162,0.101-0.271,0.166-0.333,0.195
			c-0.101,0.072-0.212,0.133-0.334,0.184c-0.202,0.111-0.435,0.217-0.698,0.317c-0.222,0.083-0.44,0.151-0.652,0.212
			c-0.091,0.022-0.182,0.041-0.272,0.062h-0.015c-0.082,0.021-0.178,0.04-0.288,0.061c-0.051,0.011-0.092,0.016-0.122,0.016
			c-0.112,0.02-0.198,0.03-0.259,0.03c-0.141,0.021-0.251,0.029-0.334,0.029c-0.13,0.011-0.268,0.016-0.409,0.016
			c-0.121,0-0.213-0.005-0.272-0.016c-0.132,0-0.233-0.003-0.304-0.014h-0.061c-0.111-0.011-0.218-0.026-0.319-0.046
			c-0.081-0.011-0.178-0.025-0.288-0.046c-0.142-0.02-0.273-0.051-0.396-0.092l-0.318-0.09c-0.132-0.039-0.237-0.076-0.318-0.106
			c-0.111-0.039-0.212-0.08-0.303-0.12h-0.03c-0.092-0.04-0.183-0.081-0.272-0.122c-0.122-0.061-0.238-0.126-0.351-0.197
			c-0.01,0-0.096-0.045-0.257-0.137c0-0.01-0.006-0.016-0.017-0.016c-0.101-0.061-0.176-0.111-0.228-0.151
			C478.226,97.312,478.12,97.241,477.948,97.12z"/>
		<path fill="#2E3E3D" d="M504.032,91.034c0,0.405-0.03,0.82-0.09,1.245h-10.684c0.243,0.899,0.704,1.634,1.382,2.199
			c0.688,0.577,1.477,0.876,2.367,0.896c0.212,0.02,0.414,0.03,0.606,0.03c0.455,0,0.855-0.051,1.198-0.152
			c0.273-0.08,0.586-0.207,0.941-0.379c1.072,0.394,1.882,1.104,2.427,2.124l-0.166,0.122l-0.045,0.03l-0.486,0.303
			c-0.029,0.021-0.065,0.041-0.106,0.062c-0.09,0.06-0.207,0.127-0.349,0.197c-0.061,0.03-0.106,0.056-0.137,0.075
			c-0.021,0.01-0.091,0.041-0.213,0.093c-0.091,0.039-0.232,0.095-0.424,0.164c-0.092,0.042-0.192,0.076-0.305,0.107
			c-0.09,0.03-0.217,0.066-0.378,0.105c-0.072,0.022-0.128,0.037-0.168,0.047l-0.061,0.014c-0.051,0.011-0.096,0.021-0.137,0.03
			c-0.04,0.011-0.065,0.016-0.076,0.016c-0.04,0.01-0.091,0.021-0.151,0.03c-0.07,0.011-0.126,0.016-0.167,0.016
			c-0.111,0.02-0.237,0.035-0.379,0.046c-0.131,0.011-0.237,0.02-0.318,0.029h-1.107c-2.397,0-4.295-1.036-5.691-3.109
			c-0.636-0.932-1.046-1.963-1.228-3.096c-0.062-0.425-0.091-0.84-0.091-1.245c0-0.402,0.029-0.818,0.091-1.243
			c0.282-1.771,1.072-3.247,2.366-4.431c1.315-1.184,2.832-1.775,4.553-1.775c0.425,0,0.854,0.039,1.289,0.122
			c1.447,0.282,2.686,0.981,3.718,2.094c1.042,1.122,1.685,2.453,1.928,3.99C504.001,90.215,504.032,90.631,504.032,91.034z
			 M500.77,89.791c-0.415-1.559-1.33-2.545-2.747-2.96c-0.323-0.101-0.662-0.152-1.016-0.152c-0.87,0-1.653,0.295-2.353,0.882
			c-0.688,0.577-1.153,1.319-1.396,2.23H500.77z"/>
		<path fill="#2E3E3D" d="M523.348,83.569c0.009,0.061,0.015,0.132,0.015,0.213c0,0.232-0.045,0.571-0.137,1.016
			c-0.151,0.779-0.408,1.406-0.773,1.881c-0.04,0.012-0.07,0.016-0.091,0.016c-0.011,0.012-0.021,0.017-0.03,0.017
			c-0.081,0-0.162,0.01-0.243,0.029c-0.131,0.03-0.228,0.052-0.288,0.061c-0.192,0.062-0.39,0.138-0.592,0.228
			c-0.051,0.021-0.102,0.046-0.152,0.076c-0.061,0.031-0.126,0.065-0.197,0.106c-0.07,0.041-0.141,0.086-0.211,0.138
			c-0.102,0.07-0.202,0.146-0.304,0.228c-0.071,0.061-0.143,0.126-0.212,0.196c-0.072,0.081-0.144,0.162-0.213,0.243
			c-0.082,0.081-0.152,0.162-0.213,0.242c-0.051,0.082-0.087,0.137-0.105,0.168c-0.042,0.051-0.076,0.104-0.107,0.166
			c-0.102,0.151-0.197,0.334-0.288,0.546c-0.04,0.092-0.076,0.183-0.105,0.272c-0.04,0.111-0.082,0.238-0.122,0.381
			c-0.021,0.092-0.04,0.182-0.062,0.272v0.031c-0.04,0.151-0.065,0.313-0.075,0.485v0.014c-0.011,0.062-0.016,0.116-0.016,0.167
			c-0.01,0.111-0.015,0.198-0.015,0.259v7.465h-3.096V84.479c0.465-0.364,1.099-0.621,1.897-0.772
			c0.465-0.102,0.813-0.152,1.047-0.152c0.061,0,0.11,0.005,0.151,0.015v1.275c0.232-0.161,0.455-0.305,0.668-0.424
			c0.151-0.082,0.303-0.159,0.454-0.229c0.243-0.111,0.48-0.207,0.715-0.289c0.11-0.029,0.278-0.075,0.5-0.136
			c0.03-0.01,0.075-0.021,0.136-0.03c0.051-0.011,0.092-0.021,0.122-0.029c0.152-0.032,0.329-0.057,0.531-0.077
			c0.273-0.041,0.536-0.061,0.788-0.061H523.348z"/>
		<path fill="#2E3E3D" d="M539.16,91.034c0,0.405-0.03,0.82-0.092,1.245h-10.682c0.242,0.899,0.703,1.634,1.381,2.199
			c0.688,0.577,1.477,0.876,2.366,0.896c0.213,0.02,0.415,0.03,0.607,0.03c0.456,0,0.856-0.051,1.199-0.152
			c0.272-0.08,0.586-0.207,0.94-0.379c1.072,0.394,1.881,1.104,2.428,2.124l-0.167,0.122l-0.046,0.03l-0.485,0.303
			c-0.03,0.021-0.065,0.041-0.106,0.062c-0.091,0.06-0.207,0.127-0.348,0.197c-0.062,0.03-0.107,0.056-0.138,0.075
			c-0.02,0.01-0.092,0.041-0.212,0.093c-0.091,0.039-0.233,0.095-0.426,0.164c-0.09,0.042-0.191,0.076-0.303,0.107
			c-0.091,0.03-0.217,0.066-0.379,0.105c-0.072,0.022-0.127,0.037-0.167,0.047l-0.062,0.014c-0.05,0.011-0.096,0.021-0.136,0.03
			c-0.04,0.011-0.066,0.016-0.076,0.016c-0.04,0.01-0.091,0.021-0.151,0.03c-0.072,0.011-0.127,0.016-0.167,0.016
			c-0.111,0.02-0.237,0.035-0.38,0.046c-0.131,0.011-0.237,0.02-0.319,0.029h-1.107c-2.397,0-4.293-1.036-5.689-3.109
			c-0.638-0.932-1.047-1.963-1.229-3.096c-0.061-0.425-0.093-0.84-0.093-1.245c0-0.402,0.032-0.818,0.093-1.243
			c0.282-1.771,1.071-3.247,2.366-4.431c1.314-1.184,2.833-1.775,4.552-1.775c0.426,0,0.855,0.039,1.291,0.122
			c1.445,0.282,2.686,0.981,3.717,2.094c1.043,1.122,1.684,2.453,1.927,3.99C539.129,90.215,539.16,90.631,539.16,91.034z
			 M535.897,89.791c-0.415-1.559-1.33-2.545-2.746-2.96c-0.324-0.101-0.663-0.152-1.018-0.152c-0.87,0-1.653,0.295-2.351,0.882
			c-0.689,0.577-1.154,1.319-1.396,2.23H535.897z"/>
		<path fill="#2E3E3D" d="M552.77,83.584c0.04-0.011,0.091-0.016,0.151-0.016c0.233,0,0.581,0.051,1.047,0.152
			c0.801,0.151,1.433,0.41,1.897,0.774v12.76c0,0.405-0.03,0.819-0.091,1.245c-0.183,1.122-0.592,2.154-1.229,3.096
			c-0.484,0.728-1.078,1.34-1.775,1.835c-1.173,0.85-2.479,1.274-3.915,1.274h-3.99c-0.01-0.051-0.016-0.116-0.016-0.197
			c0-0.243,0.051-0.586,0.151-1.031c0.143-0.778,0.395-1.407,0.759-1.881h3.096c0.87,0,1.653-0.294,2.352-0.881
			c0.688-0.567,1.154-1.305,1.396-2.215c0.111-0.415,0.167-0.83,0.167-1.245v-0.046c-0.011,0-0.016,0.011-0.016,0.031l-0.015,0.061
			c-0.01,0-0.016-0.015-0.016-0.046c-1.163,0.819-2.453,1.229-3.869,1.229c-1.406,0-2.701-0.409-3.885-1.229
			c-1.011-0.708-1.801-1.643-2.367-2.808c-0.516-1.062-0.773-2.199-0.773-3.414c0-2.054,0.683-3.808,2.049-5.266
			c1.376-1.455,3.034-2.184,4.977-2.184c1.427,0,2.731,0.425,3.915,1.273V83.584z M551.268,94.463
			c0.829-0.717,1.314-1.654,1.456-2.806c0.03-0.203,0.046-0.411,0.046-0.624c0-1.192-0.385-2.216-1.154-3.064
			c-0.769-0.851-1.688-1.275-2.761-1.275c-1.083,0-2.008,0.425-2.776,1.275c-0.759,0.849-1.138,1.872-1.138,3.064
			c0,0.213,0.009,0.421,0.029,0.624c0.152,1.142,0.638,2.078,1.457,2.806c0.708,0.617,1.518,0.926,2.428,0.926
			C549.755,95.389,550.559,95.081,551.268,94.463z"/>
		<path fill="#2E3E3D" d="M559.538,80.747c0.465-0.354,1.097-0.612,1.896-0.774c0.466-0.091,0.81-0.137,1.032-0.137
			c0.07,0,0.127,0.006,0.167,0.017v2.958c-0.04-0.01-0.097-0.016-0.167-0.016c-0.223,0-0.566,0.046-1.032,0.137
			c-0.8,0.162-1.432,0.419-1.896,0.775V80.747z M559.538,84.479c0.465-0.354,1.097-0.612,1.896-0.772
			c0.445-0.092,0.778-0.138,1.002-0.138c0.081,0,0.146,0.005,0.197,0.016v14.899h-3.096V84.479z"/>
		<path fill="#2E3E3D" d="M573.709,90.534c1.133,0.638,1.907,1.422,2.321,2.353c0.191,0.425,0.289,0.799,0.289,1.123v0.272
			c0,1.193-0.563,2.189-1.685,2.989c-0.587,0.425-1.179,0.724-1.776,0.895c-0.737,0.213-1.446,0.318-2.123,0.318h-0.015
			c-0.081,0-0.203-0.005-0.364-0.016c-2.166-0.079-3.779-0.873-4.841-2.38c-0.284-0.406-0.425-0.664-0.425-0.775
			c0.131-0.101,0.288-0.208,0.47-0.319c0.799-0.494,1.578-0.763,2.338-0.803c0.019,0.071,0.055,0.157,0.105,0.257
			c0,0.011,0.005,0.021,0.015,0.03c0.01,0.021,0.021,0.035,0.031,0.046c0.435,0.708,1.294,1.063,2.579,1.063h0.197
			c0.697-0.01,1.254-0.207,1.669-0.593c0.253-0.303,0.38-0.592,0.38-0.864c0-0.545-0.486-1.011-1.457-1.396
			c-0.486-0.202-0.967-0.343-1.441-0.425c-0.951-0.201-1.694-0.464-2.23-0.788c-1.134-0.638-1.907-1.421-2.322-2.353
			c-0.192-0.425-0.289-0.793-0.289-1.107v-0.272c0-1.193,0.557-2.195,1.67-3.005c0.586-0.424,1.185-0.719,1.791-0.881
			c0.737-0.222,1.447-0.333,2.125-0.333c0.09,0,0.211,0.005,0.363,0.016c2.175,0.08,3.784,0.87,4.826,2.367
			c0.141,0.191,0.257,0.379,0.349,0.562c0.079,0.172,0.116,0.248,0.105,0.227c-0.192,0.142-0.349,0.248-0.47,0.319
			c-0.8,0.495-1.584,0.763-2.353,0.805c-0.009-0.071-0.041-0.152-0.092-0.243c-0.01-0.021-0.024-0.045-0.044-0.077
			c-0.445-0.706-1.306-1.062-2.58-1.062h-0.167c-0.708,0-1.274,0.196-1.699,0.592c-0.253,0.304-0.379,0.588-0.379,0.851
			c0,0.546,0.479,1.016,1.44,1.41c0.486,0.192,0.972,0.335,1.457,0.425C572.429,89.961,573.172,90.22,573.709,90.534z"/>
		<path fill="#2E3E3D" d="M585.985,97.271c0.093,0.436,0.137,0.772,0.137,1.017c0,0.07-0.004,0.135-0.015,0.196l-0.94-0.016
			c-1.153-0.06-2.084-0.287-2.792-0.682c-0.334-0.191-0.598-0.364-0.79-0.516c-1.548-1.183-2.32-2.742-2.32-4.674V80.732
			c0.788-0.598,1.794-0.896,3.02-0.896h0.091v4.204h3.095v0.075c0,0.981-0.299,1.791-0.895,2.429h-2.2v6.054
			c0,0.719,0.242,1.346,0.729,1.881c0.1,0.081,0.201,0.157,0.303,0.228c0.07,0.051,0.143,0.103,0.213,0.153
			c0.081,0.04,0.146,0.075,0.197,0.105c0.05,0.021,0.101,0.046,0.151,0.075c0.202,0.092,0.4,0.162,0.592,0.213
			c0.061,0.021,0.156,0.041,0.289,0.061c0.081,0.021,0.162,0.036,0.242,0.046h0.03c0.02,0,0.05,0.005,0.092,0.016
			C585.576,95.859,585.833,96.491,585.985,97.271z"/>
		<path fill="#2E3E3D" d="M596.425,83.569c0.01,0.061,0.015,0.132,0.015,0.213c0,0.232-0.045,0.571-0.137,1.016
			c-0.151,0.779-0.408,1.406-0.773,1.881c-0.04,0.012-0.07,0.016-0.091,0.016c-0.011,0.012-0.021,0.017-0.03,0.017
			c-0.081,0-0.162,0.01-0.243,0.029c-0.132,0.03-0.228,0.052-0.288,0.061c-0.193,0.062-0.39,0.138-0.592,0.228
			c-0.05,0.021-0.101,0.046-0.152,0.076c-0.06,0.031-0.126,0.065-0.197,0.106s-0.141,0.086-0.211,0.138
			c-0.102,0.07-0.202,0.146-0.305,0.228c-0.07,0.061-0.142,0.126-0.213,0.196c-0.07,0.081-0.142,0.162-0.211,0.243
			c-0.082,0.081-0.152,0.162-0.213,0.242c-0.052,0.082-0.087,0.137-0.106,0.168c-0.041,0.051-0.076,0.104-0.105,0.166
			c-0.103,0.151-0.199,0.334-0.289,0.546c-0.04,0.092-0.076,0.183-0.107,0.272c-0.04,0.111-0.08,0.238-0.12,0.381
			c-0.021,0.092-0.04,0.182-0.062,0.272v0.031c-0.04,0.151-0.064,0.313-0.075,0.485v0.014c-0.011,0.062-0.016,0.116-0.016,0.167
			c-0.01,0.111-0.015,0.198-0.015,0.259v7.465h-3.096V84.479c0.465-0.364,1.098-0.621,1.897-0.772
			c0.464-0.102,0.813-0.152,1.047-0.152c0.061,0,0.11,0.005,0.151,0.015v1.275c0.232-0.161,0.455-0.305,0.668-0.424
			c0.151-0.082,0.303-0.159,0.454-0.229c0.243-0.111,0.48-0.207,0.715-0.289c0.11-0.029,0.276-0.075,0.5-0.136
			c0.03-0.01,0.075-0.021,0.136-0.03c0.051-0.011,0.092-0.021,0.122-0.029c0.151-0.032,0.329-0.057,0.531-0.077
			c0.273-0.041,0.535-0.061,0.788-0.061H596.425z"/>
		<path fill="#2E3E3D" d="M609.14,83.584c0.061-0.011,0.127-0.016,0.197-0.016c0.232,0,0.565,0.046,1.002,0.138
			c0.799,0.16,1.43,0.419,1.896,0.772v14.005h-3.096v-1.274c-1.183,0.85-2.488,1.274-3.914,1.274c-1.942,0-3.602-0.727-4.978-2.185
			c-1.365-1.457-2.048-3.212-2.048-5.266c0-2.063,0.683-3.823,2.048-5.279c1.376-1.446,3.035-2.17,4.978-2.17
			c1.426,0,2.731,0.419,3.914,1.26V83.584z M605.226,95.375c1.072,0,1.991-0.426,2.761-1.274c0.77-0.851,1.153-1.872,1.153-3.066
			c0-1.202-0.384-2.229-1.153-3.079c-0.77-0.851-1.688-1.276-2.761-1.276c-1.083,0-2.008,0.426-2.777,1.276
			c-0.758,0.85-1.138,1.877-1.138,3.079c0,1.194,0.38,2.216,1.138,3.066C603.218,94.949,604.143,95.375,605.226,95.375z"/>
		<path fill="#2E3E3D" d="M622.873,97.271c0.092,0.436,0.138,0.772,0.138,1.017c0,0.07-0.006,0.135-0.017,0.196l-0.939-0.016
			c-1.154-0.06-2.086-0.287-2.793-0.682c-0.333-0.191-0.596-0.364-0.789-0.516c-1.547-1.183-2.321-2.742-2.321-4.674V80.732
			c0.789-0.598,1.795-0.896,3.019-0.896h0.092v4.204h3.096v0.075c0,0.981-0.298,1.791-0.895,2.429h-2.201v6.054
			c0,0.719,0.242,1.346,0.729,1.881c0.101,0.081,0.202,0.157,0.303,0.228c0.07,0.051,0.142,0.103,0.213,0.153
			c0.081,0.04,0.146,0.075,0.197,0.105c0.05,0.021,0.101,0.046,0.151,0.075c0.203,0.092,0.4,0.162,0.592,0.213
			c0.061,0.021,0.157,0.041,0.289,0.061c0.081,0.021,0.162,0.036,0.243,0.046h0.029c0.021,0,0.052,0.005,0.092,0.016
			C622.462,95.859,622.721,96.491,622.873,97.271z"/>
		<path fill="#2E3E3D" d="M625.224,80.747c0.466-0.354,1.098-0.612,1.897-0.774c0.466-0.091,0.809-0.137,1.032-0.137
			c0.07,0,0.126,0.006,0.166,0.017v2.958c-0.04-0.01-0.096-0.016-0.166-0.016c-0.224,0-0.566,0.046-1.032,0.137
			c-0.8,0.162-1.432,0.419-1.897,0.775V80.747z M625.224,84.479c0.466-0.354,1.098-0.612,1.897-0.772
			c0.444-0.092,0.778-0.138,1.001-0.138c0.082,0,0.147,0.005,0.197,0.016v14.899h-3.096V84.479z"/>
		<path fill="#2E3E3D" d="M638.289,83.584c1.933,0,3.586,0.724,4.962,2.17c1.366,1.456,2.049,3.216,2.049,5.279
			c0,2.054-0.683,3.809-2.049,5.266c-1.376,1.458-3.029,2.185-4.962,2.185c-1.941,0-3.601-0.727-4.977-2.185
			c-1.365-1.457-2.048-3.212-2.048-5.266c0-2.063,0.683-3.823,2.048-5.279C634.688,84.308,636.347,83.584,638.289,83.584z
			 M638.289,95.375c1.072,0,1.993-0.426,2.762-1.274c0.769-0.851,1.154-1.872,1.154-3.066c0-1.202-0.386-2.229-1.154-3.079
			c-0.769-0.851-1.689-1.276-2.762-1.276c-1.082,0-2.009,0.426-2.775,1.276c-0.76,0.85-1.14,1.877-1.14,3.079
			c0,1.194,0.38,2.216,1.14,3.066C636.28,94.949,637.207,95.375,638.289,95.375z"/>
		<path fill="#2E3E3D" d="M659.623,84.844c2.074,1.476,3.111,3.54,3.111,6.189v7.45h-3.111v-7.45c0-1.202-0.379-2.229-1.138-3.079
			c-0.769-0.851-1.694-1.276-2.777-1.276c-1.072,0-1.992,0.426-2.761,1.276c-0.769,0.85-1.152,1.877-1.152,3.079v7.45h-3.096V84.479
			c0.465-0.354,1.098-0.612,1.896-0.772c0.445-0.092,0.779-0.138,1.001-0.138c0.081,0,0.147,0.005,0.198,0.016v1.26
			c1.184-0.851,2.488-1.275,3.913-1.275C657.145,83.569,658.45,83.994,659.623,84.844z"/>
	</g>
</g>
<g>
</g>
<g>
</g>
<g>
</g>
<g>
</g>
<g>
</g>
<g>
</g>
</svg>
