<?xml version="1.0" encoding="utf-8"?>
<!-- Generator: Adobe Illustrator 16.0.0, SVG Export Plug-In . SVG Version: 6.00 Build 0)  -->
<!DOCTYPE svg PUBLIC "-//W3C//DTD SVG 1.1//EN" "http://www.w3.org/Graphics/SVG/1.1/DTD/svg11.dtd" [
	<!ENTITY ns_flows "http://ns.adobe.com/Flows/1.0/">
	<!ENTITY ns_extend "http://ns.adobe.com/Extensibility/1.0/">
	<!ENTITY ns_ai "http://ns.adobe.com/AdobeIllustrator/10.0/">
	<!ENTITY ns_graphs "http://ns.adobe.com/Graphs/1.0/">
]>
<svg version="1.1" id="Layer_1" xmlns:x="&ns_extend;" xmlns:i="&ns_ai;" xmlns:graph="&ns_graphs;"
	 xmlns="http://www.w3.org/2000/svg" xmlns:xlink="http://www.w3.org/1999/xlink" xmlns:a="http://ns.adobe.com/AdobeSVGViewerExtensions/3.0/"
	 x="0px" y="0px" width="506px" height="228px" viewBox="0 0 506 228" enable-background="new 0 0 506 228" xml:space="preserve">
<g>
	<g>
		<g>
			<path fill="#2E3E3D" d="M435.561,49.98c0,1.771-0.92,3.341-2.76,4.71c-1.841,1.369-3.939,2.053-6.297,2.053
				c-1.979,0-3.521-0.494-4.625-1.484c-1.104-0.989-1.657-2.381-1.657-4.175c0-1.645,0.214-3.1,0.639-4.365
				c0.483-1.438,1.398-3.157,2.743-5.159l1.07,0.725c-1.657,2.484-2.485,4.635-2.485,6.453c0,2.186,1.485,3.279,4.452,3.279
				c2.024,0,3.669-0.394,4.934-1.182c1.267-0.788,1.898-1.81,1.898-3.063c0-1.082-0.063-2.002-0.188-2.761
				c-0.657-3.692-1.316-7.385-1.985-11.077l-0.862-0.621c-0.011-1.104,0.519-2.83,1.588-5.176l0.794,0.38
				c-0.047,0.161-0.069,0.345-0.069,0.552c0,0.391,0.133,0.69,0.396,0.897c0.104,0.081,0.868,0.529,2.295,1.346
				c-0.185,1.426-0.575,2.772-1.174,4.038l-0.518-0.207l0.931,5.142c0.588,3.266,0.881,5.21,0.881,5.831V49.98z"/>
			<path fill="#2E3E3D" d="M445.154,50.411h-10.802v-4.692h9.077c-0.185-1.081-0.818-2.261-1.899-3.537l1.382-4.106
				c0.861,0.989,1.442,1.996,1.741,3.019c0.335,1.104,0.501,2.709,0.501,4.814V50.411z M444.879,53.449l-1.897,3.52l-2.451-1.38
				l-1.38,2.726l-3.209-1.76l1.795-3.347l2.553,1.276l1.449-2.795L444.879,53.449z"/>
			<path fill="#2E3E3D" d="M463.65,50.411h-19.703v-4.692h12.268c-2.555-2.634-4.866-3.951-6.937-3.951
				c-0.541,0-1.173,0.08-1.897,0.241c1.241-2.83,2.829-4.244,4.762-4.244c1.093,0,2.214,0.431,3.364,1.294
				c0.92,0.701,2.296,2.053,4.124,4.054c0.873,0.967,1.547,1.6,2.019,1.898c0.438,0.276,1.104,0.512,2.001,0.708V50.411z
				 M457.268,54.19l-2.175,3.9l-3.968-2.14l2.001-3.899L457.268,54.19z"/>
			<path fill="#2E3E3D" d="M485.149,50.411c-2.588-0.172-4.498-0.557-5.729-1.155c-0.69,0.495-1.341,0.817-1.95,0.966
				c-0.494,0.126-1.224,0.189-2.19,0.189h-2.813c-1.369,0-2.381-0.868-3.036-2.604c-1.139,1.737-2.646,2.604-4.521,2.604h-2.467
				v-4.692h2.467c1.185,0,2.174-0.346,2.968-1.036c1.001-0.874,1.542-2.214,1.621-4.02l1.139,0.172
				c-0.067,1.036-0.103,1.979-0.103,2.83c0,0.599,0.201,1.09,0.604,1.475c0.401,0.386,0.863,0.578,1.38,0.578h2.123
				c1.391,0,2.392-0.201,3.001-0.604c0.726-0.483,1.087-1.357,1.087-2.623c0-0.403,0.299-0.84,0.898-1.311l0.655-0.518
				c0.046,0.46,0.069,1.001,0.069,1.622c0,0.632-0.092,1.472-0.277,2.519c0.817,0.414,1.852,0.708,3.106,0.88
				c0-0.392-0.145-0.895-0.432-1.51c-0.287-0.615-0.431-1.038-0.431-1.268c0-0.368,0.166-0.777,0.499-1.225l1.468-1.984
				c0.574,1.311,0.862,2.709,0.862,4.193V50.411z"/>
			<path fill="#2E3E3D" d="M494.743,50.411h-10.802v-4.692h9.075c-0.184-1.081-0.815-2.261-1.897-3.537l1.381-4.106
				c0.863,0.989,1.443,1.996,1.742,3.019c0.334,1.104,0.501,2.709,0.501,4.814V50.411z M494.467,31.967l-1.898,3.521l-2.449-1.38
				l-1.38,2.726l-3.21-1.76l1.795-3.347l2.553,1.276l1.448-2.794L494.467,31.967z"/>
		</g>
		<g>
			<path fill="#2E3E3D" d="M354.836,50.411h-2.26c-2.29,0-3.635-2.363-4.038-7.091c-1.587,1.956-2.726,2.934-3.416,2.934
				c-0.195,0-0.472-0.036-0.828-0.104l-2.104-0.414l-1.14-0.207c-0.552-0.149-0.828-0.356-0.828-0.621
				c0-0.299,0.402-1.283,1.208-2.95s1.38-2.686,1.726-3.054c0.598-0.644,2.036-1.61,4.313-2.898
				c-0.068-0.276-0.103-0.598-0.103-0.967c0-0.989,0.459-2.357,1.38-4.106l1.657,10.766c0.414,2.681,1.138,4.021,2.174,4.021h2.26
				V50.411z M350.85,25.911l-1.897,3.52l-2.45-1.38l-1.38,2.726l-3.21-1.76l1.795-3.347l2.554,1.277l1.449-2.796L350.85,25.911z
				 M348.124,40.663l-0.346-2.07c-0.518,0.23-1.311,0.679-2.38,1.346c-0.691,0.552-1.035,0.955-1.035,1.207
				c0,0.346,0.598,0.519,1.794,0.519C346.583,41.664,347.238,41.331,348.124,40.663z"/>
			<path fill="#2E3E3D" d="M369.657,50.395c-2.681-0.069-5.366-0.793-8.058-2.173c-0.967,1.46-2.433,2.19-4.399,2.19h-3.417v-4.692
				h3.417c2.139,0,3.503-0.684,4.089-2.053c0.621-1.461,1.455-2.669,2.502-3.624c0.92-0.828,1.697-1.242,2.329-1.242
				c0.598,0,1.329,0.886,2.191,2.657c0.897,1.863,1.346,3.589,1.346,5.177V50.395z M366.432,45.184c0-0.253-0.249-0.696-0.742-1.328
				c-0.553-0.679-1.031-1.019-1.433-1.019c-0.448,0-0.828,0.518-1.139,1.553c1.783,0.69,2.761,1.035,2.933,1.035
				C366.304,45.425,366.432,45.345,366.432,45.184z"/>
			<path fill="#2E3E3D" d="M381.77,50.411h-7.816c-1.656,0-2.483-0.798-2.483-2.398c0-1.012,0.103-2.151,0.31-3.416l0.656-0.034
				c0.184,0.771,0.771,1.156,1.76,1.156h5.935c-0.46-2.91-1.672-4.986-3.64-6.229l1.242-5.382c1.495,1.127,2.56,2.57,3.192,4.33
				c0.563,1.599,0.845,3.745,0.845,6.436V50.411z"/>
			<path fill="#2E3E3D" d="M400.266,50.411h-19.703v-4.692h12.268c-2.555-2.634-4.866-3.951-6.937-3.951
				c-0.54,0-1.173,0.08-1.897,0.241c1.242-2.83,2.829-4.244,4.762-4.244c1.093,0,2.215,0.431,3.364,1.294
				c0.92,0.701,2.295,2.053,4.124,4.054c0.873,0.967,1.547,1.6,2.019,1.898c0.438,0.276,1.104,0.512,2.001,0.708V50.411z
				 M393.331,32.037l-2.071,3.864l-4.038-2.104l2.002-3.9L393.331,32.037z"/>
			<path fill="#2E3E3D" d="M408.548,50.411h-9.489v-4.692h7.42l-2.089-11.715l-1.104-0.725c-0.08-1.196,0.472-2.921,1.656-5.175
				l0.795,0.414c0,0.068-0.023,0.253-0.069,0.552c0,0.667,0.92,1.392,2.76,2.173c-0.219,1.53-0.598,2.876-1.139,4.038l-0.62-0.242
				l1.88,10.681V50.411z"/>
			<path fill="#2E3E3D" d="M414.794,45.391c0,1.737-0.587,3.808-1.761,6.211L412,51.188c0.275-1.473,0.414-2.669,0.414-3.589
				c0-1.484-0.197-3.761-0.587-6.832c-0.185-1.45-0.462-3.1-0.829-4.953c-0.299-1.518-0.448-2.387-0.448-2.605
				c0-0.724,0.678-2.37,2.036-4.934l1.035,6.108C414.403,39.237,414.794,42.906,414.794,45.391z"/>
		</g>
		<g>
			<path fill="#2E3E3D" d="M267.395,50.411h-2.259c-2.29,0-3.636-2.363-4.039-7.091c-1.586,1.956-2.726,2.934-3.415,2.934
				c-0.196,0-0.472-0.036-0.829-0.104l-2.104-0.414l-1.139-0.207c-0.552-0.149-0.828-0.356-0.828-0.621
				c0-0.299,0.402-1.283,1.207-2.95c0.806-1.667,1.381-2.686,1.727-3.054c0.597-0.644,2.035-1.61,4.313-2.898
				c-0.069-0.276-0.103-0.598-0.103-0.967c0-0.989,0.459-2.357,1.38-4.106l1.656,10.766c0.414,2.681,1.139,4.021,2.175,4.021h2.259
				V50.411z M263.409,25.911l-1.897,3.52l-2.451-1.38l-1.379,2.726l-3.21-1.76l1.795-3.347l2.554,1.277l1.448-2.796L263.409,25.911z
				 M260.684,40.663l-0.346-2.07c-0.518,0.23-1.311,0.679-2.381,1.346c-0.69,0.552-1.035,0.955-1.035,1.207
				c0,0.346,0.599,0.519,1.794,0.519C259.142,41.664,259.798,41.331,260.684,40.663z"/>
			<path fill="#2E3E3D" d="M277.144,50.411h-10.801v-4.692h9.075c-0.184-1.081-0.816-2.261-1.897-3.537l1.381-4.106
				c0.862,0.989,1.442,1.996,1.741,3.019c0.334,1.104,0.501,2.709,0.501,4.814V50.411z M276.867,53.449l-1.897,3.52l-2.45-1.38
				l-1.381,2.726l-3.209-1.76l1.794-3.347l2.555,1.276l1.449-2.795L276.867,53.449z"/>
			<path fill="#2E3E3D" d="M286.737,50.411h-10.801v-4.692h9.075c-0.185-1.081-0.817-2.261-1.898-3.537l1.381-4.106
				c0.863,0.989,1.443,1.996,1.742,3.019c0.333,1.104,0.501,2.709,0.501,4.814V50.411z M286.84,31.622l-2.07,3.865l-4.037-2.105
				l2.002-3.899L286.84,31.622z"/>
			<path fill="#2E3E3D" d="M305.233,50.411h-19.704v-4.692h2.295c0.392,0,1.782-0.96,4.176-2.882
				c-0.047-2.91-0.575-6.373-1.588-10.387l-1.001-0.621c0.38-1.725,0.933-3.417,1.656-5.073l0.795,0.311
				c0,0.081-0.024,0.23-0.07,0.449c0,0.609,1.139,1.323,3.417,2.139c-0.173,1.289-0.587,2.737-1.242,4.348l-0.622-0.207
				c0.599,2.783,0.898,4.682,0.898,5.693c0,0.667-0.059,1.289-0.173,1.864l3.036-2.139c1.599-1.036,2.762-1.553,3.485-1.553
				c1.358,0,2.444,0.356,3.261,1.069c0.921,0.794,1.381,1.933,1.381,3.417V50.411z M302.835,43.958c0-0.39-0.448-0.776-1.346-1.155
				c-0.816-0.334-1.542-0.5-2.174-0.5c-1.312,0-3.544,1.139-6.695,3.416h4.521C300.938,45.719,302.835,45.132,302.835,43.958z"/>
			<path fill="#2E3E3D" d="M321.176,49.221c0,1.979-0.842,3.934-2.527,5.867c-1.685,1.932-3.339,2.898-4.961,2.898
				c-0.955,0-1.998-0.304-3.131-0.914c-1.134-0.61-2.873-1.813-5.22-3.606l0.724-1.001c1.07,0.714,1.904,1.196,2.503,1.449
				c0.863,0.369,1.788,0.553,2.777,0.553c2.358,0,4.797-1.495,7.316-4.486c-0.483,0.069-0.886,0.103-1.208,0.103
				c-1.139,0-2.045-0.37-2.718-1.112s-1.009-1.751-1.009-3.028c0-1.726,0.402-3.393,1.208-5.004c0.862-1.725,1.84-2.588,2.933-2.588
				c0.909,0,1.688,0.629,2.338,1.89c0.65,1.26,0.975,2.769,0.975,4.529V49.221z M319.105,45.719
				c-0.322-1.852-0.979-2.778-1.967-2.778c-0.356,0-0.65,0.155-0.88,0.466c-0.196,0.264-0.293,0.558-0.293,0.88
				c0,0.955,0.828,1.432,2.484,1.432H319.105z"/>
			<path fill="#2E3E3D" d="M329.457,50.411h-9.488v-4.692h7.419l-2.087-11.715l-1.105-0.725c-0.08-1.196,0.472-2.921,1.656-5.175
				l0.794,0.414c0,0.068-0.023,0.253-0.069,0.552c0,0.667,0.921,1.392,2.762,2.173c-0.22,1.53-0.599,2.876-1.14,4.038l-0.621-0.242
				l1.88,10.681V50.411z"/>
			<path fill="#2E3E3D" d="M335.704,45.391c0,1.737-0.587,3.808-1.761,6.211l-1.034-0.414c0.276-1.473,0.414-2.669,0.414-3.589
				c0-1.484-0.196-3.761-0.587-6.832c-0.185-1.45-0.46-3.1-0.828-4.953c-0.299-1.518-0.449-2.387-0.449-2.605
				c0-0.724,0.679-2.37,2.037-4.934l1.034,6.108C335.313,39.237,335.704,42.906,335.704,45.391z"/>
		</g>
		<g>
			<path fill="#2E3E3D" d="M435.561,49.98c0,1.771-0.92,3.341-2.76,4.71c-1.841,1.369-3.939,2.053-6.297,2.053
				c-1.979,0-3.521-0.494-4.625-1.484c-1.104-0.989-1.657-2.381-1.657-4.175c0-1.645,0.214-3.1,0.639-4.365
				c0.483-1.438,1.398-3.157,2.743-5.159l1.07,0.725c-1.657,2.484-2.485,4.635-2.485,6.453c0,2.186,1.485,3.279,4.452,3.279
				c2.024,0,3.669-0.394,4.934-1.182c1.267-0.788,1.898-1.81,1.898-3.063c0-1.082-0.063-2.002-0.188-2.761
				c-0.657-3.692-1.316-7.385-1.985-11.077l-0.862-0.621c-0.011-1.104,0.519-2.83,1.588-5.176l0.794,0.38
				c-0.047,0.161-0.069,0.345-0.069,0.552c0,0.391,0.133,0.69,0.396,0.897c0.104,0.081,0.868,0.529,2.295,1.346
				c-0.185,1.426-0.575,2.772-1.174,4.038l-0.518-0.207l0.931,5.142c0.588,3.266,0.881,5.21,0.881,5.831V49.98z"/>
			<path fill="#2E3E3D" d="M445.154,50.411h-10.802v-4.692h9.077c-0.185-1.081-0.818-2.261-1.899-3.537l1.382-4.106
				c0.861,0.989,1.442,1.996,1.741,3.019c0.335,1.104,0.501,2.709,0.501,4.814V50.411z M444.879,53.449l-1.897,3.52l-2.451-1.38
				l-1.38,2.726l-3.209-1.76l1.795-3.347l2.553,1.276l1.449-2.795L444.879,53.449z"/>
			<path fill="#2E3E3D" d="M463.65,50.411h-19.703v-4.692h12.268c-2.555-2.634-4.866-3.951-6.937-3.951
				c-0.541,0-1.173,0.08-1.897,0.241c1.241-2.83,2.829-4.244,4.762-4.244c1.093,0,2.214,0.431,3.364,1.294
				c0.92,0.701,2.296,2.053,4.124,4.054c0.873,0.967,1.547,1.6,2.019,1.898c0.438,0.276,1.104,0.512,2.001,0.708V50.411z
				 M457.268,54.19l-2.175,3.9l-3.968-2.14l2.001-3.899L457.268,54.19z"/>
			<path fill="#2E3E3D" d="M485.149,50.411c-2.588-0.172-4.498-0.557-5.729-1.155c-0.69,0.495-1.341,0.817-1.95,0.966
				c-0.494,0.126-1.224,0.189-2.19,0.189h-2.813c-1.369,0-2.381-0.868-3.036-2.604c-1.139,1.737-2.646,2.604-4.521,2.604h-2.467
				v-4.692h2.467c1.185,0,2.174-0.346,2.968-1.036c1.001-0.874,1.542-2.214,1.621-4.02l1.139,0.172
				c-0.067,1.036-0.103,1.979-0.103,2.83c0,0.599,0.201,1.09,0.604,1.475c0.401,0.386,0.863,0.578,1.38,0.578h2.123
				c1.391,0,2.392-0.201,3.001-0.604c0.726-0.483,1.087-1.357,1.087-2.623c0-0.403,0.299-0.84,0.898-1.311l0.655-0.518
				c0.046,0.46,0.069,1.001,0.069,1.622c0,0.632-0.092,1.472-0.277,2.519c0.817,0.414,1.852,0.708,3.106,0.88
				c0-0.392-0.145-0.895-0.432-1.51c-0.287-0.615-0.431-1.038-0.431-1.268c0-0.368,0.166-0.777,0.499-1.225l1.468-1.984
				c0.574,1.311,0.862,2.709,0.862,4.193V50.411z"/>
			<path fill="#2E3E3D" d="M494.743,50.411h-10.802v-4.692h9.075c-0.184-1.081-0.815-2.261-1.897-3.537l1.381-4.106
				c0.863,0.989,1.443,1.996,1.742,3.019c0.334,1.104,0.501,2.709,0.501,4.814V50.411z M494.467,31.967l-1.898,3.521l-2.449-1.38
				l-1.38,2.726l-3.21-1.76l1.795-3.347l2.553,1.276l1.448-2.794L494.467,31.967z"/>
		</g>
		<g>
			<path fill="#2E3E3D" d="M354.836,50.411h-2.26c-2.29,0-3.635-2.363-4.038-7.091c-1.587,1.956-2.726,2.934-3.416,2.934
				c-0.195,0-0.472-0.036-0.828-0.104l-2.104-0.414l-1.14-0.207c-0.552-0.149-0.828-0.356-0.828-0.621
				c0-0.299,0.402-1.283,1.208-2.95s1.38-2.686,1.726-3.054c0.598-0.644,2.036-1.61,4.313-2.898
				c-0.068-0.276-0.103-0.598-0.103-0.967c0-0.989,0.459-2.357,1.38-4.106l1.657,10.766c0.414,2.681,1.138,4.021,2.174,4.021h2.26
				V50.411z M350.85,25.911l-1.897,3.52l-2.45-1.38l-1.38,2.726l-3.21-1.76l1.795-3.347l2.554,1.277l1.449-2.796L350.85,25.911z
				 M348.124,40.663l-0.346-2.07c-0.518,0.23-1.311,0.679-2.38,1.346c-0.691,0.552-1.035,0.955-1.035,1.207
				c0,0.346,0.598,0.519,1.794,0.519C346.583,41.664,347.238,41.331,348.124,40.663z"/>
			<path fill="#2E3E3D" d="M369.657,50.395c-2.681-0.069-5.366-0.793-8.058-2.173c-0.967,1.46-2.433,2.19-4.399,2.19h-3.417v-4.692
				h3.417c2.139,0,3.503-0.684,4.089-2.053c0.621-1.461,1.455-2.669,2.502-3.624c0.92-0.828,1.697-1.242,2.329-1.242
				c0.598,0,1.329,0.886,2.191,2.657c0.897,1.863,1.346,3.589,1.346,5.177V50.395z M366.432,45.184c0-0.253-0.249-0.696-0.742-1.328
				c-0.553-0.679-1.031-1.019-1.433-1.019c-0.448,0-0.828,0.518-1.139,1.553c1.783,0.69,2.761,1.035,2.933,1.035
				C366.304,45.425,366.432,45.345,366.432,45.184z"/>
			<path fill="#2E3E3D" d="M381.77,50.411h-7.816c-1.656,0-2.483-0.798-2.483-2.398c0-1.012,0.103-2.151,0.31-3.416l0.656-0.034
				c0.184,0.771,0.771,1.156,1.76,1.156h5.935c-0.46-2.91-1.672-4.986-3.64-6.229l1.242-5.382c1.495,1.127,2.56,2.57,3.192,4.33
				c0.563,1.599,0.845,3.745,0.845,6.436V50.411z"/>
			<path fill="#2E3E3D" d="M400.266,50.411h-19.703v-4.692h12.268c-2.555-2.634-4.866-3.951-6.937-3.951
				c-0.54,0-1.173,0.08-1.897,0.241c1.242-2.83,2.829-4.244,4.762-4.244c1.093,0,2.215,0.431,3.364,1.294
				c0.92,0.701,2.295,2.053,4.124,4.054c0.873,0.967,1.547,1.6,2.019,1.898c0.438,0.276,1.104,0.512,2.001,0.708V50.411z
				 M393.331,32.037l-2.071,3.864l-4.038-2.104l2.002-3.9L393.331,32.037z"/>
			<path fill="#2E3E3D" d="M408.548,50.411h-9.489v-4.692h7.42l-2.089-11.715l-1.104-0.725c-0.08-1.196,0.472-2.921,1.656-5.175
				l0.795,0.414c0,0.068-0.023,0.253-0.069,0.552c0,0.667,0.92,1.392,2.76,2.173c-0.219,1.53-0.598,2.876-1.139,4.038l-0.62-0.242
				l1.88,10.681V50.411z"/>
			<path fill="#2E3E3D" d="M414.794,45.391c0,1.737-0.587,3.808-1.761,6.211L412,51.188c0.275-1.473,0.414-2.669,0.414-3.589
				c0-1.484-0.197-3.761-0.587-6.832c-0.185-1.45-0.462-3.1-0.829-4.953c-0.299-1.518-0.448-2.387-0.448-2.605
				c0-0.724,0.678-2.37,2.036-4.934l1.035,6.108C414.403,39.237,414.794,42.906,414.794,45.391z"/>
		</g>
		<g>
			<path fill="#2E3E3D" d="M267.395,50.411h-2.259c-2.29,0-3.636-2.363-4.039-7.091c-1.586,1.956-2.726,2.934-3.415,2.934
				c-0.196,0-0.472-0.036-0.829-0.104l-2.104-0.414l-1.139-0.207c-0.552-0.149-0.828-0.356-0.828-0.621
				c0-0.299,0.402-1.283,1.207-2.95c0.806-1.667,1.381-2.686,1.727-3.054c0.597-0.644,2.035-1.61,4.313-2.898
				c-0.069-0.276-0.103-0.598-0.103-0.967c0-0.989,0.459-2.357,1.38-4.106l1.656,10.766c0.414,2.681,1.139,4.021,2.175,4.021h2.259
				V50.411z M263.409,25.911l-1.897,3.52l-2.451-1.38l-1.379,2.726l-3.21-1.76l1.795-3.347l2.554,1.277l1.448-2.796L263.409,25.911z
				 M260.684,40.663l-0.346-2.07c-0.518,0.23-1.311,0.679-2.381,1.346c-0.69,0.552-1.035,0.955-1.035,1.207
				c0,0.346,0.599,0.519,1.794,0.519C259.142,41.664,259.798,41.331,260.684,40.663z"/>
			<path fill="#2E3E3D" d="M277.144,50.411h-10.801v-4.692h9.075c-0.184-1.081-0.816-2.261-1.897-3.537l1.381-4.106
				c0.862,0.989,1.442,1.996,1.741,3.019c0.334,1.104,0.501,2.709,0.501,4.814V50.411z M276.867,53.449l-1.897,3.52l-2.45-1.38
				l-1.381,2.726l-3.209-1.76l1.794-3.347l2.555,1.276l1.449-2.795L276.867,53.449z"/>
			<path fill="#2E3E3D" d="M286.737,50.411h-10.801v-4.692h9.075c-0.185-1.081-0.817-2.261-1.898-3.537l1.381-4.106
				c0.863,0.989,1.443,1.996,1.742,3.019c0.333,1.104,0.501,2.709,0.501,4.814V50.411z M286.84,31.622l-2.07,3.865l-4.037-2.105
				l2.002-3.899L286.84,31.622z"/>
			<path fill="#2E3E3D" d="M305.233,50.411h-19.704v-4.692h2.295c0.392,0,1.782-0.96,4.176-2.882
				c-0.047-2.91-0.575-6.373-1.588-10.387l-1.001-0.621c0.38-1.725,0.933-3.417,1.656-5.073l0.795,0.311
				c0,0.081-0.024,0.23-0.07,0.449c0,0.609,1.139,1.323,3.417,2.139c-0.173,1.289-0.587,2.737-1.242,4.348l-0.622-0.207
				c0.599,2.783,0.898,4.682,0.898,5.693c0,0.667-0.059,1.289-0.173,1.864l3.036-2.139c1.599-1.036,2.762-1.553,3.485-1.553
				c1.358,0,2.444,0.356,3.261,1.069c0.921,0.794,1.381,1.933,1.381,3.417V50.411z M302.835,43.958c0-0.39-0.448-0.776-1.346-1.155
				c-0.816-0.334-1.542-0.5-2.174-0.5c-1.312,0-3.544,1.139-6.695,3.416h4.521C300.938,45.719,302.835,45.132,302.835,43.958z"/>
			<path fill="#2E3E3D" d="M321.176,49.221c0,1.979-0.842,3.934-2.527,5.867c-1.685,1.932-3.339,2.898-4.961,2.898
				c-0.955,0-1.998-0.304-3.131-0.914c-1.134-0.61-2.873-1.813-5.22-3.606l0.724-1.001c1.07,0.714,1.904,1.196,2.503,1.449
				c0.863,0.369,1.788,0.553,2.777,0.553c2.358,0,4.797-1.495,7.316-4.486c-0.483,0.069-0.886,0.103-1.208,0.103
				c-1.139,0-2.045-0.37-2.718-1.112s-1.009-1.751-1.009-3.028c0-1.726,0.402-3.393,1.208-5.004c0.862-1.725,1.84-2.588,2.933-2.588
				c0.909,0,1.688,0.629,2.338,1.89c0.65,1.26,0.975,2.769,0.975,4.529V49.221z M319.105,45.719
				c-0.322-1.852-0.979-2.778-1.967-2.778c-0.356,0-0.65,0.155-0.88,0.466c-0.196,0.264-0.293,0.558-0.293,0.88
				c0,0.955,0.828,1.432,2.484,1.432H319.105z"/>
			<path fill="#2E3E3D" d="M329.457,50.411h-9.488v-4.692h7.419l-2.087-11.715l-1.105-0.725c-0.08-1.196,0.472-2.921,1.656-5.175
				l0.794,0.414c0,0.068-0.023,0.253-0.069,0.552c0,0.667,0.921,1.392,2.762,2.173c-0.22,1.53-0.599,2.876-1.14,4.038l-0.621-0.242
				l1.88,10.681V50.411z"/>
			<path fill="#2E3E3D" d="M335.704,45.391c0,1.737-0.587,3.808-1.761,6.211l-1.034-0.414c0.276-1.473,0.414-2.669,0.414-3.589
				c0-1.484-0.196-3.761-0.587-6.832c-0.185-1.45-0.46-3.1-0.828-4.953c-0.299-1.518-0.449-2.387-0.449-2.605
				c0-0.724,0.679-2.37,2.037-4.934l1.034,6.108C335.313,39.237,335.704,42.906,335.704,45.391z"/>
		</g>
	</g>
	<g>
		<g>
			<path fill="#394948" d="M132.735,162.987h-2.276c1.414,1.722,2.259,2.742,2.369,2.858c0.314,0.449,0.646,0.888,0.986,1.32h1.101
				C134.09,165.844,133.361,164.448,132.735,162.987z"/>
			<path fill="#394948" d="M137.124,170.261h-0.783c0.985,1.28,2.08,2.481,3.273,3.593h0.927
				C139.313,172.754,138.17,171.553,137.124,170.261z"/>
			<path fill="#394948" d="M142.129,175.948c2.498,1.851,5.331,3.337,8.451,4.35c3.293,1.069,6.637,1.522,9.912,1.433
				c-6.333-0.12-12.361-2.201-17.35-5.782H142.129z"/>
			<path fill="#394948" d="M132.735,162.987c0.626,1.461,1.354,2.856,2.179,4.179h52.364c0.832-1.334,1.563-2.73,2.187-4.179
				H132.735z"/>
			<path fill="#394948" d="M143.142,175.948c4.989,3.581,11.017,5.662,17.35,5.782c2.384,0.046,4.81-0.179,7.241-0.716
				c4.218-0.932,8.041-2.689,11.342-5.066H143.142z"/>
			<path fill="#394948" d="M137.124,170.261c1.046,1.292,2.189,2.493,3.417,3.593h41.133c1.231-1.107,2.37-2.31,3.405-3.593H137.124
				z"/>
			<g>
				<path fill="#394948" d="M131.294,157.567c-1.764-8.052-0.24-16.056,3.662-22.62c0.221-0.534,8.493-17.097,18.64-37.368
					c-17.529-21.454-36.851-45.054-37.394-45.628c-3.566-5.073-8.752-9.079-15.119-11.138c-15.577-5.042-32.304,3.457-37.361,18.98
					c-3.471,10.648-0.547,21.835,6.658,29.438c0.672,0.957,41.291,50.681,56.86,69.644h4.375
					C131.501,158.442,131.391,158.009,131.294,157.567z"/>
			</g>
		</g>
		<path fill="#2E3E3D" d="M117.136,85.441c3.839-6.403,5.342-14.208,3.618-22.057c-3.597-16.379-19.858-26.725-36.32-23.11
			c-10.121,2.223-17.958,9.212-21.659,18.071C62.022,59.604,7.789,166.915,7.22,168.271c-3.837,6.403-5.34,14.209-3.616,22.057
			c3.597,16.379,19.858,26.726,36.32,23.109c10.122-2.223,17.958-9.211,21.657-18.07C62.337,194.11,116.569,86.798,117.136,85.441z"
			/>
	</g>
	<g>
		<path fill="#2E3E3D" d="M78.492,196.568c0.076-0.012,0.157-0.018,0.245-0.018c0.289,0,0.702,0.056,1.241,0.169
			c0.99,0.2,1.773,0.52,2.35,0.958v17.352h-3.835v-1.579c-1.466,1.053-3.083,1.579-4.85,1.579c-2.406,0-4.461-0.902-6.166-2.706
			c-1.692-1.806-2.538-3.979-2.538-6.523c0-2.558,0.846-4.738,2.538-6.542c1.705-1.793,3.76-2.689,6.166-2.689
			c1.768,0,3.384,0.521,4.85,1.562V196.568z M73.642,211.176c1.329,0,2.469-0.526,3.422-1.579c0.952-1.053,1.428-2.318,1.428-3.797
			c0-1.492-0.476-2.764-1.428-3.816c-0.953-1.053-2.093-1.579-3.422-1.579c-1.341,0-2.488,0.526-3.44,1.579
			c-0.94,1.053-1.41,2.324-1.41,3.816c0,1.479,0.47,2.744,1.41,3.797C71.154,210.649,72.301,211.176,73.642,211.176z"/>
		<path fill="#2E3E3D" d="M95.506,213.525c0.113,0.539,0.169,0.959,0.169,1.26c0,0.088-0.006,0.169-0.019,0.244l-1.166-0.019
			c-1.429-0.075-2.582-0.357-3.459-0.846c-0.414-0.238-0.74-0.451-0.978-0.64c-1.917-1.466-2.876-3.396-2.876-5.79v-14.7
			c0.978-0.74,2.225-1.109,3.741-1.109h0.113v5.207h3.835v0.094c0,1.216-0.37,2.219-1.109,3.008h-2.726v7.501
			c0,0.89,0.3,1.667,0.902,2.331c0.125,0.101,0.25,0.194,0.376,0.282c0.087,0.063,0.175,0.125,0.263,0.188
			c0.1,0.05,0.181,0.094,0.244,0.132c0.063,0.024,0.125,0.056,0.188,0.094c0.251,0.112,0.495,0.2,0.733,0.263
			c0.075,0.025,0.194,0.05,0.357,0.075c0.1,0.025,0.2,0.044,0.301,0.057h0.038c0.025,0,0.063,0.006,0.113,0.019
			C94.998,211.777,95.318,212.561,95.506,213.525z"/>
		<path fill="#2E3E3D" d="M98.42,193.054c0.576-0.439,1.359-0.759,2.35-0.959c0.576-0.113,1.003-0.169,1.278-0.169
			c0.087,0,0.157,0.006,0.207,0.019v3.666c-0.05-0.013-0.119-0.02-0.207-0.02c-0.275,0-0.702,0.057-1.278,0.17
			c-0.99,0.2-1.773,0.52-2.35,0.959V193.054z M98.42,197.678c0.576-0.438,1.359-0.758,2.35-0.958
			c0.551-0.113,0.965-0.169,1.241-0.169c0.1,0,0.182,0.006,0.244,0.018v18.461H98.42V197.678z"/>
		<path fill="#2E3E3D" d="M114.606,196.568c2.394,0,4.443,0.896,6.147,2.689c1.692,1.804,2.538,3.984,2.538,6.542
			c0,2.544-0.846,4.718-2.538,6.523c-1.704,1.804-3.753,2.706-6.147,2.706c-2.407,0-4.462-0.902-6.167-2.706
			c-1.692-1.806-2.538-3.979-2.538-6.523c0-2.558,0.846-4.738,2.538-6.542C110.144,197.465,112.199,196.568,114.606,196.568z
			 M114.606,211.176c1.328,0,2.469-0.526,3.421-1.579c0.952-1.053,1.429-2.318,1.429-3.797c0-1.492-0.477-2.764-1.429-3.816
			c-0.953-1.053-2.093-1.579-3.421-1.579c-1.341,0-2.488,0.526-3.44,1.579c-0.94,1.053-1.41,2.324-1.41,3.816
			c0,1.479,0.47,2.744,1.41,3.797C112.118,210.649,113.265,211.176,114.606,211.176z"/>
		<path fill="#2E3E3D" d="M141.038,198.13c2.569,1.829,3.854,4.386,3.854,7.67v9.229h-3.854V205.8c0-1.492-0.47-2.764-1.41-3.816
			c-0.953-1.053-2.099-1.579-3.44-1.579c-1.329,0-2.47,0.526-3.422,1.579s-1.429,2.324-1.429,3.816v9.229h-3.835v-17.352
			c0.576-0.438,1.36-0.758,2.35-0.958c0.551-0.113,0.965-0.169,1.241-0.169c0.1,0,0.182,0.006,0.244,0.018v1.562
			c1.466-1.054,3.083-1.579,4.851-1.579C137.967,196.551,139.583,197.076,141.038,198.13z"/>
		<path fill="#2E3E3D" d="M162.657,196.568c0.075-0.012,0.157-0.018,0.244-0.018c0.288,0,0.702,0.056,1.241,0.169
			c0.99,0.2,1.773,0.52,2.35,0.958v17.352h-3.835v-1.579c-1.466,1.053-3.083,1.579-4.85,1.579c-2.407,0-4.462-0.902-6.167-2.706
			c-1.692-1.806-2.538-3.979-2.538-6.523c0-2.558,0.846-4.738,2.538-6.542c1.704-1.793,3.76-2.689,6.167-2.689
			c1.767,0,3.384,0.521,4.85,1.562V196.568z M157.807,211.176c1.328,0,2.469-0.526,3.421-1.579c0.953-1.053,1.429-2.318,1.429-3.797
			c0-1.492-0.477-2.764-1.429-3.816c-0.952-1.053-2.093-1.579-3.421-1.579c-1.342,0-2.488,0.526-3.44,1.579
			c-0.94,1.053-1.41,2.324-1.41,3.816c0,1.479,0.47,2.744,1.41,3.797C155.318,210.649,156.465,211.176,157.807,211.176z"/>
		<path fill="#2E3E3D" d="M175.271,215.029h-3.854v-25.811c0.576-0.451,1.36-0.771,2.35-0.959c0.576-0.125,1.015-0.188,1.316-0.188
			c0.075,0,0.138,0.006,0.188,0.018V215.029z"/>
		<path fill="#2E3E3D" d="M199.898,205.18c1.403,0.789,2.362,1.76,2.876,2.913c0.238,0.526,0.357,0.99,0.357,1.392v0.338
			c0,1.479-0.696,2.714-2.087,3.703c-0.727,0.526-1.46,0.896-2.199,1.109c-0.915,0.264-1.792,0.395-2.632,0.395h-0.019
			c-0.101,0-0.251-0.006-0.451-0.019c-2.682-0.1-4.681-1.084-5.997-2.951c-0.351-0.501-0.526-0.821-0.526-0.959
			c0.163-0.125,0.356-0.257,0.583-0.395c0.99-0.614,1.955-0.946,2.895-0.997c0.025,0.088,0.068,0.195,0.132,0.32
			c0,0.013,0.006,0.024,0.019,0.037c0.012,0.025,0.025,0.045,0.038,0.057c0.539,0.877,1.604,1.315,3.196,1.315h0.244
			c0.865-0.012,1.554-0.257,2.068-0.732c0.313-0.376,0.47-0.733,0.47-1.072c0-0.676-0.602-1.253-1.805-1.729
			c-0.602-0.251-1.197-0.427-1.786-0.526c-1.179-0.251-2.1-0.577-2.764-0.978c-1.404-0.79-2.362-1.762-2.876-2.914
			c-0.238-0.526-0.357-0.984-0.357-1.372v-0.339c0-1.479,0.689-2.72,2.068-3.723c0.727-0.526,1.466-0.89,2.218-1.09
			c0.915-0.276,1.792-0.413,2.632-0.413c0.113,0,0.263,0.006,0.451,0.018c2.695,0.101,4.688,1.078,5.979,2.934
			c0.175,0.237,0.319,0.47,0.432,0.695c0.1,0.213,0.144,0.307,0.131,0.282c-0.238,0.176-0.432,0.307-0.583,0.395
			c-0.99,0.614-1.962,0.946-2.914,0.996c-0.013-0.088-0.05-0.188-0.113-0.301c-0.013-0.024-0.031-0.057-0.056-0.094
			c-0.552-0.877-1.617-1.316-3.196-1.316h-0.207c-0.877,0-1.579,0.245-2.105,0.733c-0.313,0.376-0.47,0.728-0.47,1.053
			c0,0.677,0.595,1.26,1.786,1.749c0.602,0.237,1.203,0.413,1.805,0.525C198.312,204.471,199.233,204.791,199.898,205.18z"/>
		<path fill="#2E3E3D" d="M223.265,205.8c0,0.501-0.038,1.015-0.113,1.541h-13.234c0.3,1.115,0.871,2.023,1.71,2.726
			c0.852,0.715,1.83,1.084,2.933,1.109c0.263,0.025,0.514,0.037,0.752,0.037c0.564,0,1.059-0.063,1.485-0.188
			c0.338-0.1,0.727-0.257,1.166-0.47c1.328,0.488,2.331,1.366,3.008,2.632l-0.207,0.15l-0.056,0.038l-0.602,0.376
			c-0.038,0.024-0.082,0.05-0.131,0.075c-0.113,0.075-0.257,0.156-0.433,0.244c-0.075,0.037-0.132,0.068-0.169,0.094
			c-0.025,0.013-0.113,0.05-0.263,0.112c-0.113,0.051-0.289,0.119-0.526,0.207c-0.113,0.051-0.238,0.094-0.376,0.132
			c-0.112,0.037-0.27,0.081-0.47,0.132c-0.088,0.025-0.157,0.044-0.207,0.056l-0.076,0.02c-0.063,0.013-0.119,0.025-0.169,0.037
			c-0.05,0.013-0.082,0.019-0.094,0.019c-0.05,0.013-0.112,0.025-0.188,0.038c-0.088,0.012-0.157,0.019-0.207,0.019
			c-0.138,0.025-0.294,0.044-0.47,0.057c-0.163,0.013-0.294,0.025-0.395,0.037h-1.373c-2.97,0-5.32-1.284-7.049-3.854
			c-0.79-1.153-1.297-2.431-1.523-3.835c-0.075-0.526-0.113-1.04-0.113-1.541c0-0.502,0.038-1.016,0.113-1.542
			c0.351-2.193,1.328-4.023,2.933-5.489c1.629-1.467,3.509-2.2,5.64-2.2c0.526,0,1.059,0.051,1.598,0.151
			c1.792,0.351,3.328,1.215,4.605,2.594c1.291,1.392,2.087,3.039,2.388,4.944C223.228,204.784,223.265,205.298,223.265,205.8z
			 M219.223,204.258c-0.514-1.93-1.648-3.152-3.403-3.666c-0.401-0.125-0.82-0.188-1.259-0.188c-1.078,0-2.049,0.363-2.914,1.09
			c-0.853,0.714-1.429,1.636-1.729,2.764H219.223z"/>
		<path fill="#2E3E3D" d="M236.932,196.551c0.013,0.075,0.019,0.162,0.019,0.263c0,0.288-0.057,0.708-0.169,1.259
			c-0.188,0.966-0.507,1.743-0.958,2.332c-0.05,0.012-0.088,0.019-0.113,0.019c-0.012,0.013-0.025,0.019-0.037,0.019
			c-0.101,0-0.201,0.013-0.301,0.038c-0.163,0.037-0.282,0.063-0.357,0.075c-0.238,0.074-0.482,0.169-0.733,0.281
			c-0.063,0.025-0.125,0.057-0.188,0.095c-0.075,0.037-0.157,0.081-0.245,0.131c-0.087,0.051-0.176,0.106-0.263,0.17
			c-0.125,0.087-0.25,0.182-0.376,0.281c-0.087,0.075-0.176,0.157-0.263,0.245c-0.088,0.1-0.176,0.2-0.263,0.301
			c-0.101,0.1-0.188,0.2-0.263,0.301c-0.063,0.1-0.106,0.169-0.131,0.206c-0.05,0.063-0.094,0.132-0.132,0.207
			c-0.125,0.188-0.245,0.414-0.357,0.677c-0.05,0.113-0.094,0.226-0.131,0.339c-0.05,0.138-0.101,0.294-0.15,0.47
			c-0.025,0.113-0.05,0.226-0.075,0.339v0.037c-0.05,0.188-0.082,0.389-0.094,0.602v0.019c-0.012,0.075-0.019,0.145-0.019,0.207
			c-0.013,0.138-0.019,0.244-0.019,0.319v9.249h-3.835v-17.352c0.577-0.451,1.36-0.771,2.35-0.958
			c0.576-0.126,1.009-0.188,1.297-0.188c0.075,0,0.138,0.006,0.188,0.02v1.579c0.288-0.201,0.563-0.377,0.827-0.527
			c0.188-0.1,0.376-0.194,0.564-0.282c0.3-0.137,0.595-0.257,0.883-0.356c0.138-0.038,0.345-0.094,0.62-0.169
			c0.038-0.013,0.094-0.025,0.169-0.038c0.063-0.013,0.113-0.024,0.15-0.037c0.188-0.038,0.407-0.069,0.658-0.094
			c0.338-0.051,0.664-0.075,0.978-0.075H236.932z"/>
		<path fill="#2E3E3D" d="M254.585,196.568l-0.15,0.433l-6.298,17.577l-0.057,0.15l-0.056,0.113c-0.075,0.025-0.182,0.05-0.32,0.075
			c-0.289,0.05-0.633,0.088-1.034,0.112h-1.166c-0.401-0.024-0.746-0.063-1.034-0.112c-0.088-0.013-0.201-0.038-0.338-0.075
			l-0.038-0.094l-0.056-0.17l-6.298-17.577l-0.15-0.45h4.079l4.418,12.331l4.418-12.331L254.585,196.568z"/>
		<path fill="#2E3E3D" d="M256.69,193.054c0.576-0.439,1.359-0.759,2.35-0.959c0.576-0.113,1.003-0.169,1.278-0.169
			c0.088,0,0.157,0.006,0.207,0.019v3.666c-0.05-0.013-0.119-0.02-0.207-0.02c-0.275,0-0.702,0.057-1.278,0.17
			c-0.99,0.2-1.773,0.52-2.35,0.959V193.054z M256.69,197.678c0.576-0.438,1.359-0.758,2.35-0.958
			c0.552-0.113,0.965-0.169,1.241-0.169c0.1,0,0.182,0.006,0.244,0.018v18.461h-3.835V197.678z"/>
		<path fill="#2E3E3D" d="M267.838,213.338c0-0.013-0.094-0.095-0.281-0.244c-0.038-0.025-0.063-0.044-0.076-0.057
			c-0.087-0.063-0.176-0.138-0.263-0.226c-0.301-0.275-0.57-0.552-0.809-0.827c-0.063-0.075-0.144-0.182-0.244-0.319
			c-0.075-0.088-0.145-0.176-0.207-0.264c-0.188-0.263-0.363-0.539-0.526-0.827c-0.05-0.075-0.101-0.163-0.15-0.263
			c-0.163-0.301-0.307-0.608-0.433-0.922c-0.024-0.087-0.056-0.176-0.094-0.263c-0.176-0.464-0.307-0.953-0.395-1.467
			c-0.025-0.138-0.044-0.22-0.057-0.244c-0.037-0.251-0.068-0.477-0.094-0.677c-0.025-0.326-0.038-0.64-0.038-0.939
			c0-0.302,0.013-0.615,0.038-0.94c0.025-0.201,0.057-0.426,0.094-0.677c0.013-0.038,0.031-0.119,0.057-0.244
			c0.088-0.477,0.219-0.966,0.395-1.466c0.038-0.101,0.069-0.189,0.094-0.265c0.138-0.338,0.282-0.645,0.433-0.92
			c0.05-0.101,0.101-0.195,0.15-0.282c0.15-0.264,0.326-0.539,0.526-0.827c0.063-0.088,0.132-0.176,0.207-0.264
			c0.101-0.138,0.182-0.238,0.244-0.301c0.101-0.125,0.232-0.27,0.396-0.432c0.063-0.063,0.125-0.126,0.188-0.188
			c0.1-0.113,0.175-0.188,0.226-0.226c0.087-0.075,0.176-0.144,0.263-0.207c0.026-0.037,0.05-0.063,0.076-0.075
			c0.15-0.125,0.244-0.2,0.281-0.226c0.113-0.088,0.226-0.169,0.338-0.244c0.025-0.013,0.139-0.088,0.34-0.226h0.019
			c0.075-0.05,0.194-0.119,0.356-0.207c0.075-0.05,0.2-0.113,0.376-0.188c0.063-0.038,0.188-0.095,0.377-0.17
			c0.162-0.074,0.294-0.132,0.394-0.169c0.389-0.138,0.79-0.251,1.203-0.338c0.101-0.013,0.245-0.038,0.434-0.075
			c0.124-0.013,0.256-0.025,0.395-0.038l0.094-0.019h0.169c0.087-0.013,0.15-0.02,0.188-0.02c0.074-0.012,0.188-0.018,0.338-0.018
			c0.176,0,0.345,0.006,0.508,0.018c0.101,0.013,0.237,0.025,0.414,0.038c0.074,0.013,0.181,0.025,0.318,0.038
			c0.126,0.024,0.227,0.043,0.302,0.056c0.124,0.025,0.27,0.057,0.433,0.095c0.074,0.012,0.206,0.05,0.394,0.112
			c0.139,0.038,0.32,0.101,0.546,0.188c0.138,0.038,0.282,0.095,0.432,0.17c0.188,0.088,0.332,0.156,0.434,0.206
			c0.15,0.076,0.288,0.151,0.413,0.227c0.112,0.063,0.25,0.15,0.414,0.263c0.124,0.088,0.257,0.176,0.395,0.263
			c0.138,0.101,0.263,0.201,0.376,0.302c0.138,0.112,0.237,0.2,0.301,0.263c0.113,0.113,0.251,0.244,0.413,0.396
			c0.113,0.125,0.22,0.244,0.319,0.356c0.113,0.125,0.214,0.251,0.301,0.376l0.075,0.075l0.02,0.057l0.413,0.582l0.038,0.057
			l0.15,0.207l-0.02,0.019c-1.04,0.853-2.218,1.279-3.533,1.279h-0.245l-0.075-0.095l-0.019-0.019
			c-0.037-0.038-0.095-0.101-0.17-0.188c-0.05-0.063-0.105-0.118-0.169-0.169c-0.063-0.063-0.125-0.119-0.188-0.169
			c-0.063-0.063-0.125-0.119-0.188-0.169c-0.527-0.414-1.122-0.702-1.786-0.865c-0.051-0.013-0.132-0.031-0.244-0.057l-0.245-0.019
			c-0.051-0.013-0.119-0.019-0.207-0.019c-0.138-0.013-0.244-0.019-0.319-0.019c-0.827,0-1.592,0.219-2.293,0.657
			c-0.214,0.126-0.414,0.264-0.602,0.414c-0.101,0.088-0.22,0.2-0.357,0.339c-1.053,1.064-1.579,2.393-1.579,3.985
			c0,1.479,0.47,2.744,1.409,3.797c0.952,1.053,2.094,1.579,3.422,1.579c0.501,0,0.984-0.081,1.447-0.245
			c0.05-0.012,0.125-0.037,0.226-0.074c0.313-0.126,0.596-0.276,0.847-0.451c0.063-0.038,0.125-0.081,0.188-0.132
			c0.3-0.226,0.569-0.477,0.808-0.752c0-0.013,0.031-0.057,0.094-0.132h0.245c1.315,0,2.493,0.433,3.533,1.297h0.02l-0.15,0.207
			c0,0.013-0.013,0.032-0.038,0.057l-0.413,0.602c-0.026,0.038-0.057,0.075-0.095,0.113c-0.087,0.125-0.188,0.25-0.301,0.376
			c-0.063,0.075-0.169,0.194-0.319,0.357c-0.125,0.125-0.263,0.256-0.413,0.395c-0.063,0.063-0.163,0.15-0.301,0.263
			c-0.113,0.101-0.238,0.201-0.376,0.301c-0.125,0.101-0.257,0.194-0.395,0.282c-0.201,0.125-0.339,0.206-0.414,0.244
			c-0.125,0.088-0.263,0.163-0.413,0.226c-0.252,0.138-0.539,0.27-0.865,0.395c-0.275,0.101-0.546,0.188-0.809,0.264
			c-0.112,0.025-0.226,0.05-0.338,0.075h-0.02c-0.1,0.025-0.219,0.05-0.357,0.075c-0.063,0.012-0.112,0.019-0.15,0.019
			c-0.138,0.025-0.244,0.038-0.318,0.038c-0.177,0.024-0.313,0.037-0.414,0.037c-0.163,0.013-0.332,0.019-0.508,0.019
			c-0.15,0-0.264-0.006-0.338-0.019c-0.164,0-0.289-0.006-0.377-0.019h-0.074c-0.139-0.013-0.271-0.031-0.395-0.057
			c-0.102-0.013-0.22-0.031-0.358-0.057c-0.175-0.025-0.338-0.063-0.488-0.112l-0.395-0.113c-0.163-0.05-0.295-0.094-0.396-0.131
			c-0.138-0.051-0.263-0.101-0.375-0.15h-0.038c-0.113-0.05-0.226-0.101-0.339-0.151c-0.15-0.074-0.294-0.156-0.432-0.244
			c-0.013,0-0.119-0.056-0.319-0.169c0-0.013-0.007-0.019-0.019-0.019c-0.126-0.075-0.22-0.138-0.283-0.188
			C268.183,213.576,268.051,213.488,267.838,213.338z"/>
		<path fill="#2E3E3D" d="M300.154,205.8c0,0.501-0.038,1.015-0.113,1.541h-13.234c0.301,1.115,0.871,2.023,1.711,2.726
			c0.852,0.715,1.829,1.084,2.932,1.109c0.264,0.025,0.515,0.037,0.753,0.037c0.564,0,1.059-0.063,1.485-0.188
			c0.338-0.1,0.727-0.257,1.165-0.47c1.328,0.488,2.331,1.366,3.008,2.632l-0.207,0.15l-0.056,0.038l-0.602,0.376
			c-0.038,0.024-0.082,0.05-0.132,0.075c-0.112,0.075-0.258,0.156-0.433,0.244c-0.075,0.037-0.132,0.068-0.169,0.094
			c-0.025,0.013-0.113,0.05-0.263,0.112c-0.113,0.051-0.289,0.119-0.527,0.207c-0.112,0.051-0.238,0.094-0.376,0.132
			c-0.112,0.037-0.27,0.081-0.47,0.132c-0.088,0.025-0.157,0.044-0.207,0.056l-0.075,0.02c-0.063,0.013-0.119,0.025-0.169,0.037
			c-0.05,0.013-0.081,0.019-0.094,0.019c-0.05,0.013-0.113,0.025-0.188,0.038c-0.088,0.012-0.158,0.019-0.207,0.019
			c-0.139,0.025-0.295,0.044-0.471,0.057c-0.162,0.013-0.294,0.025-0.395,0.037h-1.373c-2.97,0-5.319-1.284-7.049-3.854
			c-0.789-1.153-1.297-2.431-1.522-3.835c-0.075-0.526-0.113-1.04-0.113-1.541c0-0.502,0.038-1.016,0.113-1.542
			c0.351-2.193,1.328-4.023,2.933-5.489c1.629-1.467,3.509-2.2,5.639-2.2c0.527,0,1.06,0.051,1.599,0.151
			c1.793,0.351,3.327,1.215,4.605,2.594c1.291,1.392,2.087,3.039,2.388,4.944C300.116,204.784,300.154,205.298,300.154,205.8z
			 M296.112,204.258c-0.515-1.93-1.648-3.152-3.403-3.666c-0.4-0.125-0.82-0.188-1.26-0.188c-1.077,0-2.049,0.363-2.913,1.09
			c-0.853,0.714-1.429,1.636-1.729,2.764H296.112z"/>
		<path fill="#2E3E3D" d="M324.086,196.551c0.012,0.075,0.019,0.162,0.019,0.263c0,0.288-0.057,0.708-0.17,1.259
			c-0.188,0.966-0.507,1.743-0.958,2.332c-0.05,0.012-0.088,0.019-0.113,0.019c-0.013,0.013-0.025,0.019-0.037,0.019
			c-0.101,0-0.201,0.013-0.301,0.038c-0.163,0.037-0.282,0.063-0.357,0.075c-0.238,0.074-0.482,0.169-0.733,0.281
			c-0.063,0.025-0.125,0.057-0.188,0.095c-0.075,0.037-0.157,0.081-0.244,0.131c-0.088,0.051-0.177,0.106-0.264,0.17
			c-0.126,0.087-0.251,0.182-0.376,0.281c-0.088,0.075-0.177,0.157-0.263,0.245c-0.088,0.1-0.177,0.2-0.264,0.301
			c-0.101,0.1-0.188,0.2-0.264,0.301c-0.063,0.1-0.106,0.169-0.131,0.206c-0.051,0.063-0.095,0.132-0.132,0.207
			c-0.125,0.188-0.244,0.414-0.357,0.677c-0.05,0.113-0.094,0.226-0.132,0.339c-0.05,0.138-0.101,0.294-0.15,0.47
			c-0.025,0.113-0.05,0.226-0.075,0.339v0.037c-0.05,0.188-0.081,0.389-0.094,0.602v0.019c-0.013,0.075-0.019,0.145-0.019,0.207
			c-0.013,0.138-0.019,0.244-0.019,0.319v9.249h-3.835v-17.352c0.575-0.451,1.359-0.771,2.35-0.958
			c0.576-0.126,1.008-0.188,1.297-0.188c0.075,0,0.138,0.006,0.188,0.02v1.579c0.288-0.201,0.563-0.377,0.827-0.527
			c0.188-0.1,0.375-0.194,0.563-0.282c0.301-0.137,0.596-0.257,0.884-0.356c0.138-0.038,0.345-0.094,0.62-0.169
			c0.038-0.013,0.094-0.025,0.169-0.038c0.063-0.013,0.113-0.024,0.15-0.037c0.188-0.038,0.407-0.069,0.658-0.094
			c0.338-0.051,0.665-0.075,0.978-0.075H324.086z"/>
		<path fill="#2E3E3D" d="M343.674,205.8c0,0.501-0.037,1.015-0.112,1.541h-13.234c0.3,1.115,0.871,2.023,1.71,2.726
			c0.853,0.715,1.83,1.084,2.934,1.109c0.263,0.025,0.514,0.037,0.751,0.037c0.564,0,1.06-0.063,1.486-0.188
			c0.338-0.1,0.726-0.257,1.165-0.47c1.328,0.488,2.331,1.366,3.008,2.632l-0.207,0.15l-0.056,0.038l-0.603,0.376
			c-0.037,0.024-0.081,0.05-0.131,0.075c-0.113,0.075-0.257,0.156-0.433,0.244c-0.075,0.037-0.132,0.068-0.17,0.094
			c-0.024,0.013-0.112,0.05-0.263,0.112c-0.112,0.051-0.288,0.119-0.525,0.207c-0.114,0.051-0.239,0.094-0.377,0.132
			c-0.112,0.037-0.27,0.081-0.47,0.132c-0.089,0.025-0.157,0.044-0.207,0.056l-0.075,0.02c-0.063,0.013-0.119,0.025-0.169,0.037
			c-0.051,0.013-0.082,0.019-0.095,0.019c-0.05,0.013-0.112,0.025-0.188,0.038c-0.088,0.012-0.157,0.019-0.206,0.019
			c-0.139,0.025-0.296,0.044-0.471,0.057c-0.163,0.013-0.295,0.025-0.395,0.037h-1.372c-2.972,0-5.321-1.284-7.05-3.854
			c-0.79-1.153-1.298-2.431-1.523-3.835c-0.075-0.526-0.112-1.04-0.112-1.541c0-0.502,0.037-1.016,0.112-1.542
			c0.351-2.193,1.328-4.023,2.933-5.489c1.629-1.467,3.509-2.2,5.641-2.2c0.525,0,1.059,0.051,1.598,0.151
			c1.792,0.351,3.327,1.215,4.605,2.594c1.291,1.392,2.087,3.039,2.388,4.944C343.637,204.784,343.674,205.298,343.674,205.8z
			 M339.632,204.258c-0.514-1.93-1.647-3.152-3.402-3.666c-0.401-0.125-0.82-0.188-1.259-0.188c-1.079,0-2.05,0.363-2.914,1.09
			c-0.854,0.714-1.43,1.636-1.729,2.764H339.632z"/>
		<path fill="#2E3E3D" d="M360.537,196.568c0.05-0.012,0.113-0.018,0.188-0.018c0.288,0,0.721,0.062,1.297,0.188
			c0.99,0.188,1.774,0.507,2.351,0.959v15.81c0,0.502-0.038,1.016-0.113,1.542c-0.226,1.391-0.732,2.669-1.522,3.835
			c-0.602,0.902-1.334,1.66-2.199,2.274c-1.454,1.053-3.071,1.579-4.851,1.579h-4.944c-0.012-0.063-0.019-0.144-0.019-0.244
			c0-0.301,0.063-0.728,0.188-1.278c0.175-0.966,0.489-1.742,0.939-2.331h3.835c1.078,0,2.05-0.364,2.914-1.091
			c0.853-0.702,1.429-1.616,1.73-2.744c0.138-0.514,0.206-1.028,0.206-1.542v-0.057c-0.013,0-0.019,0.013-0.019,0.038l-0.02,0.075
			c-0.013,0-0.019-0.019-0.019-0.057c-1.441,1.016-3.039,1.522-4.794,1.522c-1.742,0-3.346-0.507-4.813-1.522
			c-1.253-0.877-2.23-2.036-2.933-3.478c-0.639-1.315-0.959-2.726-0.959-4.229c0-2.545,0.847-4.72,2.538-6.523
			c1.704-1.806,3.76-2.708,6.166-2.708c1.768,0,3.384,0.526,4.851,1.579V196.568z M358.676,210.048
			c1.028-0.89,1.629-2.049,1.805-3.478c0.038-0.251,0.057-0.508,0.057-0.771c0-1.479-0.477-2.745-1.429-3.798
			s-2.094-1.579-3.422-1.579c-1.341,0-2.488,0.526-3.439,1.579c-0.94,1.053-1.41,2.318-1.41,3.798c0,0.263,0.012,0.52,0.037,0.771
			c0.188,1.416,0.79,2.575,1.805,3.478c0.878,0.765,1.88,1.146,3.008,1.146C356.802,211.194,357.799,210.813,358.676,210.048z"/>
		<path fill="#2E3E3D" d="M368.922,193.054c0.575-0.439,1.359-0.759,2.35-0.959c0.576-0.113,1.002-0.169,1.278-0.169
			c0.088,0,0.157,0.006,0.207,0.019v3.666c-0.05-0.013-0.119-0.02-0.207-0.02c-0.276,0-0.702,0.057-1.278,0.17
			c-0.99,0.2-1.774,0.52-2.35,0.959V193.054z M368.922,197.678c0.575-0.438,1.359-0.758,2.35-0.958
			c0.552-0.113,0.965-0.169,1.241-0.169c0.1,0,0.182,0.006,0.244,0.018v18.461h-3.835V197.678z"/>
		<path fill="#2E3E3D" d="M386.48,205.18c1.403,0.789,2.362,1.76,2.876,2.913c0.237,0.526,0.357,0.99,0.357,1.392v0.338
			c0,1.479-0.696,2.714-2.087,3.703c-0.727,0.526-1.461,0.896-2.199,1.109c-0.915,0.264-1.792,0.395-2.632,0.395h-0.02
			c-0.1,0-0.251-0.006-0.45-0.019c-2.683-0.1-4.682-1.084-5.998-2.951c-0.351-0.501-0.526-0.821-0.526-0.959
			c0.163-0.125,0.357-0.257,0.583-0.395c0.99-0.614,1.956-0.946,2.895-0.997c0.026,0.088,0.069,0.195,0.133,0.32
			c0,0.013,0.006,0.024,0.019,0.037c0.012,0.025,0.025,0.045,0.038,0.057c0.538,0.877,1.604,1.315,3.195,1.315h0.244
			c0.865-0.012,1.554-0.257,2.068-0.732c0.313-0.376,0.47-0.733,0.47-1.072c0-0.676-0.602-1.253-1.805-1.729
			c-0.602-0.251-1.196-0.427-1.786-0.526c-1.178-0.251-2.1-0.577-2.764-0.978c-1.404-0.79-2.362-1.762-2.877-2.914
			c-0.237-0.526-0.356-0.984-0.356-1.372v-0.339c0-1.479,0.688-2.72,2.068-3.723c0.727-0.526,1.467-0.89,2.218-1.09
			c0.915-0.276,1.792-0.413,2.632-0.413c0.113,0,0.264,0.006,0.451,0.018c2.694,0.101,4.688,1.078,5.979,2.934
			c0.175,0.237,0.318,0.47,0.432,0.695c0.1,0.213,0.144,0.307,0.132,0.282c-0.238,0.176-0.434,0.307-0.584,0.395
			c-0.989,0.614-1.961,0.946-2.913,0.996c-0.012-0.088-0.051-0.188-0.112-0.301c-0.014-0.024-0.032-0.057-0.058-0.094
			c-0.552-0.877-1.616-1.316-3.195-1.316h-0.207c-0.877,0-1.578,0.245-2.105,0.733c-0.313,0.376-0.47,0.728-0.47,1.053
			c0,0.677,0.595,1.26,1.786,1.749c0.602,0.237,1.203,0.413,1.805,0.525C384.895,204.471,385.815,204.791,386.48,205.18z"/>
		<path fill="#2E3E3D" d="M401.689,213.525c0.112,0.539,0.169,0.959,0.169,1.26c0,0.088-0.007,0.169-0.02,0.244l-1.165-0.019
			c-1.43-0.075-2.582-0.357-3.46-0.846c-0.413-0.238-0.739-0.451-0.978-0.64c-1.917-1.466-2.876-3.396-2.876-5.79v-14.7
			c0.979-0.74,2.226-1.109,3.741-1.109h0.112v5.207h3.836v0.094c0,1.216-0.37,2.219-1.109,3.008h-2.727v7.501
			c0,0.89,0.302,1.667,0.903,2.331c0.125,0.101,0.25,0.194,0.376,0.282c0.087,0.063,0.176,0.125,0.263,0.188
			c0.101,0.05,0.182,0.094,0.244,0.132c0.063,0.024,0.126,0.056,0.188,0.094c0.251,0.112,0.495,0.2,0.733,0.263
			c0.075,0.025,0.193,0.05,0.356,0.075c0.102,0.025,0.2,0.044,0.302,0.057h0.037c0.025,0,0.063,0.006,0.113,0.019
			C401.181,211.777,401.501,212.561,401.689,213.525z"/>
		<path fill="#2E3E3D" d="M414.623,196.551c0.012,0.075,0.019,0.162,0.019,0.263c0,0.288-0.057,0.708-0.17,1.259
			c-0.188,0.966-0.507,1.743-0.959,2.332c-0.05,0.012-0.087,0.019-0.112,0.019c-0.013,0.013-0.025,0.019-0.037,0.019
			c-0.101,0-0.201,0.013-0.301,0.038c-0.163,0.037-0.282,0.063-0.357,0.075c-0.238,0.074-0.482,0.169-0.733,0.281
			c-0.063,0.025-0.125,0.057-0.188,0.095c-0.075,0.037-0.157,0.081-0.245,0.131c-0.088,0.051-0.176,0.106-0.263,0.17
			c-0.126,0.087-0.252,0.182-0.376,0.281c-0.088,0.075-0.176,0.157-0.263,0.245c-0.088,0.1-0.177,0.2-0.264,0.301
			c-0.101,0.1-0.188,0.2-0.264,0.301c-0.063,0.1-0.106,0.169-0.131,0.206c-0.051,0.063-0.094,0.132-0.132,0.207
			c-0.125,0.188-0.244,0.414-0.357,0.677c-0.051,0.113-0.094,0.226-0.131,0.339c-0.051,0.138-0.102,0.294-0.151,0.47
			c-0.024,0.113-0.05,0.226-0.075,0.339v0.037c-0.05,0.188-0.082,0.389-0.094,0.602v0.019c-0.013,0.075-0.019,0.145-0.019,0.207
			c-0.013,0.138-0.019,0.244-0.019,0.319v9.249h-3.836v-17.352c0.576-0.451,1.36-0.771,2.35-0.958
			c0.577-0.126,1.01-0.188,1.298-0.188c0.075,0,0.138,0.006,0.188,0.02v1.579c0.288-0.201,0.563-0.377,0.827-0.527
			c0.188-0.1,0.376-0.194,0.563-0.282c0.301-0.137,0.596-0.257,0.884-0.356c0.138-0.038,0.345-0.094,0.62-0.169
			c0.038-0.013,0.094-0.025,0.169-0.038c0.063-0.013,0.113-0.024,0.15-0.037c0.188-0.038,0.407-0.069,0.658-0.094
			c0.339-0.051,0.664-0.075,0.978-0.075H414.623z"/>
		<path fill="#2E3E3D" d="M430.376,196.568c0.075-0.012,0.157-0.018,0.245-0.018c0.288,0,0.701,0.056,1.24,0.169
			c0.99,0.2,1.774,0.52,2.35,0.958v17.352h-3.835v-1.579c-1.466,1.053-3.083,1.579-4.85,1.579c-2.406,0-4.462-0.902-6.167-2.706
			c-1.691-1.806-2.537-3.979-2.537-6.523c0-2.558,0.846-4.738,2.537-6.542c1.705-1.793,3.761-2.689,6.167-2.689
			c1.767,0,3.384,0.521,4.85,1.562V196.568z M425.526,211.176c1.328,0,2.469-0.526,3.422-1.579c0.952-1.053,1.428-2.318,1.428-3.797
			c0-1.492-0.476-2.764-1.428-3.816c-0.953-1.053-2.094-1.579-3.422-1.579c-1.341,0-2.488,0.526-3.44,1.579
			c-0.94,1.053-1.409,2.324-1.409,3.816c0,1.479,0.469,2.744,1.409,3.797C423.038,210.649,424.186,211.176,425.526,211.176z"/>
		<path fill="#2E3E3D" d="M447.39,213.525c0.112,0.539,0.169,0.959,0.169,1.26c0,0.088-0.006,0.169-0.019,0.244l-1.166-0.019
			c-1.428-0.075-2.581-0.357-3.458-0.846c-0.414-0.238-0.74-0.451-0.978-0.64c-1.918-1.466-2.877-3.396-2.877-5.79v-14.7
			c0.978-0.74,2.225-1.109,3.741-1.109h0.113v5.207h3.835v0.094c0,1.216-0.37,2.219-1.109,3.008h-2.726v7.501
			c0,0.89,0.301,1.667,0.902,2.331c0.125,0.101,0.25,0.194,0.375,0.282c0.088,0.063,0.176,0.125,0.264,0.188
			c0.1,0.05,0.182,0.094,0.245,0.132c0.063,0.024,0.125,0.056,0.188,0.094c0.251,0.112,0.495,0.2,0.732,0.263
			c0.075,0.025,0.195,0.05,0.358,0.075c0.1,0.025,0.2,0.044,0.3,0.057h0.038c0.024,0,0.063,0.006,0.112,0.019
			C446.882,211.777,447.202,212.561,447.39,213.525z"/>
		<path fill="#2E3E3D" d="M450.304,193.054c0.576-0.439,1.359-0.759,2.35-0.959c0.577-0.113,1.003-0.169,1.279-0.169
			c0.087,0,0.156,0.006,0.206,0.019v3.666c-0.05-0.013-0.119-0.02-0.206-0.02c-0.276,0-0.702,0.057-1.279,0.17
			c-0.99,0.2-1.773,0.52-2.35,0.959V193.054z M450.304,197.678c0.576-0.438,1.359-0.758,2.35-0.958
			c0.552-0.113,0.965-0.169,1.241-0.169c0.101,0,0.182,0.006,0.244,0.018v18.461h-3.835V197.678z"/>
		<path fill="#2E3E3D" d="M466.489,196.568c2.394,0,4.443,0.896,6.147,2.689c1.692,1.804,2.539,3.984,2.539,6.542
			c0,2.544-0.847,4.718-2.539,6.523c-1.704,1.804-3.754,2.706-6.147,2.706c-2.405,0-4.461-0.902-6.166-2.706
			c-1.691-1.806-2.538-3.979-2.538-6.523c0-2.558,0.847-4.738,2.538-6.542C462.028,197.465,464.084,196.568,466.489,196.568z
			 M466.489,211.176c1.329,0,2.469-0.526,3.422-1.579c0.952-1.053,1.429-2.318,1.429-3.797c0-1.492-0.477-2.764-1.429-3.816
			c-0.953-1.053-2.093-1.579-3.422-1.579c-1.341,0-2.487,0.526-3.44,1.579c-0.939,1.053-1.409,2.324-1.409,3.816
			c0,1.479,0.47,2.744,1.409,3.797C464.002,210.649,465.148,211.176,466.489,211.176z"/>
		<path fill="#2E3E3D" d="M492.921,198.13c2.57,1.829,3.854,4.386,3.854,7.67v9.229h-3.854V205.8c0-1.492-0.47-2.764-1.409-3.816
			c-0.953-1.053-2.1-1.579-3.441-1.579c-1.328,0-2.468,0.526-3.421,1.579c-0.952,1.053-1.428,2.324-1.428,3.816v9.229h-3.836
			v-17.352c0.576-0.438,1.36-0.758,2.35-0.958c0.552-0.113,0.966-0.169,1.241-0.169c0.1,0,0.183,0.006,0.245,0.018v1.562
			c1.466-1.054,3.083-1.579,4.849-1.579C489.851,196.551,491.468,197.076,492.921,198.13z"/>
	</g>
	<g>
		<path fill="none" d="M451.186,173.854c-0.154-1.186-0.291-2.385-0.414-3.593h-41.533v3.593H451.186z"/>
		<path fill="none" d="M442.871,115.932c1.616-0.159,2.775-0.504,3.479-1.035c1.123-0.903,1.984-2.139,2.583-3.707
			c0.596-1.566,0.895-4.024,0.895-7.372c0-3.4-0.299-5.858-0.895-7.373c-0.599-1.514-1.46-2.669-2.583-3.466
			c-0.704-0.531-1.863-0.877-3.479-1.037c-1.618-0.159-4.499-0.239-8.646-0.239h-24.986v24.468h24.986
			C438.372,116.171,441.253,116.092,442.871,115.932z"/>
		<path fill="none" d="M409.238,167.166h41.243c-0.112-1.35-0.223-2.742-0.328-4.179h-40.915V167.166z"/>
		<path fill="none" d="M362.742,173.854v-3.593h-13.747c-0.853,1.312-1.771,2.51-2.752,3.593H362.742z"/>
		<path fill="none" d="M352.58,162.987c-0.293,0.844-0.609,1.655-0.956,2.424c-0.271,0.603-0.553,1.187-0.843,1.755h11.961v-4.179
			H352.58z"/>
		<path fill="none" d="M448.986,149.565c-0.211-1.381-0.458-2.471-0.739-3.268c-0.28-0.797-0.668-1.447-1.159-1.952
			c-0.492-0.505-1.02-0.969-1.581-1.395c-0.633-0.319-1.23-0.61-1.793-0.877c-0.563-0.266-1.354-0.479-2.371-0.638
			c-1.021-0.159-2.285-0.306-3.796-0.438c-1.513-0.132-3.393-0.199-5.642-0.199h-22.667v18.063h40.632
			c-0.087-1.34-0.171-2.709-0.252-4.116C449.407,152.674,449.197,150.948,448.986,149.565z"/>
		<path fill="#095D80" d="M354.979,145.855c0-7.801-0.885-13.788-2.652-17.961c-1.769-4.173-4.132-7.377-7.09-9.614
			c-2.381-1.801-5.125-3.178-8.227-4.133c-3.103-0.953-7.324-1.704-12.664-2.25l-46.328-4.009c-3.825-0.381-6.549-0.682-8.173-0.9
			c-1.623-0.217-2.725-0.544-3.301-0.982c-1.372-0.982-2.058-3.218-2.058-6.71c0-3.654,0.613-5.944,1.841-6.873
			c0.721-0.544,3.68-0.818,8.876-0.818h22.082c2.958,0,5.068,0.082,6.332,0.245c1.261,0.164,2.254,0.519,2.977,1.063
			c0.793,0.601,1.334,1.569,1.624,2.905c0.287,1.337,0.576,3.833,0.865,7.487l43.622,8.182c0-10.474-0.253-17.497-0.757-21.07
			c-0.506-3.572-1.21-6.614-2.111-9.123c-0.903-2.509-1.967-4.609-3.193-6.301c-1.228-1.69-2.67-3.136-4.33-4.336
			c-2.525-1.909-5.917-3.286-10.175-4.132c-4.258-0.845-10.03-1.269-17.318-1.269H255.18c-5.918,0-10.79,0.506-14.613,1.514
			c-3.826,1.01-6.928,2.415-9.309,4.214c-3.537,2.673-6.424,6.411-8.66,11.21c-2.238,4.801-3.356,10.965-3.356,18.493
			c0,3.982,0.234,7.486,0.704,10.514c0.468,3.028,1.137,5.634,2.002,7.815c0.866,2.183,1.93,4.023,3.193,5.523
			c1.262,1.501,2.652,2.796,4.167,3.886c4.546,3.492,11.545,5.619,20.999,6.383l45.896,4.01c3.103,0.274,5.646,0.572,7.632,0.899
			c1.983,0.327,3.301,0.71,3.95,1.146c1.299,0.981,1.948,3.22,1.948,6.709c0,4.038-0.649,6.547-1.948,7.528
			c-1.082,0.765-4.871,1.146-11.365,1.146h-22.406c-3.248,0-5.612-0.082-7.091-0.245c-1.479-0.164-2.58-0.518-3.301-1.063
			c-0.579-0.437-1.047-1.433-1.407-2.987c-0.362-1.555-0.687-4.513-0.975-8.878l-43.73-6.464c0,9.438,0.179,16.024,0.541,19.761
			c0.083,0.86,0.18,1.688,0.288,2.492h135.396C354.563,155.102,354.979,150.768,354.979,145.855z"/>
		<path fill="#095D80" d="M227.036,177.031c2.814,2.127,6.333,3.588,10.554,4.378c4.221,0.791,9.867,1.187,16.94,1.187h64.081
			c6.205,0,11.238-0.504,15.1-1.514c3.859-1.009,6.944-2.414,9.255-4.215c0.386-0.292,0.763-0.601,1.134-0.919H225.746
			C226.162,176.329,226.589,176.693,227.036,177.031z"/>
		<path fill="#095D80" d="M351.624,165.411c0.347-0.769,0.663-1.58,0.956-2.424H219.056c0.232,1.063,0.492,2.064,0.781,2.997
			c0.126,0.405,0.257,0.798,0.392,1.182h130.553C351.071,166.598,351.353,166.014,351.624,165.411z"/>
		<path fill="#095D80" d="M348.995,170.261H221.512c0.423,0.858,0.875,1.646,1.356,2.352c0.293,0.431,0.6,0.844,0.917,1.241h122.458
			C347.225,172.771,348.143,171.572,348.995,170.261z"/>
		<rect x="362.742" y="162.987" fill="#095D80" width="46.496" height="4.179"/>
		<path fill="#095D80" d="M451.186,173.854H498.7c-0.12-1.127-0.238-2.324-0.354-3.593h-47.575
			C450.895,171.469,451.031,172.668,451.186,173.854z"/>
		<path fill="#095D80" d="M450.153,162.987c0.105,1.437,0.216,2.829,0.328,4.179h47.6c-0.112-1.378-0.218-2.772-0.32-4.179H450.153z
			"/>
		<rect x="362.742" y="175.948" fill="#095D80" width="46.496" height="4.063"/>
		<path fill="#095D80" d="M452.148,180.011h47.34c-0.19-1.205-0.374-2.563-0.553-4.063h-47.452
			C451.687,177.315,451.902,178.674,452.148,180.011z"/>
		<path fill="#095D80" d="M409.238,140.799h22.667c2.249,0,4.129,0.067,5.642,0.199c1.511,0.133,2.775,0.279,3.796,0.438
			c1.018,0.159,1.809,0.372,2.371,0.638c0.563,0.267,1.16,0.558,1.793,0.877c0.562,0.426,1.089,0.89,1.581,1.395
			c0.491,0.505,0.879,1.155,1.159,1.952c0.281,0.797,0.528,1.887,0.739,3.268c0.211,1.383,0.421,3.108,0.632,5.181
			c0.081,1.407,0.165,2.776,0.252,4.116h47.61c-0.153-2.371-0.294-4.774-0.418-7.225c-0.142-4.144-0.791-7.558-1.951-10.241
			c-1.159-2.683-2.777-4.834-4.85-6.455c-2.074-1.621-4.586-2.896-7.538-3.826c-2.952-0.929-6.291-1.713-10.016-2.352v-0.318
			c4.286-0.638,8.048-1.595,11.28-2.87c3.232-1.274,5.939-3.054,8.119-5.339c2.178-2.284,3.796-5.193,4.85-8.728
			c1.055-3.533,1.582-7.957,1.582-13.271c0-3.931-0.211-7.305-0.633-10.122c-0.422-2.816-1.021-5.233-1.793-7.252
			c-0.773-2.019-1.775-3.732-3.004-5.141c-1.231-1.407-2.726-2.775-4.481-4.104c-2.883-2.178-6.59-3.706-11.123-4.583
			s-10.596-1.315-18.187-1.315h-96.576v93.142h46.496V140.799z M409.238,91.703h24.986c4.147,0,7.028,0.08,8.646,0.239
			c1.616,0.159,2.775,0.506,3.479,1.037c1.123,0.797,1.984,1.953,2.583,3.466c0.596,1.515,0.895,3.973,0.895,7.373
			c0,3.347-0.299,5.806-0.895,7.372c-0.599,1.568-1.46,2.804-2.583,3.707c-0.704,0.531-1.863,0.876-3.479,1.035
			c-1.618,0.16-4.499,0.239-8.646,0.239h-24.986V91.703z"/>
		<rect x="362.742" y="170.261" fill="#095D80" width="46.496" height="3.593"/>
	</g>
</g>
<path fill="#2E3E3D" d="M130.917,157.32c0.114,0.521,0.24,1.034,0.377,1.542h60.233c3.725-7.393,12.506-24.938,21.945-43.829
	c-0.719-2.067-1.288-4.453-1.705-7.163c-0.492-3.192-0.738-6.886-0.738-11.083c0-7.936,1.172-14.434,3.518-19.494
	c2.344-5.059,5.369-8.999,9.076-11.817c2.496-1.897,5.746-3.376,9.756-4.441c2.214-0.587,4.774-1.007,7.657-1.27
	c2.888-5.808,4.681-9.436,4.782-9.68c3.881-6.55,5.396-14.538,3.642-22.573c-3.661-16.769-20.145-27.376-36.817-23.693
	c-10.255,2.265-18.182,9.409-21.924,18.474c-0.469,0.793-21.443,42.735-37.623,75.166c-10.092,20.229-18.318,36.757-18.538,37.29
	C130.678,141.299,129.162,149.286,130.917,157.32z"/>
<path fill="none" d="M131.75,141.078c-0.618,1.83-0.924,3.782-1.333,5.666c-0.245,1.128-0.506,2.339-0.5,3.518
	c0.005,1.214-0.185,2.435,0.101,3.635c0.26,1.097,0.906,2.128,1.066,3.266"/>
<g>
</g>
<g>
</g>
<g>
</g>
<g>
</g>
<g>
</g>
<g>
</g>
</svg>
