<svg id="LEADING_ICON" data-name="LEADING ICON" xmlns="http://www.w3.org/2000/svg" xmlns:xlink="http://www.w3.org/1999/xlink" width="24" height="24" viewBox="0 0 24 24">
  <defs>
    <clipPath id="clip-path">
      <path id="icon_action_translate_24px" data-name="icon/action/translate_24px" d="M20,20,18.87,17H14.12L13,20H11L15.5,8h2L22,20ZM1.58,15.58,6.67,10.56A17.548,17.548,0,0,1,3.69,6h2A15.681,15.681,0,0,0,8,9.35a15.7,15.7,0,0,0,3.17-5.36H0V2H7V0H9V2h7V4H13.07a17.521,17.521,0,0,1-3.71,6.53l-.03.03,2.54,2.51-.76,2.04L8,12,3,17Z" transform="translate(1 2)" fill="none"/>
    </clipPath>
  </defs>
  <g id="Group_29" data-name="Group 29">
    <path id="icon_action_translate_24px-2" data-name="icon/action/translate_24px" d="M20,20,18.87,17H14.12L13,20H11L15.5,8h2L22,20ZM1.58,15.58,6.67,10.56A17.548,17.548,0,0,1,3.69,6h2A15.681,15.681,0,0,0,8,9.35a15.7,15.7,0,0,0,3.17-5.36H0V2H7V0H9V2h7V4H13.07a17.521,17.521,0,0,1-3.71,6.53l-.03.03,2.54,2.51-.76,2.04L8,12,3,17Z" transform="translate(1 2)" fill="none"/>
    <g id="Mask_Group_29" data-name="Mask Group 29" clip-path="url(#clip-path)">
      <g id="_Color" data-name="↳ Color">
        <rect id="Rectangle" width="24" height="24" fill="rgba(0,0,0,0.54)"/>
      </g>
    </g>
  </g>
</svg>
