<svg id="Capa_1" enable-background="new 0 0 512 512" height="512" viewBox="0 0 512 512" width="512" xmlns="http://www.w3.org/2000/svg"><g><path d="m181 62h30v30h-30z"/><path d="m211 92h30v30h-30z"/><path d="m241 62h30v30h-30z"/><path d="m271 92h30v30h-30z"/><path d="m301 62h30v30h-30z"/><path d="m391 182v-182h-270v182h-121v330h512v-330zm-330 180h-31v-30h31zm0 30v30h-31v-30zm0-90h-31v-30h31zm-31 180v-30h61v-210h-61v-30h91v270zm271 0h-90v-30h90zm60 0h-30v-60h-150v60h-30v-452h210zm30 0v-270h91v30h-61v210h61v30zm60-90h31v30h-31zm0-30v-30h31v30zm0-60v-30h31v30z"/><path d="m331 182h-150v210h150zm-30 60h-30v-30h30zm-30 30h30v30h-30zm-30 30h-30v-30h30zm0-90v30h-30v-30zm-30 120h30v30h-30zm60 30v-30h30v30z"/></g></svg>