<?xml version="1.0" encoding="utf-8"?>
<!-- Generator: Adobe Illustrator 22.1.0, SVG Export Plug-In . SVG Version: 6.00 Build 0)  -->
<svg version="1.1" id="Layer_1" xmlns="http://www.w3.org/2000/svg" xmlns:xlink="http://www.w3.org/1999/xlink" x="0px" y="0px"
	 viewBox="0 0 36.3 39.1" style="enable-background:new 0 0 36.3 39.1;" xml:space="preserve">
<title>company</title>
<path d="M2.3,13.3c-0.8-2.5,0.2-3.7,2.2-4.7C8.8,6.5,13,4.1,17.4,2c0.9-0.4,2.3-0.4,3.2,0c4.4,2.2,8.7,4.6,13.2,6.8
	c2,1,2.6,2.2,1.9,4.5C24.6,13.3,13.5,13.3,2.3,13.3z"/>
<path d="M35.8,33.4c0,1.7,0,3.2,0,4.9c-11.2,0-22.2,0-33.5,0c0-1.5,0-3.1,0-4.9C13.3,33.4,24.4,33.4,35.8,33.4z"/>
<path d="M5.8,17.3c1.7,0,3.2,0,4.9,0c0,4.1,0,8,0,12.1c-1.6,0-3.2,0-4.9,0C5.8,25.5,5.8,21.6,5.8,17.3z"/>
<path d="M32.1,29.5c-1.7,0-3.1,0-4.9,0c0-4,0-8,0-12.2c1.6,0,3.1,0,4.9,0C32.1,21.3,32.1,25.2,32.1,29.5z"/>
<path d="M21.5,29.4c-0.9,0.1-1.6,0.1-2.3,0.1c-0.8,0-1.6-0.1-2.6-0.1c0-4.1,0-8,0-12.2c1.6,0,3.2,0,4.9,0
	C21.5,21.3,21.5,25.2,21.5,29.4z"/>
</svg>
