<?xml version="1.0" encoding="utf-8"?>
<!-- Generator: Adobe Illustrator 22.1.0, SVG Export Plug-In . SVG Version: 6.00 Build 0)  -->
<svg version="1.1" id="Layer_1" xmlns="http://www.w3.org/2000/svg" xmlns:xlink="http://www.w3.org/1999/xlink" x="0px" y="0px"
	 viewBox="0 0 354.3 363.8" style="enable-background:new 0 0 354.3 363.8;" xml:space="preserve">
<style type="text/css">
	.st0{fill:#FFFFFF;}
</style>
<g>
	<path d="M17.1,227.8c45.4-50.3,45.4-50.3,0.2-101.5c7.8-13.8,13.4-30.7,24.8-42c8.7-8.6,26.3-16.4,36.8-13.4
		c32.4,9.1,50.9,2.4,54.5-32.8c3.8-36.7,32.3-21,51.3-23.4c18.7-2.4,36.1-1.9,37.4,25.6c1.6,34,23.9,42.1,51.4,29.6
		c32.4-14.8,36.8,10.9,48.1,28.3c11.2,17.3,20.3,32.9-3.2,49.4c-28.9,20.2-25.6,42,2.2,61.7c26.7,18.9,7.1,36.1-2.5,53.2
		c-9.2,16.3-15.6,36.8-43.1,23c-31.1-15.6-50.3-3.2-53.2,30.9c-2.7,31.2-25.3,23.9-43.4,23.8c-19.1-0.2-44.1,8.5-45.3-25.7
		c-0.9-25.5-20.5-43.6-40.3-32.9c-37.7,20.4-48-1.9-61.1-27.1C26.9,245.2,21.7,236.3,17.1,227.8z M177.4,122
		c-31,0-57.7,26.1-57.5,56.2c0.3,30.2,27.6,55.6,59,54.7c29.7-0.8,54.4-25.2,55.1-54.4C234.8,148,208.8,122.1,177.4,122z"/>
	<path class="st0" d="M177.4,122c31.4,0,57.4,26,56.6,56.5c-0.7,29.2-25.4,53.6-55.1,54.4c-31.4,0.8-58.7-24.6-59-54.7
		C119.7,148.1,146.4,122,177.4,122z"/>
</g>
</svg>
