<?xml version="1.0" encoding="utf-8"?>
<!-- Generator: Adobe Illustrator 22.1.0, SVG Export Plug-In . SVG Version: 6.00 Build 0)  -->
<svg version="1.1" id="Layer_1" xmlns="http://www.w3.org/2000/svg" xmlns:xlink="http://www.w3.org/1999/xlink" x="0px" y="0px"
	 viewBox="0 0 138.3 97.8" style="enable-background:new 0 0 138.3 97.8;" xml:space="preserve">
<path d="M62.7,86.7C60.8,73,63.3,67.9,75.9,65.6c8.2-1.5,17.3-1.4,25.4,0.3c11.8,2.4,14.3,8,11.8,20.8
	C96.5,86.7,79.8,86.7,62.7,86.7z"/>
<path d="M52.6,86.8c-11.9,0-22.1,0-32.2,0c-3.4-13.4-0.6-19.5,12-24.2c8.8-3.3,17.9-5.7,29.5-2.4C52.6,67.4,51.3,76.5,52.6,86.8z"/>
<path d="M52.7,49c-7.4,0.2-14.3-6.2-14.6-13.6c-0.3-7.4,6-14.4,13.4-14.8c7.7-0.4,14.9,6.2,15,14C66.7,41.9,60.1,48.8,52.7,49z"/>
<path d="M99.8,41.7c0.1,6.2-5.9,12.1-12.1,12c-6-0.1-11.4-5.6-11.5-11.7c-0.1-6.2,5-11.7,11.2-12C93.6,29.8,99.7,35.5,99.8,41.7z"/>
</svg>
