<?xml version="1.0" encoding="utf-8"?>
<!-- Generator: Adobe Illustrator 22.1.0, SVG Export Plug-In . SVG Version: 6.00 Build 0)  -->
<svg version="1.1" id="Layer_1" xmlns="http://www.w3.org/2000/svg" xmlns:xlink="http://www.w3.org/1999/xlink" x="0px" y="0px"
	 viewBox="0 0 247.2 238.8" style="enable-background:new 0 0 247.2 238.8;" xml:space="preserve">
<style type="text/css">
	.st0{fill:#FFFFFF;}
</style>
<g>
	<path d="M69.2,107.7c-4.1-9.2-7.9-17.7-11.7-26.2c-3.3-7.4-1.4-12.5,6-15.9c9.8-4.5,19.7-8.9,29.6-13.3c7.7-3.4,12.7-1.5,16.2,6.1
		c6.5,14.2,13.1,28.4,19.1,42.8c2.1,5,4.7,7.6,10.2,6.5c1.3-0.2,2.6,0,4.7,0c-2-7.1-3.9-13.7-5.8-20.3c-1-3.5-2.3-7-2.9-10.5
		c-0.2-1.3,0.5-3.5,1.5-4.1c0.9-0.6,3.2-0.1,4.2,0.8c7,5.8,17.7,7.6,25,3.1c2.1-1.3,4.1-4.4,4.3-6.9c0.6-5.9,0.3-12,0.2-18
		c-0.1-5.2-3.1-8.3-7.4-8.2c-4.2,0.1-6.8,3-7.1,8c-0.1,1,0.3,2.3-0.2,2.9c-0.9,1.2-2.1,2.7-3.4,2.9c-0.8,0.1-2.6-1.5-3-2.6
		c-2.4-6.9,2.8-15.8,10-17.8c7.9-2.1,16.3,2.6,17.4,10.7c0.9,6.9,0.8,14,0.6,20.9c-0.2,5.4,2.2,8.2,7,9.3c8,1.9,15.8,2.2,22.3-4.3
		c0.9-0.9,3.8-1.4,4.1-0.9c1,1.4,1.9,3.6,1.5,5.1c-2.4,9.1-5.2,18.2-7.9,27.3c-0.2,0.6-0.3,1.3-0.5,1.8c0.4,0.3,0.6,0.7,0.8,0.7
		c8.2,0.3,8.1-0.3,8.1,9c0,19,0,38,0,57c0,19.7-13.6,33.3-33.2,33.3c-32.3,0-64.7,0-97,0c-19.4,0-32.9-13.6-32.9-33.1
		c-0.1-19.8,0-39.7,0-59.5c0-6.5,0.2-6.6,6.9-6.6C59.9,107.7,64.1,107.7,69.2,107.7z M56.1,114.9c-0.1,1.2-0.2,2-0.2,2.8
		c0,19.3-0.1,38.7,0.1,58c0.1,13.7,10.8,24.2,24.6,24.2c33.2,0.1,66.3,0.1,99.5,0c14.3,0,24.9-10.6,25-24.9c0-16,0-32,0-48
		c0-4,0-7.9,0-12.1C155.2,114.9,105.9,114.9,56.1,114.9z M123.8,107.7c-7.5-16.6-14.4-32.1-21.7-47.6c-0.6-1.2-4.2-2-5.7-1.4
		C86.2,62.9,76.3,67.5,66.3,72c-3.2,1.4-4,3.5-2.5,6.8c4.1,8.7,7.9,17.6,12,26.3c0.6,1.2,2.3,2.5,3.5,2.6
		C93.8,107.8,108.2,107.7,123.8,107.7z M169.5,107.7c0-8.6,0-16.5,0-23.3c-8.5,0.6-16.9,1.1-25.2,1.6c1.7,5.7,3.5,12.1,5.6,18.4
		c0.4,1.3,2.2,3,3.4,3.1C158.5,107.9,163.8,107.7,169.5,107.7z M177.1,84.6c0,6.8,0,14.8,0,23.2c5.6,0,10.7,0.1,15.8-0.1
		c1.1,0,2.7-0.8,3-1.7c2.2-6.8,4.2-13.8,6-19.9C193.4,85.6,185.3,85.1,177.1,84.6z"/>
	<path class="st0" d="M56.1,114.9c49.8,0,99.1,0,148.9,0c0,4.2,0,8.1,0,12.1c0,16,0,32,0,48c0,14.3-10.6,24.9-25,24.9
		c-33.2,0.1-66.3,0.1-99.5,0c-13.8,0-24.5-10.5-24.6-24.2c-0.2-19.3-0.1-38.7-0.1-58C55.9,116.9,56,116.1,56.1,114.9z M127,162.5
		c0,1.3,0,1.8,0,2.3c0.1,2.8-0.7,6.4,3.5,6.4c4.2,0,3.2-3.6,3.7-6.3c0.3-1.5,1.6-3.4,3-4.1c5.8-2.7,10.2-6.4,10.8-13.1
		c0.9-9.3-5.2-16.7-15-18.6c-8-1.5-17.2,4-19.5,12c-0.7,2.4-1.9,5.6,1.7,6.8c3.7,1.2,4.2-1.7,4.9-4.5c1.2-5,6.2-8,11.5-7.5
		c5,0.5,9,4.2,9.4,8.8c0.5,5-1.7,8.4-7.8,9.9C128.3,155.9,125.8,158,127,162.5z M135.4,181.9c-2.4-1.4-3.8-2.9-5.2-2.8
		c-1.1,0.1-3.2,2.3-3,2.9c0.4,1.4,2,3.3,3.3,3.4C131.7,185.5,133.1,183.6,135.4,181.9z"/>
	<path class="st0" d="M123.8,107.7c-15.5,0-30,0.1-44.5-0.1c-1.2,0-2.9-1.4-3.5-2.6c-4.1-8.7-7.9-17.5-12-26.3
		c-1.5-3.3-0.7-5.4,2.5-6.8c10-4.4,20-9.1,30.1-13.2c1.5-0.6,5.1,0.2,5.7,1.4C109.4,75.6,116.3,91.2,123.8,107.7z M71.4,82.7
		c1.6-2.6,3.2-4,3.1-5.3c-0.1-1.1-2.2-3.1-3.1-2.9c-1.3,0.3-3.1,1.9-3.3,3.2C68,78.9,69.7,80.3,71.4,82.7z"/>
	<path class="st0" d="M169.5,107.7c-5.7,0-11,0.2-16.3-0.1c-1.2-0.1-2.9-1.8-3.4-3.1c-2.1-6.3-3.9-12.6-5.6-18.4
		c8.3-0.5,16.7-1.1,25.2-1.6C169.5,91.2,169.5,99.1,169.5,107.7z"/>
	<path class="st0" d="M177.1,84.6c8.2,0.5,16.3,1,24.8,1.5c-1.8,6.1-3.8,13.1-6,19.9c-0.3,0.8-1.9,1.6-3,1.7
		c-5.1,0.2-10.3,0.1-15.8,0.1C177.1,99.4,177.1,91.4,177.1,84.6z"/>
	<path d="M201.7,189.4H60.6c-4,0-7.3-3.3-7.3-7.3v-61.9c0-4,3.3-7.3,7.3-7.3h141.1c4,0,7.3,3.3,7.3,7.3v61.9
		C209,186.1,205.7,189.4,201.7,189.4z"/>
	<g>
		<path class="st0" d="M127,156.5c-1.2-4.5,1.3-6.6,6.3-7.8c6-1.5,8.3-4.9,7.8-9.9c-0.5-4.6-4.5-8.3-9.4-8.8
			c-5.3-0.5-10.3,2.6-11.5,7.5c-0.7,2.8-1.2,5.7-4.9,4.5c-3.6-1.2-2.4-4.3-1.7-6.8c2.3-8,11.5-13.6,19.5-12
			c9.9,1.9,15.9,9.3,15,18.6c-0.6,6.8-5.1,10.4-10.8,13.1c-1.4,0.6-2.7,2.5-3,4.1c-0.5,2.7,0.5,6.4-3.7,6.3c-4.2,0-3.4-3.7-3.5-6.4
			C126.9,158.3,127,157.8,127,156.5z"/>
		<path class="st0" d="M135.4,175.9c-2.3,1.8-3.7,3.6-4.9,3.5c-1.3-0.1-2.9-2-3.3-3.4c-0.2-0.7,1.9-2.9,3-2.9
			C131.6,173,133,174.5,135.4,175.9z"/>
	</g>
	<path d="M71.4,82.7c-1.7-2.5-3.4-3.9-3.3-5c0.2-1.3,2-3,3.3-3.2c0.9-0.2,3,1.8,3.1,2.9C74.6,78.7,73.1,80.1,71.4,82.7z"/>
</g>
</svg>
