<?xml version="1.0" encoding="utf-8"?>
<!-- Generator: Adobe Illustrator 22.1.0, SVG Export Plug-In . SVG Version: 6.00 Build 0)  -->
<svg version="1.1" id="Layer_1" xmlns="http://www.w3.org/2000/svg" xmlns:xlink="http://www.w3.org/1999/xlink" x="0px" y="0px"
	 viewBox="0 0 262.8 340" style="enable-background:new 0 0 262.8 340;" xml:space="preserve">
<g>
	<path d="M40.8,298c-3.7-1.2-5-3.7-5-7.5c0.1-78,0.1-155.9,0.1-233.9c0-4.7,2-6.6,7.3-6.6c48.3,0,96.7,0,145,0c8.4,0,16.8,0,25.3,0
		c5.3,0,7.1,1.9,7.1,7.2c0,77.7,0,155.4,0.1,233.2c0,3.8-1.2,6.4-4.9,7.6C157.4,298,99.1,298,40.8,298z M206.2,175.4
		c0-34.7,0-69.5,0-104.2c0-5.5-1.9-7.4-7.5-7.4c-46.6,0-93.1,0-139.7,0c-6.4,0-8.1,1.7-8.1,8c0,56.4,0,112.9,0,169.3
		c0,13.2,0,26.4,0,39.6c0,4.3,2.1,6.4,6.4,6.5c0.9,0,1.8,0,2.7,0c46.1,0,92.1,0,138.2,0c6.2,0,8-1.8,8-7.9
		C206.2,244.7,206.2,210,206.2,175.4z"/>
	<path d="M194.6,105.9c0,5.1,0,10.1,0,15.3c-44.2,0-88.3,0-132.7,0c0-5,0-10.1,0-15.3C106,105.9,150.2,105.9,194.6,105.9z"/>
	<path d="M61.8,100.2c0-5.2,0-10.1,0-15.3c44.2,0,88.4,0,132.7,0c0,5,0,10,0,15.3C150.3,100.2,106.2,100.2,61.8,100.2z"/>
	<path d="M194.7,142.3c-44.5,0-88.6,0-132.9,0c0-5.1,0-10.1,0-15.4c0.8-0.1,1.7-0.2,2.5-0.2c42.5,0,85,0,127.5,0
		c2.2,0,3,0.5,2.9,2.8C194.6,133.7,194.7,137.9,194.7,142.3z"/>
	<path d="M61.8,163.2c0-5.1,0-10.1,0-15.2c44.3,0,88.5,0,132.8,0c0,5.1,0,10.1,0,15.2C150.3,163.2,106.2,163.2,61.8,163.2z"/>
	<path d="M194.6,169c0,5.1,0,10.1,0,15.2c-44.3,0-88.4,0-132.7,0c0-5.1,0-10,0-15.2C106,169,150.2,169,194.6,169z"/>
	<path d="M194.5,205.2c-44.3,0-88.4,0-132.6,0c0-5.1,0-10.1,0-15.3c44.1,0,88.3,0,132.6,0C194.5,194.9,194.5,199.9,194.5,205.2z"/>
	<path d="M123.5,260.2c0.8-1.1,1.2-1.9,1.8-2.5c8.4-9.1,16.8-18.2,25.3-27.2c1-1.1,2.4-2,3.8-2.4c2.3-0.6,4.3,0.5,5.4,2.7
		c1.1,2.2,0.8,4.3-0.9,6.1c-3.3,3.6-6.6,7.1-9.9,10.7c-7.3,7.9-14.6,15.8-21.9,23.7c-3.7,3.9-7.2,3.5-9.9-1.1
		c-3.4-5.8-6.9-11.7-10.3-17.6c-1.9-3.3-1.4-6.4,1.3-8c2.7-1.6,5.8-0.6,7.7,2.7C118.3,251.4,120.7,255.5,123.5,260.2z"/>
</g>
</svg>
