<?xml version="1.0" encoding="utf-8"?>
<!-- Generator: Adobe Illustrator 22.1.0, SVG Export Plug-In . SVG Version: 6.00 Build 0)  -->
<svg version="1.1" id="Layer_1" xmlns="http://www.w3.org/2000/svg" xmlns:xlink="http://www.w3.org/1999/xlink" x="0px" y="0px"
	 viewBox="0 0 354.3 363.8" style="enable-background:new 0 0 354.3 363.8;" xml:space="preserve">
<style type="text/css">
	.st0{fill:#FFFFFF;}
</style>
<path d="M49.3,185.2c0-32.4-0.4-64.9,0.1-97.3c0.4-25.6,11.2-36.6,36.5-36.8c64.9-0.4,129.8-0.4,194.7,0c27.4,0.2,37.8,10.4,38,37.8
	c0.5,64.9,0.5,129.7,0,194.6c-0.2,26-10.8,36.6-36.5,36.7c-65.7,0.5-131.4,0.5-197.2-0.1c-24.1-0.2-35-11.2-35.4-35.2
	C48.8,251.8,49.3,218.5,49.3,185.2z M270.2,274.5c2.4-2.2,4.8-4.4,7.2-6.6c-7.5-11.3-12.6-25.9-22.8-33.4c-37-27-104.7-25.9-142.1,0
	c-14,9.7-21.7,21.8-15.2,40C155.9,274.5,213,274.5,270.2,274.5z M183,96.1c-23.6,0.6-43.9,21.6-43.6,45.2
	c0.2,23.5,21.1,44.2,44.5,44.4c24.3,0.1,46-22.3,44.9-46.5C227.8,115.5,206.5,95.5,183,96.1z"/>
<path class="st0" d="M270.2,274.5c-57.1,0-114.3,0-172.9,0c-6.5-18.2,1.2-30.3,15.2-40c37.3-25.9,105-27,142.1,0
	c10.3,7.5,15.4,22.1,22.8,33.4C275,270.1,272.6,272.3,270.2,274.5z"/>
<path class="st0" d="M183,96.1c23.5-0.6,44.8,19.4,45.8,43c1.1,24.2-20.6,46.6-44.9,46.5c-23.4-0.1-44.3-20.9-44.5-44.4
	C139.1,117.7,159.4,96.7,183,96.1z"/>
</svg>
