<?xml version="1.0" encoding="utf-8"?>
<!-- Generator: Adobe Illustrator 22.1.0, SVG Export Plug-In . SVG Version: 6.00 Build 0)  -->
<svg version="1.1" id="Layer_1" xmlns="http://www.w3.org/2000/svg" xmlns:xlink="http://www.w3.org/1999/xlink" x="0px" y="0px"
	 viewBox="0 0 100.3 84.4" style="enable-background:new 0 0 100.3 84.4;" xml:space="preserve">
<style type="text/css">
	.st0{fill:none;stroke:#020202;stroke-width:5;stroke-miterlimit:10;}
	.st1{fill:#FEFEFE;}
	.st2{fill:#161616;}
	.st3{fill:#0E0E0E;}
	.st4{fill:#0C0C0C;}
	.st5{fill:#F3F3F3;}
</style>
<g>
	<path class="st0" d="M81.1,31.8c-0.2,0.5-0.4,1.5-0.8,2.4c-1.1,2.5-0.7,4.2,1.7,5.9c5.3,3.7,5.3,7-0.1,10.7
		c-2.5,1.7-2.4,3.4-1.6,5.9c1.9,5.7-0.2,8.6-6.3,8.5c-2.8-0.1-4.2,0.7-4.9,3.5c-1.7,6-5,7.2-9.8,3.4c-2.4-1.9-4-1.9-6.5,0
		c-4.7,3.8-8.1,2.6-9.8-3.4c-0.8-2.8-2.1-3.6-4.9-3.5c-6.1,0.2-8.2-2.7-6.3-8.5c1-2.9,0.3-4.5-2.1-6.2c-4.7-3.3-4.7-6.9,0-10.2
		c2.5-1.7,3.1-3.4,2.1-6.2c-1.9-5.7,0.2-8.7,6.3-8.4c3.3,0.1,4.2-1.2,5-4c1.4-5.2,5.3-6.6,9.4-3.2c2.8,2.3,4.6,2.1,7.3-0.1
		c3.9-3.2,8.1-2,9.2,2.9c0.9,3.9,2.7,4.6,6.2,4.3C78.9,25.4,81.2,27.9,81.1,31.8z"/>
	<path class="st1" d="M49.7,70.8c-1.9-0.1-2.7-1.2-2.9-2.9c-0.8-4.5-3.3-6.6-8-6c-3.4,0.4-4.8-1.3-3.3-4.5c1.9-4.3,0.9-7.3-3.2-9.5
		c-3.3-1.8-2.6-4,0.3-5.6c3.9-2.2,4.8-5.2,3-9.2c-1.6-3.7,0-5,3.6-4.6c4.2,0.5,6.7-1.3,7.5-5.4c0.7-3.8,2.6-4.5,5.4-2
		c3.3,3,6.4,3,9.7,0c2.7-2.5,4.7-2.1,5.5,1.8c0.8,4.4,3.5,6,7.9,5.5c3.4-0.4,4.7,1.3,3.2,4.5c-1.8,4-1.2,7,2.8,9.2
		c3.3,1.8,3.5,4,0.1,5.8c-4,2.2-4.6,5.2-2.9,9.2c1.6,3.7-0.1,5-3.7,4.6c-4.3-0.5-6.6,1.4-7.5,5.4c-0.6,2.7-1.9,4.9-4.6,2.5
		c-4-3.5-7.5-3.9-11.2,0C51,70.4,50.2,70.5,49.7,70.8z"/>
	<path class="st2" d="M47.2,42.7c-3.1-0.3-5.1-1.9-5.1-5c-0.1-3.4,1.9-5.3,5.3-5.2c3.1,0.1,4.9,2,4.9,5.1
		C52.1,40.7,50.2,42.3,47.2,42.7z"/>
	<path class="st2" d="M62.7,57.2c-2.8-0.4-4.6-1.9-4.6-5c0-2.9,1.7-4.7,4.7-4.8c3.2,0,5.1,1.8,5,5.1C67.6,55.5,65.6,56.9,62.7,57.2z
		"/>
	<path class="st3" d="M65.1,36.9c-0.2,0.3-0.3,0.8-0.7,1.2c-3.7,4.1-7.4,8.3-11.1,12.4c-0.9,1-2,1.9-3.2,0.7c-1.1-1.1-0.1-2,0.7-2.8
		c3.7-4.1,7.3-8.3,10.9-12.4c0.6-0.7,1.2-1.5,2.3-1C64.9,35.2,65.2,35.8,65.1,36.9z"/>
	<path class="st4" d="M47.9,55.8c-2.2,0.1-3.2-0.7-3.2-1.8c0-0.7,1.1-1.7,1.9-1.8c1.6-0.4,2.5,0.7,2.5,1.8
		C49.2,54.5,48.6,55.8,47.9,55.8z"/>
	<path class="st5" d="M48.1,39c-1.7,0.1-2.5-0.7-2.5-1.7c0-0.5,0.8-1.4,1.4-1.7c1.2-0.4,2,0.7,2.1,1.7C49.2,37.9,48.4,38.6,48.1,39z
		"/>
	<path class="st5" d="M62.7,50.4c1.3,0.4,2.4,1.1,2,2.2c-0.3,0.7-1.1,1.4-1.7,1.4c-1.1,0-2-0.8-1.7-2.1
		C61.5,51.5,62.3,50.9,62.7,50.4z"/>
</g>
</svg>
