<?xml version="1.0" encoding="utf-8"?>
<!-- Generator: Adobe Illustrator 22.1.0, SVG Export Plug-In . SVG Version: 6.00 Build 0)  -->
<svg version="1.1" id="Layer_1" xmlns="http://www.w3.org/2000/svg" xmlns:xlink="http://www.w3.org/1999/xlink" x="0px" y="0px"
	 viewBox="0 0 63.3 73.9" style="enable-background:new 0 0 63.3 73.9;" xml:space="preserve">
<style type="text/css">
	.st0{fill:#FFFFFF;}
</style>
<path d="M36.8,45.8c0,2.5-0.1,5,0,7.4c0.1,1.2-0.5,1.6-2,1.6c-6.2,0-12.4,0-18.6,0c-1.4,0-1.8-0.4-1.8-1.5c0-5,0-10.1,0-15.1
	c0-1.1,0.4-1.5,1.8-1.5c6.3,0,12.6,0,18.9,0c1.5,0,1.7,0.6,1.7,1.6C36.7,40.9,36.8,43.4,36.8,45.8z M25.3,52
	C25.3,52,25.3,51.9,25.3,52c1.6,0,3.2,0,4.8,0c0.6,0,1.1-0.1,1-0.7c0-0.4-0.4-0.6-0.8-0.6c-3.3,0-6.5,0-9.8,0
	c-0.4,0-0.9,0.1-0.9,0.5c0,0.6,0.4,0.7,1,0.7C22.1,52,23.7,52,25.3,52z"/>
<path d="M39.8,35.7c0-6.1,0-12.1,0-18.2c0-2.2,5.3-6.8,7.8-6.7c0.9,0,1.8,0.3,2,1.2c0.3,1,0.4,2.3-0.9,2.8c-4.3,1.5-4.1,4.5-4.1,7.8
	c0.1,9.7,0,19.4,0,29c0,1.6,0,2.9-1.9,3.8c-0.8,0.4-1.5,1.3-1.6,2.1c-0.5,3.5-3.2,3.2-6.1,3.2c-3.8-0.1-15,0-18.9,0
	c-1.8,0-3.5-0.3-3.5-2.2c0-2,1.8-2.1,3.5-2.1c4.6,0,16.6-0.1,21.2,0c1.8,0,2.4-0.4,2.4-2C39.7,48,39.8,41.8,39.8,35.7
	C39.8,35.7,39.8,35.7,39.8,35.7z"/>
<path d="M47.5,54.9c3.1-0.1,5.6,2,5.8,4.7c0.2,2.8-2.4,5.2-5.5,5.3c-3.1,0-5.8-2.3-5.8-5C42,57.2,44.5,55,47.5,54.9z M47.5,57.2
	c-2,0.2-3.3,1.1-3.1,2.9c0.1,1.8,1.6,2.7,3.6,2.6c1.8-0.1,3-1.1,3-2.8C50.9,58,49.6,57.3,47.5,57.2z"/>
<path class="st0" d="M25.6,52c-1.6,0-3.2,0-4.8,0c-0.6,0-1-0.2-1-0.7c0-0.5,0.5-0.5,0.9-0.5c3.3,0,6.5,0,9.8,0
	c0.5,0,0.8,0.2,0.8,0.6c0,0.6-0.5,0.7-1,0.7C28.8,51.9,27.2,51.9,25.6,52C25.6,51.9,25.6,52,25.6,52z"/>
<path class="st0" d="M47.5,57.2c2.1,0.1,3.4,0.8,3.5,2.7c0,1.7-1.2,2.7-3,2.8c-2,0.1-3.4-0.8-3.6-2.6C44.3,58.3,45.5,57.4,47.5,57.2
	z"/>
<path class="st0" d="M25.6,46.9c-1.6,0-3.2,0-4.8,0c-0.6,0-1-0.2-1-0.7c0-0.5,0.5-0.5,0.9-0.5c3.3,0,6.5,0,9.8,0
	c0.5,0,0.8,0.2,0.8,0.6c0,0.6-0.5,0.7-1,0.7C28.8,46.9,27.2,46.9,25.6,46.9C25.6,46.9,25.6,46.9,25.6,46.9z"/>
<path class="st0" d="M25.6,42.4c-1.6,0-3.2,0-4.8,0c-0.6,0-1-0.2-1-0.7c0-0.5,0.5-0.5,0.9-0.5c3.3,0,6.5,0,9.8,0
	c0.5,0,0.8,0.2,0.8,0.6c0,0.6-0.5,0.7-1,0.7C28.8,42.4,27.2,42.4,25.6,42.4C25.6,42.4,25.6,42.4,25.6,42.4z"/>
<path d="M36.8,25c0,2.5-0.1,5,0,7.4c0.1,1.2-0.5,1.6-2,1.6c-6.2,0-12.4,0-18.6,0c-1.4,0-1.8-0.4-1.8-1.5c0-5,0-10.1,0-15.1
	c0-1.1,0.4-1.5,1.8-1.5c6.3,0,12.6,0,18.9,0c1.5,0,1.7,0.6,1.7,1.6C36.7,20.1,36.8,22.5,36.8,25z M25.3,31.1
	C25.3,31.1,25.3,31.1,25.3,31.1c1.6,0,3.2,0,4.8,0c0.6,0,1.1-0.1,1-0.7c0-0.4-0.4-0.6-0.8-0.6c-3.3,0-6.5,0-9.8,0
	c-0.4,0-0.9,0.1-0.9,0.5c0,0.6,0.4,0.7,1,0.7C22.1,31.2,23.7,31.1,25.3,31.1z"/>
<path class="st0" d="M25.6,31.1c-1.6,0-3.2,0-4.8,0c-0.6,0-1-0.2-1-0.7c0-0.5,0.5-0.5,0.9-0.5c3.3,0,6.5,0,9.8,0
	c0.5,0,0.8,0.2,0.8,0.6c0,0.6-0.5,0.7-1,0.7C28.8,31.1,27.2,31.1,25.6,31.1C25.6,31.1,25.6,31.1,25.6,31.1z"/>
<path class="st0" d="M25.6,26.1c-1.6,0-3.2,0-4.8,0c-0.6,0-1-0.2-1-0.7c0-0.5,0.5-0.5,0.9-0.5c3.3,0,6.5,0,9.8,0
	c0.5,0,0.8,0.2,0.8,0.6c0,0.6-0.5,0.7-1,0.7C28.8,26.1,27.2,26.1,25.6,26.1C25.6,26.1,25.6,26.1,25.6,26.1z"/>
<path class="st0" d="M25.6,21.6c-1.6,0-3.2,0-4.8,0c-0.6,0-1-0.2-1-0.7c0-0.5,0.5-0.5,0.9-0.5c3.3,0,6.5,0,9.8,0
	c0.5,0,0.8,0.2,0.8,0.6c0,0.6-0.5,0.7-1,0.7C28.8,21.5,27.2,21.5,25.6,21.6C25.6,21.5,25.6,21.6,25.6,21.6z"/>
</svg>
