<svg id="Layer_1" data-name="Layer 1" xmlns="http://www.w3.org/2000/svg" viewBox="0 0 384.16 383.48"><defs><style>.cls-1{fill:#fff;}</style></defs><title>manufactry_group</title><path d="M21,360.89c5.64-14.26,13.32-26.43,28.56-32.71,3-1.26,5.43-7.57,5.65-11.68.71-13.44.51-26.95.22-40.43-.24-11.68,4.26-17.62,16.75-17.3,19,.48,37.95.41,56.92,0,11.48-.25,16.56,4.85,16.42,16.08-.14,11,0,22,0,33,0,20.55.43,20.86,22.48,16.71,0-16.08.33-32.45-.1-48.8-.32-12.15,4.92-17.22,17-17,19,.42,38,.34,56.93,0,11.38-.18,16.44,4.8,16.23,16.19-.3,16.45-.08,32.9-.08,50.46h22.5c0-16.61.39-32.5-.12-48.36-.43-13.49,5.21-18.94,18.78-18.38,17.45.71,35,.81,52.42,0,14.71-.7,19.93,5.88,19,19.65-.43,6.46.19,13-.12,19.46-.76,15.93-.68,28.4,17.59,38.74,24.66,13.95,20.61,51.61-4.13,66.31-3.82,2.27-7.95,4-11.93,6H54c-16.58-5.43-26.31-17.69-33-33Zm152,24.88v-36H103v36Zm150,0v-36H253v36ZM121.77,325.65V282.56H78.67v43.09ZM303.69,282v43.64h43.1V282Zm-111.54.18v43.51h42V282.2ZM62.71,349a18.1,18.1,0,0,0-18,19.55c.84,11.23,7.51,17.33,18.51,17.17s17.46-6.51,18-17.73A18.11,18.11,0,0,0,62.71,349ZM212.27,349c-9.26.9-16.4,5.86-17.5,17.14-1.05,10.71,6.85,19.73,17.51,19.72,11,0,17.83-5.61,18.92-16.82C232.25,358.39,224.16,349.44,212.27,349Zm150,0c-9.25.92-16.39,5.89-17.46,17.17-1,10.72,6.87,19.72,17.54,19.69,11,0,17.82-5.64,18.9-16.85C382.23,358.35,374.13,349.42,362.23,349Z" transform="translate(-21 -25.41)"/><path d="M21,195.89c7.59-14.16,16.07-27,32.12-33.64,3.31-1.36,5.13-9.9,5.12-15.12-.09-36.62.63-32.72,32.64-32.78,6.41,0,12.81,0,20.36,0C109.4,95.85,117.88,90,134.39,91c11.48.66,14.93-7.09,9.47-17.87-9.41-18.59-9.15-19.43,9.09-29.95,8.21-4.74,16.57-9.26,24.57-14.33,9.74-6.17,16.32-3.73,22.24,5.81,10.48,16.87,16,16.84,26.64-.24,6-9.7,12.74-11.44,22.34-5.45s19.68,11.85,29.82,17.21c11,5.82,11.58,13.21,5.83,23.42-9.09,16.12-6.14,21.7,12.06,21.5,16-.18,19.54,9,18.08,23.31,13.57,0,25.5.29,37.41-.09,10.82-.34,15.73,4.6,15.54,15.2-.07,4,.45,8,0,12-1.58,12.54,2.32,20.09,14.57,26.69,24.21,13,30.13,45.3,14.44,67.69-4.58,6.53-9.8,14.46-19.27,8.32s-2.73-12.86-.39-20.53c2.77-9.07,4.31-21.59,0-28.84C373,188.27,359.8,183,352,184.31s-16.93,10.4-20.25,18.27c-2.55,6,3.7,15.4,4.76,23.46.77,5.93-.52,12.13-.89,18.21-5.93-1.91-14-2-17.44-6-18.59-21.49-11.67-56.42,13.17-71.39,15.2-9.16,15.2-9.16,12.11-29.77H314.69c2.08,18-6.7,23.46-23.11,22.6-11.47-.6-14.89,7.14-9.43,17.94,9.35,18.47,9,19.56-9.1,30-8.21,4.75-16.62,9.17-24.6,14.28-9.82,6.29-16.3,3.61-22.18-5.86-10.46-16.82-16.05-16.8-26.68.24-6.05,9.71-12.72,11.46-22.33,5.46s-19.65-11.91-29.8-17.24c-11.07-5.8-11.62-13.18-5.85-23.37,9.1-16.1,6.11-22-12-21.53-16.48.4-18.47-9.94-19-22.69H82.41c-2.38,12.91-4.2,22.75,12.19,30.73,25.92,12.63,31.76,49.61,13,70.83-3.49,3.94-11.55,3.84-17.51,5.61-.21-6.11-2.66-13.36-.24-18.13,8.11-16,7.64-28.59-3.71-37.68-9.41-7.54-24.1-7.29-33.24.57-10.86,9.33-11.08,21.65-2.76,37.82,2.29,4.47,0,11.31-.2,17.05-6-1.5-13.53-1.28-17.61-4.93-5.23-4.67-7.69-12.46-11.34-18.9Zm114.3-60.35c29.4,2.17,41.54,24,29.94,53l19.07,10.91c4.29-16.18,14.48-18.35,28.7-19,15.56-.68,24.05,5.53,30.09,18.36l17.66-10.39c-11.59-28.55-.56-48.17,29.93-54.1V114.6c-14.61,1.6-22.39-4.43-30-16.87-8.06-13.26-7.24-23.45.88-35.13L243.86,52.45c-19.49,24.57-42.14,24.61-61.77,0l-17.17,9.91c12.71,27.64.4,49.35-29.62,53.34Z" transform="translate(-21 -25.41)"/><path class="cls-1" d="M21,375.89c6.69,15.31,16.42,27.57,33,33H21Z" transform="translate(-21 -25.41)"/><path d="M179.65,124.85a33.51,33.51,0,0,1,33.44-33.28c18.89.06,33.8,15.75,33.23,35-.55,18.38-16,33.12-34.17,32.56A33.56,33.56,0,0,1,179.65,124.85Zm49.29-.48c-7.87-4.52-12.61-9.4-16.94-9.07-3.63.28-6.79,6.66-10.16,10.33,4.07,3.49,7.82,9.09,12.3,9.75C217.5,135.87,221.79,130,228.94,124.37Z" transform="translate(-21 -25.41)"/></svg>