<?xml version="1.0" encoding="utf-8"?>
<!-- Generator: Adobe Illustrator 22.1.0, SVG Export Plug-In . SVG Version: 6.00 Build 0)  -->
<svg version="1.1" id="Layer_1" xmlns="http://www.w3.org/2000/svg" xmlns:xlink="http://www.w3.org/1999/xlink" x="0px" y="0px"
	 viewBox="0 0 313.3 341.9" style="enable-background:new 0 0 313.3 341.9;" xml:space="preserve">
<style type="text/css">
	.st0{fill:#606060;}
	.st1{fill:#FFFFFF;}
</style>
<g>
	<path d="M195,39.9c15.2,3.7,23,13.9,25.9,28.8c1.5,8.2,3.9,16.2,5.9,24.2c3.2,13.3,6.3,26.5,9.7,39.7c1.1,4.1,1,5.7-4.1,5.6
		c-38.2-0.2-76.3-0.1-114.5-0.1c-11.9,0-23.2,2.2-33,9.5C71,158,64.6,172,64.2,189c-0.1,4.3-0.2,8.7,0,13c0.2,3.9-1.2,3.7-3.9,2.1
		c-6.7-3.9-11.4-9.5-13.2-16.9c-6.7-26.8-13.4-53.6-19.6-80.5c-3.2-14,6.5-28.9,21.2-32.9c14.6-4,29.4-7.4,44.1-11
		c30.2-7.4,60.4-14.7,90.6-22.1c0.6-0.1,1.1-0.6,1.6-0.9C188.3,39.9,191.7,39.9,195,39.9z"/>
	<path d="M108,295.9c-4.2-1.9-8.7-3.2-12.4-6.1c-7.3-5.9-11.4-13.5-11.5-22.9c-0.2-26.7-0.2-53.3,0-80c0.2-16,13.1-28.8,29.3-28.8
		c46-0.2,92-0.1,138,0c14.4,0,25.4,9.3,28.9,23.6c0.1,0.4,0.5,0.8,0.8,1.2c0,29.7,0,59.3,0,89c-1.3,11.8-10.4,22.9-25,24
		C206.7,295.9,157.3,295.9,108,295.9z"/>
	<path class="st0" d="M256,295.9c13.1-3.1,21.1-11.4,25-24c0,7.2-0.1,14.3,0.1,21.5c0.1,2.2-0.4,2.6-2.6,2.6
		C271,295.8,263.5,295.9,256,295.9z"/>
	<path class="st1" d="M199,83c2-0.3,2.6,0.8,2.9,2.2c2.3,9.2,4.5,18.4,6.8,27.6c0.6,2.4-0.4,3.3-2.5,3.8c-9.1,2.2-18.1,4.2-27.2,6.6
		c-2.5,0.6-3.3,0-3.9-2.2c-2.2-9.2-4.4-18.4-6.7-27.6c-0.3-1.4-0.7-2.7,1.1-3.2C179.5,87.8,189.4,85.4,199,83z"/>
	<path class="st1" d="M182.7,226.9c25.8,0,51.7,0.1,77.5-0.1c3.9,0,5.1,1,5,5c-0.3,11.2,0,22.3-0.1,33.5
		c-0.1,9.3-5.3,14.7-14.5,14.7c-45.3,0.1-90.7,0.1-136,0c-9.2,0-14.6-5.4-14.7-14.6c-0.1-11.3,0.2-22.7-0.1-34
		c-0.1-4,1.4-4.6,4.9-4.6C130.7,227,156.7,226.9,182.7,226.9z"/>
	<path class="st1" d="M182,197.6c-25.7,0-51.3-0.1-77,0.1c-4.2,0-5.8-1.2-5.2-5.3c0.2-1.3,0-2.7,0-4c0.2-8.9,5.6-14.5,14.3-14.5
		c45.5-0.1,91-0.1,136.5,0c9,0,14.4,5.7,14.3,14.9c0,10.5,1.4,8.7-8.6,8.7C231.7,197.7,206.9,197.6,182,197.6z"/>
</g>
</svg>
