<svg id="Layer_1" data-name="Layer 1" xmlns="http://www.w3.org/2000/svg" viewBox="0 0 480.22 486.99"><defs><style>.cls-1{fill:#fff;}</style></defs><title>product-manufacturing-2039108-1728911</title><path d="M299,488.39v23.44c-1.51-.78-2.64-1.25-3.65-1.92-9.44-6.26-18.76-12.7-28.34-18.73a17.4,17.4,0,0,0-8.68-2.67c-31.49-.19-63,0-94.48-.14-52-.2-94.58-36.12-103.5-87.25-10.72-61.38,37.25-119.69,99.79-120.56,41.48-.58,83-.14,124.47-.16h6.24V256.85a41.48,41.48,0,0,1,3.81,2c9.58,6.35,19.05,12.87,28.76,19a16.54,16.54,0,0,0,8.25,2.45c34.49.16,69-.06,103.47.15,50.8.31,92.89,35.75,102.19,85.74,11.56,62.1-36.23,121.15-99.44,122-44.15.62-88.31.15-132.46.17Zm-8-191.82c-1.71-.08-2.69-.17-3.68-.17q-62.73,0-125.45.07a81.91,81.91,0,0,0-14.41,1.32c-44.92,8.25-76.25,49-72.19,93.82,4.16,45.88,41.59,80.48,87.65,80.75,32.16.19,64.31.09,96.47-.05a13.53,13.53,0,0,0,6.85-2.16c9.81-6.3,19.44-12.87,29.15-19.31a42,42,0,0,1,3.81-2v23.22a21,21,0,0,0,2.27.29c45.82,0,91.65.58,137.45-.22,45.46-.8,82.93-39.28,84.05-84.75,1.25-50.25-37.84-90.7-88.1-91-27.32-.15-54.7,1-82-.38-18.28-.9-33.91,2.79-47.73,14.78-4.05,3.51-9,6-14.19,9.47Z" transform="translate(-58.83 -24.84)"/><path d="M323,80.53H346.6v95.52H251.29V80.81H275V92.56c0,8.82-.05,17.65,0,26.47.05,6.26,3,9.29,9.1,9.35q15,.13,30,0c5.88-.06,8.85-3.08,8.9-9,.09-11,0-22,0-33Z" transform="translate(-58.83 -24.84)"/><path d="M466.88,208.24H443.22V264H427.15v-55.4H402.86c11-16.46,21.32-32,32.14-48.22Z" transform="translate(-58.83 -24.84)"/><path d="M195.05,200.47H171.2V256H155.12V200.41H131l32-48C173.67,168.42,184,183.93,195.05,200.47Z" transform="translate(-58.83 -24.84)"/><path d="M314.63,120.15H283.28V80.82h31.35Z" transform="translate(-58.83 -24.84)"/><path d="M194.76,128.77h16c.42,4.75.83,9.3,1.27,14.31l-15.71,2.62C195.75,139.82,195.28,134.58,194.76,128.77Z" transform="translate(-58.83 -24.84)"/><path d="M273.59,229.47l3.88-15.4,14.23,2.24c-.37,5.14-.72,10-1.14,15.82Z" transform="translate(-58.83 -24.84)"/><path d="M403.23,128.64c-.51,5.72-1,11.07-1.5,16.8l-15.62-2.54c.37-4.73.71-9.26,1.1-14.26Z" transform="translate(-58.83 -24.84)"/><path d="M306,40.32H291.54c-.46-5-.93-10-1.43-15.48h17.05C306.76,30.07,306.38,35,306,40.32Z" transform="translate(-58.83 -24.84)"/><path d="M221.31,86.57c-4.68-2.55-9-4.9-14-7.58l9.2-14.35,12.68,9.7Z" transform="translate(-58.83 -24.84)"/><path d="M369.3,51.47,358.53,63.24,347,54.39,355.69,41Z" transform="translate(-58.83 -24.84)"/><path d="M324.68,229.44l-16.91,2.76c-.45-5.45-.87-10.46-1.31-15.82L320.62,214C321.92,218.9,323.2,223.77,324.68,229.44Z" transform="translate(-58.83 -24.84)"/><path d="M273.06,27.46l4,15.37-13.6,4.84c-2.1-4.62-4.18-9.2-6.6-14.5Z" transform="translate(-58.83 -24.84)"/><path d="M341,223.84c-2.33-5.3-4.33-9.81-6.44-14.6l12.67-7L356,215.55Z" transform="translate(-58.83 -24.84)"/><path d="M250.9,202.3l12.71,7c-2.08,4.76-4.11,9.38-6.39,14.56l-15.08-8.16C245.25,211,248,206.73,250.9,202.3Z" transform="translate(-58.83 -24.84)"/><path d="M369.64,205l-10.81-11.74,9.81-10.73c4,3.14,8,6.25,12.56,9.78Z" transform="translate(-58.83 -24.84)"/><path d="M390.72,178l-14-7.59,5.72-13.3,15.07,5.14C395.22,167.5,393.1,172.42,390.72,178Z" transform="translate(-58.83 -24.84)"/><path d="M196.19,111.42c1.46-5.84,2.73-10.92,4.16-16.62L215.42,100c-1.21,4.84-2.32,9.26-3.51,14Z" transform="translate(-58.83 -24.84)"/><path d="M386,113.5c-1.27-5-2.37-9.28-3.59-14l15-5.28c1.44,5.51,2.82,10.83,4.32,16.59Z" transform="translate(-58.83 -24.84)"/><path d="M390.49,78.39l-14,7.66-8-12L381,64.12Z" transform="translate(-58.83 -24.84)"/><path d="M216.85,192.57l12.59-9.83,9.88,10.57L228.6,205.07Z" transform="translate(-58.83 -24.84)"/><path d="M200.52,162.43l15.06-5.16c2,4.44,3.81,8.61,5.85,13.22l-14,7.65Z" transform="translate(-58.83 -24.84)"/><path d="M241.75,41.31l8.75,13.3-11.39,9L228.29,51.93Z" transform="translate(-58.83 -24.84)"/><path d="M320.43,42.77l3.91-15.5,16.17,5.58c-2.28,5.19-4.29,9.81-6.38,14.59Z" transform="translate(-58.83 -24.84)"/><path d="M115.77,370.76c3.44,0,7.24-.15,11,.05,3.06.15,4.83-.59,5.68-3.95.94-3.67,2.79-7.1,4.49-11.26L125.25,345l22.06-20.33,8.38,10.91,16.12-6.94V313h28.85c0,4-.18,8.31.11,12.56a5,5,0,0,0,2.29,3.65c4,1.89,8.28,3.32,12.78,5.06L226.47,323l19.91,21.65-10.65,8.08c2.49,5.95,4.05,10.14,6,14.12a5,5,0,0,0,3.52,2.33c4.27.29,8.57.11,13.26.11V398c-3.58,0-7.34.18-11.08,0-3.28-.2-5.13.65-6,4.19s-2.78,7.08-4.35,10.89l11.24,10.58L226.5,443.86l-8.35-10.49c-5.52,2.29-9.86,3.88-14,5.93-1.06.53-1.91,2.43-2,3.76-.26,4.12-.1,8.27-.1,12.85H173.34c0-4.13.27-8.3-.14-12.41a6.14,6.14,0,0,0-3-4.09c-3.69-1.87-7.66-3.19-12.24-5L147.29,446,127,424l11-8.7c-2.59-6-4.63-10.71-6.77-15.68H115.77Zm47.08,12.87a24,24,0,1,0,24.51-23.57A24.06,24.06,0,0,0,162.85,383.63Z" transform="translate(-58.83 -24.84)"/><path d="M349.36,344.78l22-20.26,8.52,11,16-6.89V313h28.81c0,4,.1,8.08,0,12.19-.08,2.58.82,3.78,3.42,4.54,3.8,1.11,7.41,2.89,11.72,4.63l10.39-11.69,20.49,22-10.87,8.28c2.76,6.43,4.78,11.14,7,16.24h15.66v28.87c-3.81,0-7.91.08-12,0-2.49-.07-3.86.61-4.64,3.3-1.14,3.95-3,7.71-4.61,11.83l11.16,10.75-21.21,19.52-10-9.61c-4.32,1.81-8.53,3.34-12.48,5.36a5.55,5.55,0,0,0-2.36,4c-.32,4.11-.12,8.25-.12,12.79H397.34c0-4,.27-8.31-.14-12.51a6.14,6.14,0,0,0-3.06-4c-3.69-1.87-7.65-3.19-11.82-4.86l-10.49,11.18-20.42-22.09L362.69,415l-1.08-1.11c-.94-1.94-2.37-3.79-2.75-5.83-1.45-7.85-6.23-9.93-13.47-8.55a34.48,34.48,0,0,1-5.89.05v-28.8c4.1,0,8.26.26,12.36-.14a6.16,6.16,0,0,0,4.12-3c1.86-3.68,3.18-7.65,5-12.21Zm37.49,39a24,24,0,1,0,24.39-23.69A24.05,24.05,0,0,0,386.85,383.75Z" transform="translate(-58.83 -24.84)"/><path class="cls-1" d="M162.85,383.63a24,24,0,0,1,48,.55,24,24,0,1,1-48-.55Z" transform="translate(-58.83 -24.84)"/><path class="cls-1" d="M386.85,383.75a24,24,0,0,1,48,.31,24,24,0,1,1-48-.31Z" transform="translate(-58.83 -24.84)"/></svg>