<?xml version="1.0" encoding="utf-8"?>
<!-- Generator: Adobe Illustrator 22.1.0, SVG Export Plug-In . SVG Version: 6.00 Build 0)  -->
<svg version="1.1" id="Layer_1" xmlns="http://www.w3.org/2000/svg" xmlns:xlink="http://www.w3.org/1999/xlink" x="0px" y="0px"
	 viewBox="0 0 63.3 49.1" style="enable-background:new 0 0 63.3 49.1;" xml:space="preserve">
<style type="text/css">
	.st0{fill:#FFFFFF;}
</style>
<path d="M52,18.9c-2.9,0-5.6,0-8.4,0c-0.8,0-1.5-0.1-1.7-1c-0.2-0.8,0.1-1.5,0.9-1.9c0.2-0.1,0.3-0.4,0.5-0.7c0.2,0,0.5,0,0.8-0.1
	c0,0,0-0.1,0-0.1c-0.8,0-1.5,0-2.3,0c-0.8,0-0.9-0.5-0.9-1.2c0-0.7,0.2-1.1,1-1c1,0,1.9,0,2.9,0c0.5,0,1.1-0.2,1.2,0.7
	c0,0.7,0.2,1.5-0.8,1.5c0.1,0.3,0.1,0.5,0.2,0.8c1.6,0,3.3,0.2,4.8-0.1c0.8-0.1,1.6-1.1,1.9-1.9c0.4-1.1,0.8-2,1.8-2.6
	c0.2-0.1,0.3-0.4,0.3-0.6c0-0.1-0.2-0.3-0.3-0.3c-1.4-0.3-1.4-0.3-1.7-1.7c0-0.1-0.1-0.3-0.1-0.3c-0.5-0.2-1-0.3-1.5-0.4
	c0.4-1.1,1.4-1.6,1.1-2.8c-0.4-0.3-1.3,0.2-1.3-0.7c0-0.2,0.6-0.4,1.1-0.8c0.2-0.4,0.4-1,0.7-1.6c0.7-1.2,1.8-1.7,3.2-1.6
	c1.3,0.2,2.1,1,2.6,2.2c0.2,0.5,0.1,1.2,0.8,1.6c0.1,0,0,0.6-0.1,0.6c-0.5,0.3-0.4,0.7-0.4,1.2c0,0.9,0,1.9,0,2.8
	c0,1.4-0.1,2.7,0.8,3.9c0.4,0.5,0.5,1.3,0.5,2c0,10.7,0,21.4,0,32.1c0,0.1,0,0.2,0,0.4c-1.8,0-3.5,0-5.4,0c0-4.1,0-8.1,0-12.4
	c-1.6,4.1-1.5,8.2-1.4,12.4c-5.3,0-10.5,0-15.7,0c0-3.1,0-6.1,0-9.2c0.9,0,1.8,0,2.6,0c3,0,6.1,0,9.1,0c0.6,0,0.9-0.1,1-0.8
	c0.7-4.1,1.6-8.1,2.2-12.1C52.3,23.1,52,21,52,18.9z M47.4,18.5C47.4,18.5,47.4,18.5,47.4,18.5c1.3,0,2.6,0,3.9,0
	c0.3,0,0.8-0.1,1-0.3c1.3-1.2,2.5-2.4,3.7-3.6c0.5-0.5,0.5-1.3,0-1.7c-0.6-0.5-1.2-0.4-1.7,0c-0.2,0.1-0.3,0.3-0.4,0.4
	c-0.9,0.9-1.8,1.8-2.8,2.7c-0.3,0.3-0.8,0.5-1.2,0.5c-2.1,0.1-4.3,0-6.4,0c-0.7,0-1.1,0.3-1.2,1c-0.1,0.7,0.4,1.1,1.2,1.1
	C44.8,18.5,46.1,18.5,47.4,18.5z M57.7,11.2c0-1,0-1.9,0-2.8c-0.5,0-1,0-1.4,0c-0.4,0-0.9,0-1.2,0c-0.4-0.9,0.2-1.8-0.5-2.6
	c-0.7-0.7-1.4-0.9-2.1-0.7c-0.4,1-0.8,1.8-1.2,2.7c0.4,0,0.7,0.1,1.1,0.1c0.1,0.6,0.1,1.4,0.4,1.8c0.3,0.4,1.1,0.3,1.7,0.4
	c0,0.3,0,0.7,0.1,1C55.7,11.2,56.7,11.2,57.7,11.2z M50.9,4.5c0,0,0,0.1,0,0.1c2.5,0,4.9,0,7.4,0c0,0,0-0.1,0-0.1
	C55.8,4.5,53.3,4.5,50.9,4.5z"/>
<path d="M5.6,36.5c0-3.3,0-6.5,0-9.8c4.9,0,9.9,0,14.9,0c0,3.3,0,6.5,0,9.8C15.5,36.5,10.6,36.5,5.6,36.5z M12.5,35.8
	c0-2.9,0-5.7,0-8.5c-2.1,0-4.2,0-6.2,0c0,2.9,0,5.7,0,8.5C8.4,35.8,10.4,35.8,12.5,35.8z"/>
<path d="M36.5,5.3c0,3.3,0,6.5,0,9.8c-5,0-9.9,0-14.9,0c0-3.3,0-6.5,0-9.8C26.5,5.3,31.5,5.3,36.5,5.3z M22.3,5.9c0,2.9,0,5.7,0,8.5
	c2.1,0,4.2,0,6.2,0c0-2.9,0-5.7,0-8.5C26.4,5.9,24.3,5.9,22.3,5.9z"/>
<path d="M20.4,15.9c0,3.3,0,6.5,0,9.8c-4.9,0-9.9,0-14.8,0c0-3.2,0-6.5,0-9.8C10.5,15.9,15.5,15.9,20.4,15.9z M12.5,16.5
	c-2.1,0-4.2,0-6.2,0c0,2.9,0,5.7,0,8.5c2.1,0,4.2,0,6.2,0C12.5,22.2,12.5,19.4,12.5,16.5z"/>
<path d="M21.6,26.6c4.9,0,9.8,0,14.8,0c0,3.3,0,6.5,0,9.9c-4.9,0-9.8,0-14.8,0C21.6,33.2,21.6,29.9,21.6,26.6z M28.5,35.8
	c0-2.9,0-5.7,0-8.5c-2.1,0-4.2,0-6.2,0c0,2.9,0,5.7,0,8.5C24.4,35.8,26.4,35.8,28.5,35.8z"/>
<path d="M20.4,47c-4.9,0-9.8,0-14.8,0c0-3.2,0-6.5,0-9.8c4.9,0,9.8,0,14.8,0C20.4,40.5,20.4,43.7,20.4,47z M12.5,46.4
	c0-2.9,0-5.7,0-8.5c-2.1,0-4.1,0-6.2,0c0,2.9,0,5.7,0,8.5C8.4,46.4,10.4,46.4,12.5,46.4z"/>
<path d="M36.5,37.2c0,3.3,0,6.5,0,9.8c-5,0-9.9,0-14.9,0c0-3.3,0-6.5,0-9.8C26.5,37.2,31.5,37.2,36.5,37.2z M28.5,46.4
	c0-2.9,0-5.7,0-8.5c-2.1,0-4.1,0-6.2,0c0,2.9,0,5.7,0,8.5C24.3,46.4,26.4,46.4,28.5,46.4z"/>
<path d="M21.6,25.7c0-3.3,0-6.5,0-9.8c5,0,9.9,0,14.9,0c0,3.3,0,6.5,0,9.8C31.5,25.7,26.6,25.7,21.6,25.7z M22.2,25
	c2.1,0,4.2,0,6.3,0c0-2.9,0-5.7,0-8.5c-2.1,0-4.2,0-6.3,0C22.2,19.4,22.2,22.2,22.2,25z"/>
<path d="M41.7,8.7c0,0.2,0,0.4,0,0.5c-0.9,0.4-1.7,0.7-2.5,1.1c-1,0.6-1.5,1.7-1.7,2.8c0,0.2-0.3,0.4-0.6,0.8
	C36.5,11.4,39.1,8.5,41.7,8.7z"/>
<path d="M38,13.8c0.1-2.4,1.7-4,3.9-3.9c-0.3,0.3-0.5,0.6-0.7,0.6c-1.4,0.3-2.3,1.2-2.6,2.6C38.7,13.4,38.4,13.6,38,13.8z"/>
<path d="M41.9,11.1c-0.2,0.3-0.4,0.6-0.5,0.6c-0.7,0.3-1.2,0.8-1.5,1.5c-0.1,0.2-0.3,0.3-0.7,0.5C39.3,12.1,40.3,11.1,41.9,11.1z"/>
<path class="st0" d="M50.9,4.5c2.5,0,4.9,0,7.4,0c0,0,0,0.1,0,0.1c-2.5,0-4.9,0-7.4,0C50.9,4.5,50.9,4.5,50.9,4.5z"/>
<path d="M8.3,30.5c0-1,0-1.8,0-2.7c0.5,0,1,0,1.6,0c0,0.8,0,1.6,0,2.5c-0.2-0.3-0.5-0.5-0.7-0.8C8.9,29.8,8.6,30.1,8.3,30.5z"/>
<path d="M24.4,6.4c0.5,0,1,0,1.5,0c0,0.9,0,1.7,0,2.6c-0.3-0.4-0.5-0.6-0.7-0.9c-0.2,0.3-0.5,0.5-0.8,0.9
	C24.4,8.1,24.4,7.3,24.4,6.4z"/>
<path d="M9.9,17.1c0,0.9,0,1.6,0,2.6c-0.3-0.3-0.5-0.6-0.8-0.9c-0.3,0.3-0.5,0.6-0.8,1c0-1,0-1.8,0-2.7C8.8,17.1,9.3,17.1,9.9,17.1z
	"/>
<path d="M24.4,27.8c0.5,0,1,0,1.5,0c0,0.8,0,1.6,0,2.6c-0.3-0.3-0.5-0.6-0.7-0.8c-0.2,0.3-0.4,0.5-0.8,0.8
	C24.4,29.5,24.4,28.7,24.4,27.8z"/>
<path d="M8.3,38.4c0.6,0,1,0,1.6,0c0,0.9,0,1.7,0,2.6c-0.3-0.3-0.5-0.6-0.8-0.9c-0.3,0.3-0.5,0.6-0.8,1C8.3,40.2,8.3,39.3,8.3,38.4z
	"/>
<path d="M25.1,40.2c-0.2,0.3-0.4,0.5-0.7,0.9c0-1,0-1.8,0-2.6c0.5,0,1,0,1.5,0c0,0.8,0,1.6,0,2.6C25.6,40.7,25.4,40.5,25.1,40.2z"/>
<path d="M25.9,19.7c-0.3-0.4-0.5-0.6-0.7-0.9c-0.2,0.3-0.5,0.5-0.8,0.9c0-1,0-1.8,0-2.6c0.5,0,1,0,1.5,0
	C25.9,17.9,25.9,18.7,25.9,19.7z"/>
</svg>
